<svg width="50" height="50" viewBox="0 0 50 50" fill="none" xmlns="http://www.w3.org/2000/svg">
<path d="M12 6C9.79678 6 8 7.79678 8 10V33C8 35.2032 9.79678 37 12 37H18V40C18 42.2032 19.7968 44 22 44H38C40.2032 44 42 42.2032 42 40V21.25C42 21.1837 41.9736 21.1201 41.9268 21.0732L33.9268 13.0732C33.8799 13.0264 33.8163 13 33.75 13H30.8535L23.9268 6.07324C23.8799 6.02636 23.8163 6.00001 23.75 6H23.7461H12ZM24 6.85352L30.1465 13H24.9287C24.3587 12.4174 24 11.6306 24 10.75V6.85352ZM12 7H23.5V10.75C23.5 11.5959 23.7861 12.3728 24.2598 13H22C19.7968 13 18 14.7968 18 17H12.75C12.7169 16.9995 12.684 17.0057 12.6532 17.018C12.6225 17.0304 12.5945 17.0487 12.5709 17.072C12.5473 17.0952 12.5286 17.1229 12.5158 17.1535C12.503 17.1841 12.4964 17.2169 12.4964 17.25C12.4964 17.2831 12.503 17.3159 12.5158 17.3465C12.5286 17.3771 12.5473 17.4048 12.5709 17.428C12.5945 17.4513 12.6225 17.4696 12.6532 17.482C12.684 17.4943 12.7169 17.5005 12.75 17.5H18V19.5H12.75C12.7169 19.4995 12.684 19.5057 12.6532 19.518C12.6225 19.5304 12.5945 19.5487 12.5709 19.572C12.5473 19.5952 12.5286 19.6229 12.5158 19.6535C12.503 19.6841 12.4964 19.7169 12.4964 19.75C12.4964 19.7831 12.503 19.8159 12.5158 19.8465C12.5286 19.8771 12.5473 19.9048 12.5709 19.928C12.5945 19.9513 12.6225 19.9696 12.6532 19.982C12.684 19.9943 12.7169 20.0005 12.75 20H18V22H12.75C12.7169 21.9995 12.684 22.0057 12.6532 22.018C12.6225 22.0304 12.5945 22.0487 12.5709 22.072C12.5473 22.0952 12.5286 22.1229 12.5158 22.1535C12.503 22.1841 12.4964 22.2169 12.4964 22.25C12.4964 22.2831 12.503 22.3159 12.5158 22.3465C12.5286 22.3771 12.5473 22.4048 12.5709 22.428C12.5945 22.4513 12.6225 22.4696 12.6532 22.482C12.684 22.4943 12.7169 22.5005 12.75 22.5H18V24.5H12.75C12.7169 24.4995 12.684 24.5057 12.6532 24.518C12.6225 24.5304 12.5945 24.5487 12.5709 24.572C12.5473 24.5952 12.5286 24.6229 12.5158 24.6535C12.503 24.6841 12.4964 24.7169 12.4964 24.75C12.4964 24.7831 12.503 24.8159 12.5158 24.8465C12.5286 24.8771 12.5473 24.9048 12.5709 24.928C12.5945 24.9513 12.6225 24.9696 12.6532 24.982C12.684 24.9943 12.7169 25.0005 12.75 25H18V27H12.75C12.7169 26.9995 12.684 27.0057 12.6532 27.018C12.6225 27.0304 12.5945 27.0487 12.5709 27.072C12.5473 27.0952 12.5286 27.1229 12.5158 27.1535C12.503 27.1841 12.4964 27.2169 12.4964 27.25C12.4964 27.2831 12.503 27.3159 12.5158 27.3465C12.5286 27.3771 12.5473 27.4048 12.5709 27.428C12.5945 27.4513 12.6225 27.4696 12.6532 27.482C12.684 27.4943 12.7169 27.5005 12.75 27.5H18V29.5H12.75C12.7169 29.4995 12.684 29.5057 12.6532 29.518C12.6225 29.5304 12.5945 29.5487 12.5709 29.572C12.5473 29.5952 12.5286 29.6229 12.5158 29.6535C12.503 29.6841 12.4964 29.7169 12.4964 29.75C12.4964 29.7831 12.503 29.8159 12.5158 29.8465C12.5286 29.8771 12.5473 29.9048 12.5709 29.928C12.5945 29.9513 12.6225 29.9696 12.6532 29.982C12.684 29.9943 12.7169 30.0005 12.75 30H18V34H13.25C12.0047 34 11 32.9953 11 31.75V11.25C11 10.0047 12.0047 9 13.25 9C13.2831 9.00047 13.316 8.99435 13.3468 8.98199C13.3775 8.96964 13.4055 8.9513 13.4291 8.92804C13.4527 8.90478 13.4714 8.87706 13.4842 8.8465C13.497 8.81593 13.5036 8.78313 13.5036 8.75C13.5036 8.71687 13.497 8.68407 13.4842 8.6535C13.4714 8.62294 13.4527 8.59522 13.4291 8.57196C13.4055 8.5487 13.3775 8.53036 13.3468 8.51801C13.316 8.50565 13.2831 8.49953 13.25 8.5C11.7343 8.5 10.5 9.73434 10.5 11.25V31.75C10.5 33.2657 11.7343 34.5 13.25 34.5H18V36H12C10.3372 36 9 34.6628 9 33V10C9 8.33722 10.3372 7 12 7ZM34 13.8535L41.1465 21H37.25C35.4521 21 34 19.5479 34 17.75V13.8535ZM22 14H33.5V17.75C33.5 19.8181 35.1819 21.5 37.25 21.5H41V40C41 41.6628 39.6628 43 38 43H22C20.3372 43 19 41.6628 19 40V17C19 15.3372 20.3372 14 22 14ZM23.25 15.5C21.7343 15.5 20.5 16.7343 20.5 18.25V38.75C20.5 40.2657 21.7343 41.5 23.25 41.5H36.75C38.2657 41.5 39.5 40.2657 39.5 38.75V32.25C39.5005 32.2169 39.4943 32.184 39.482 32.1532C39.4696 32.1225 39.4513 32.0945 39.428 32.0709C39.4048 32.0473 39.3771 32.0286 39.3465 32.0158C39.3159 32.003 39.2831 31.9964 39.25 31.9964C39.2169 31.9964 39.1841 32.003 39.1535 32.0158C39.1229 32.0286 39.0952 32.0473 39.072 32.0709C39.0487 32.0945 39.0304 32.1225 39.018 32.1532C39.0057 32.184 38.9995 32.2169 39 32.25V38.75C39 39.9953 37.9953 41 36.75 41H23.25C22.0047 41 21 39.9953 21 38.75V18.25C21 17.0047 22.0047 16 23.25 16C23.2831 16.0005 23.316 15.9943 23.3468 15.982C23.3775 15.9696 23.4055 15.9513 23.4291 15.928C23.4527 15.9048 23.4714 15.8771 23.4842 15.8465C23.497 15.8159 23.5036 15.7831 23.5036 15.75C23.5036 15.7169 23.497 15.6841 23.4842 15.6535C23.4714 15.6229 23.4527 15.5952 23.4291 15.572C23.4055 15.5487 23.3775 15.5304 23.3468 15.518C23.316 15.5057 23.2831 15.4995 23.25 15.5ZM31.25 23.5C31.1837 23.5 31.1201 23.5263 31.0732 23.5732C31.0263 23.6201 31 23.6837 31 23.75V29.25C30.9995 29.2831 31.0057 29.316 31.018 29.3468C31.0304 29.3775 31.0487 29.4055 31.072 29.4291C31.0952 29.4527 31.1229 29.4714 31.1535 29.4842C31.1841 29.497 31.2169 29.5036 31.25 29.5036C31.2831 29.5036 31.3159 29.497 31.3465 29.4842C31.3771 29.4714 31.4048 29.4527 31.428 29.4291C31.4513 29.4055 31.4696 29.3775 31.482 29.3468C31.4943 29.316 31.5005 29.2831 31.5 29.25V24H37V29.5H33.25C33.2169 29.4995 33.184 29.5057 33.1532 29.518C33.1225 29.5304 33.0945 29.5487 33.0709 29.572C33.0473 29.5952 33.0286 29.6229 33.0158 29.6535C33.003 29.6841 32.9964 29.7169 32.9964 29.75C32.9964 29.7831 33.003 29.8159 33.0158 29.8465C33.0286 29.8771 33.0473 29.9048 33.0709 29.928C33.0945 29.9513 33.1225 29.9696 33.1532 29.982C33.184 29.9943 33.2169 30.0005 33.25 30H37.25C37.3163 30 37.3799 29.9737 37.4268 29.9268C37.4737 29.8799 37.5 29.8163 37.5 29.75V23.75C37.5 23.6837 37.4737 23.6201 37.4268 23.5732C37.3799 23.5263 37.3163 23.5 37.25 23.5H31.25ZM22.75 24C22.7169 23.9995 22.684 24.0057 22.6532 24.018C22.6225 24.0304 22.5945 24.0487 22.5709 24.072C22.5473 24.0952 22.5286 24.1229 22.5158 24.1535C22.503 24.1841 22.4964 24.2169 22.4964 24.25C22.4964 24.2831 22.503 24.3159 22.5158 24.3465C22.5286 24.3771 22.5473 24.4048 22.5709 24.428C22.5945 24.4513 22.6225 24.4696 22.6532 24.482C22.684 24.4943 22.7169 24.5005 22.75 24.5H29.25C29.2831 24.5005 29.316 24.4943 29.3468 24.482C29.3775 24.4696 29.4055 24.4513 29.4291 24.428C29.4527 24.4048 29.4714 24.3771 29.4842 24.3465C29.497 24.3159 29.5036 24.2831 29.5036 24.25C29.5036 24.2169 29.497 24.1841 29.4842 24.1535C29.4714 24.1229 29.4527 24.0952 29.4291 24.072C29.4055 24.0487 29.3775 24.0304 29.3468 24.018C29.316 24.0057 29.2831 23.9995 29.25 24H22.75ZM39.2461 26.4961C39.2133 26.4966 39.1809 26.5036 39.1507 26.5166C39.1206 26.5297 39.0933 26.5485 39.0705 26.5721C39.0476 26.5957 39.0296 26.6235 39.0175 26.654C39.0054 26.6846 38.9995 26.7172 39 26.75V27.75C38.9995 27.7831 39.0057 27.816 39.018 27.8468C39.0304 27.8775 39.0487 27.9055 39.072 27.9291C39.0952 27.9527 39.1229 27.9714 39.1535 27.9842C39.1841 27.997 39.2169 28.0036 39.25 28.0036C39.2831 28.0036 39.3159 27.997 39.3465 27.9842C39.3771 27.9714 39.4048 27.9527 39.428 27.9291C39.4513 27.9055 39.4696 27.8775 39.482 27.8468C39.4943 27.816 39.5005 27.7831 39.5 27.75V26.75C39.5005 26.7165 39.4943 26.6833 39.4817 26.6522C39.4692 26.6212 39.4505 26.593 39.4268 26.5693C39.4031 26.5456 39.3749 26.5269 39.3439 26.5144C39.3128 26.5018 39.2796 26.4956 39.2461 26.4961ZM22.75 26.5C22.7169 26.4995 22.684 26.5057 22.6532 26.518C22.6225 26.5304 22.5945 26.5487 22.5709 26.572C22.5473 26.5952 22.5286 26.6229 22.5158 26.6535C22.503 26.6841 22.4964 26.7169 22.4964 26.75C22.4964 26.7831 22.503 26.8159 22.5158 26.8465C22.5286 26.8771 22.5473 26.9048 22.5709 26.928C22.5945 26.9513 22.6225 26.9696 22.6532 26.982C22.684 26.9943 22.7169 27.0005 22.75 27H29.25C29.2831 27.0005 29.316 26.9943 29.3468 26.982C29.3775 26.9696 29.4055 26.9513 29.4291 26.928C29.4527 26.9048 29.4714 26.8771 29.4842 26.8465C29.497 26.8159 29.5036 26.7831 29.5036 26.75C29.5036 26.7169 29.497 26.6841 29.4842 26.6535C29.4714 26.6229 29.4527 26.5952 29.4291 26.572C29.4055 26.5487 29.3775 26.5304 29.3468 26.518C29.316 26.5057 29.2831 26.4995 29.25 26.5H22.75ZM39.2461 28.4961C39.2133 28.4966 39.1809 28.5036 39.1507 28.5166C39.1206 28.5297 39.0933 28.5485 39.0705 28.5721C39.0476 28.5957 39.0296 28.6235 39.0175 28.654C39.0054 28.6846 38.9995 28.7172 39 28.75V31.25C38.9995 31.2831 39.0057 31.316 39.018 31.3468C39.0304 31.3775 39.0487 31.4055 39.072 31.4291C39.0952 31.4527 39.1229 31.4714 39.1535 31.4842C39.1841 31.497 39.2169 31.5036 39.25 31.5036C39.2831 31.5036 39.3159 31.497 39.3465 31.4842C39.3771 31.4714 39.4048 31.4527 39.428 31.4291C39.4513 31.4055 39.4696 31.3775 39.482 31.3468C39.4943 31.316 39.5005 31.2831 39.5 31.25V28.75C39.5005 28.7165 39.4943 28.6833 39.4817 28.6522C39.4692 28.6212 39.4505 28.593 39.4268 28.5693C39.4031 28.5456 39.3749 28.5269 39.3439 28.5144C39.3128 28.5018 39.2796 28.4956 39.2461 28.4961ZM22.75 29C22.7169 28.9995 22.684 29.0057 22.6532 29.018C22.6225 29.0304 22.5945 29.0487 22.5709 29.072C22.5473 29.0952 22.5286 29.1229 22.5158 29.1535C22.503 29.1841 22.4964 29.2169 22.4964 29.25C22.4964 29.2831 22.503 29.3159 22.5158 29.3465C22.5286 29.3771 22.5473 29.4048 22.5709 29.428C22.5945 29.4513 22.6225 29.4696 22.6532 29.482C22.684 29.4943 22.7169 29.5005 22.75 29.5H29.25C29.2831 29.5005 29.316 29.4943 29.3468 29.482C29.3775 29.4696 29.4055 29.4513 29.4291 29.428C29.4527 29.4048 29.4714 29.3771 29.4842 29.3465C29.497 29.3159 29.5036 29.2831 29.5036 29.25C29.5036 29.2169 29.497 29.1841 29.4842 29.1535C29.4714 29.1229 29.4527 29.0952 29.4291 29.072C29.4055 29.0487 29.3775 29.0304 29.3468 29.018C29.316 29.0057 29.2831 28.9995 29.25 29H22.75ZM22.75 31.5C22.7169 31.4995 22.684 31.5057 22.6532 31.518C22.6225 31.5304 22.5945 31.5487 22.5709 31.572C22.5473 31.5952 22.5286 31.6229 22.5158 31.6535C22.503 31.6841 22.4964 31.7169 22.4964 31.75C22.4964 31.7831 22.503 31.8159 22.5158 31.8465C22.5286 31.8771 22.5473 31.9048 22.5709 31.928C22.5945 31.9513 22.6225 31.9696 22.6532 31.982C22.684 31.9943 22.7169 32.0005 22.75 32H26.75C26.7831 32.0005 26.816 31.9943 26.8468 31.982C26.8775 31.9696 26.9055 31.9513 26.9291 31.928C26.9527 31.9048 26.9714 31.8771 26.9842 31.8465C26.997 31.8159 27.0036 31.7831 27.0036 31.75C27.0036 31.7169 26.997 31.6841 26.9842 31.6535C26.9714 31.6229 26.9527 31.5952 26.9291 31.572C26.9055 31.5487 26.8775 31.5304 26.8468 31.518C26.816 31.5057 26.7831 31.4995 26.75 31.5H22.75ZM28.25 31.5C28.2169 31.4995 28.184 31.5057 28.1532 31.518C28.1225 31.5304 28.0945 31.5487 28.0709 31.572C28.0473 31.5952 28.0286 31.6229 28.0158 31.6535C28.003 31.6841 27.9964 31.7169 27.9964 31.75C27.9964 31.7831 28.003 31.8159 28.0158 31.8465C28.0286 31.8771 28.0473 31.9048 28.0709 31.928C28.0945 31.9513 28.1225 31.9696 28.1532 31.982C28.184 31.9943 28.2169 32.0005 28.25 32H37.25C37.2831 32.0005 37.316 31.9943 37.3468 31.982C37.3775 31.9696 37.4055 31.9513 37.4291 31.928C37.4527 31.9048 37.4714 31.8771 37.4842 31.8465C37.497 31.8159 37.5036 31.7831 37.5036 31.75C37.5036 31.7169 37.497 31.6841 37.4842 31.6535C37.4714 31.6229 37.4527 31.5952 37.4291 31.572C37.4055 31.5487 37.3775 31.5304 37.3468 31.518C37.316 31.5057 37.2831 31.4995 37.25 31.5H28.25ZM22.75 34C22.7169 33.9995 22.684 34.0057 22.6532 34.018C22.6225 34.0304 22.5945 34.0487 22.5709 34.072C22.5473 34.0952 22.5286 34.1229 22.5158 34.1535C22.503 34.1841 22.4964 34.2169 22.4964 34.25C22.4964 34.2831 22.503 34.3159 22.5158 34.3465C22.5286 34.3771 22.5473 34.4048 22.5709 34.428C22.5945 34.4513 22.6225 34.4696 22.6532 34.482C22.684 34.4943 22.7169 34.5005 22.75 34.5H28.25C28.2831 34.5005 28.316 34.4943 28.3468 34.482C28.3775 34.4696 28.4055 34.4513 28.4291 34.428C28.4527 34.4048 28.4714 34.3771 28.4842 34.3465C28.497 34.3159 28.5036 34.2831 28.5036 34.25C28.5036 34.2169 28.497 34.1841 28.4842 34.1535C28.4714 34.1229 28.4527 34.0952 28.4291 34.072C28.4055 34.0487 28.3775 34.0304 28.3468 34.018C28.316 34.0057 28.2831 33.9995 28.25 34H22.75ZM29.75 34C29.7169 33.9995 29.684 34.0057 29.6532 34.018C29.6225 34.0304 29.5945 34.0487 29.5709 34.072C29.5473 34.0952 29.5286 34.1229 29.5158 34.1535C29.503 34.1841 29.4964 34.2169 29.4964 34.25C29.4964 34.2831 29.503 34.3159 29.5158 34.3465C29.5286 34.3771 29.5473 34.4048 29.5709 34.428C29.5945 34.4513 29.6225 34.4696 29.6532 34.482C29.684 34.4943 29.7169 34.5005 29.75 34.5H33.25C33.2831 34.5005 33.316 34.4943 33.3468 34.482C33.3775 34.4696 33.4055 34.4513 33.4291 34.428C33.4527 34.4048 33.4714 34.3771 33.4842 34.3465C33.497 34.3159 33.5036 34.2831 33.5036 34.25C33.5036 34.2169 33.497 34.1841 33.4842 34.1535C33.4714 34.1229 33.4527 34.0952 33.4291 34.072C33.4055 34.0487 33.3775 34.0304 33.3468 34.018C33.316 34.0057 33.2831 33.9995 33.25 34H29.75ZM34.75 34C34.7169 33.9995 34.684 34.0057 34.6532 34.018C34.6225 34.0304 34.5945 34.0487 34.5709 34.072C34.5473 34.0952 34.5286 34.1229 34.5158 34.1535C34.503 34.1841 34.4964 34.2169 34.4964 34.25C34.4964 34.2831 34.503 34.3159 34.5158 34.3465C34.5286 34.3771 34.5473 34.4048 34.5709 34.428C34.5945 34.4513 34.6225 34.4696 34.6532 34.482C34.684 34.4943 34.7169 34.5005 34.75 34.5H37.25C37.2831 34.5005 37.316 34.4943 37.3468 34.482C37.3775 34.4696 37.4055 34.4513 37.4291 34.428C37.4527 34.4048 37.4714 34.3771 37.4842 34.3465C37.497 34.3159 37.5036 34.2831 37.5036 34.25C37.5036 34.2169 37.497 34.1841 37.4842 34.1535C37.4714 34.1229 37.4527 34.0952 37.4291 34.072C37.4055 34.0487 37.3775 34.0304 37.3468 34.018C37.316 34.0057 37.2831 33.9995 37.25 34H34.75ZM22.75 36.5C22.7169 36.4995 22.684 36.5057 22.6532 36.518C22.6225 36.5304 22.5945 36.5487 22.5709 36.572C22.5473 36.5952 22.5286 36.6229 22.5158 36.6535C22.503 36.6841 22.4964 36.7169 22.4964 36.75C22.4964 36.7831 22.503 36.8159 22.5158 36.8465C22.5286 36.8771 22.5473 36.9048 22.5709 36.928C22.5945 36.9513 22.6225 36.9696 22.6532 36.982C22.684 36.9943 22.7169 37.0005 22.75 37H30.75C30.7831 37.0005 30.816 36.9943 30.8468 36.982C30.8775 36.9696 30.9055 36.9513 30.9291 36.928C30.9527 36.9048 30.9714 36.8771 30.9842 36.8465C30.997 36.8159 31.0036 36.7831 31.0036 36.75C31.0036 36.7169 30.997 36.6841 30.9842 36.6535C30.9714 36.6229 30.9527 36.5952 30.9291 36.572C30.9055 36.5487 30.8775 36.5304 30.8468 36.518C30.816 36.5057 30.7831 36.4995 30.75 36.5H22.75ZM32.25 36.5C32.2169 36.4995 32.184 36.5057 32.1532 36.518C32.1225 36.5304 32.0945 36.5487 32.0709 36.572C32.0473 36.5952 32.0286 36.6229 32.0158 36.6535C32.003 36.6841 31.9964 36.7169 31.9964 36.75C31.9964 36.7831 32.003 36.8159 32.0158 36.8465C32.0286 36.8771 32.0473 36.9048 32.0709 36.928C32.0945 36.9513 32.1225 36.9696 32.1532 36.982C32.184 36.9943 32.2169 37.0005 32.25 37H37.25C37.2831 37.0005 37.316 36.9943 37.3468 36.982C37.3775 36.9696 37.4055 36.9513 37.4291 36.928C37.4527 36.9048 37.4714 36.8771 37.4842 36.8465C37.497 36.8159 37.5036 36.7831 37.5036 36.75C37.5036 36.7169 37.497 36.6841 37.4842 36.6535C37.4714 36.6229 37.4527 36.5952 37.4291 36.572C37.4055 36.5487 37.3775 36.5304 37.3468 36.518C37.316 36.5057 37.2831 36.4995 37.25 36.5H32.25Z" fill="#4788C7"/>
</svg>
