<svg width="50" height="50" viewBox="0 0 50 50" fill="none" xmlns="http://www.w3.org/2000/svg">
<path d="M1.95749 44.7412L3.71749 39.0363L18.4975 24.255L17.7575 23.5163C17.2337 22.9938 16.9475 22.2987 16.9475 21.56C16.9475 20.8212 17.2337 20.1263 17.7575 19.6025L18.9587 18.4L18.9275 18.1025C18.8675 17.5475 18.8387 17.0288 18.8387 16.5188C18.8387 8.445 25.4075 1.87625 33.4812 1.87625L33.8975 1.8825C41.5275 2.0925 47.9075 8.4725 48.1187 16.1025C48.23 20.0963 46.76 23.8688 43.9787 26.7275C41.1975 29.5875 37.47 31.1613 33.4825 31.1613C32.9725 31.1613 32.455 31.1325 31.8975 31.0725L31.6 31.04L30.3987 32.2413C29.875 32.7638 29.18 33.0513 28.4412 33.0513C27.7025 33.0513 27.0075 32.7638 26.485 32.2413L25.745 31.5013L22.8712 34.375H18.125V39.1213L16.6212 40.625H11.875V45.3713L10.9525 46.2938L5.26124 48.0413L1.95749 44.7412ZM33.7137 6.875C31.1987 6.875 28.8362 7.85375 27.0587 9.6325L26.6162 10.075L39.9262 23.385L40.3687 22.9425C42.1462 21.165 43.125 18.8013 43.125 16.2875C43.125 13.7738 42.1462 11.41 40.3687 9.6325C38.5912 7.85375 36.2275 6.875 33.7137 6.875Z" fill="#DFF0FE"/>
<path d="M33.4825 2.5C33.615 2.5 33.7475 2.50125 33.88 2.505C41.185 2.7075 47.2925 8.81375 47.4937 16.1188C47.6 19.9412 46.1925 23.5537 43.5312 26.29C40.8688 29.0275 37.3 30.535 33.4825 30.535C32.995 30.535 32.4988 30.5075 31.965 30.45L31.37 30.3862L30.9475 30.8088L29.9575 31.7987C29.5525 32.2037 29.015 32.4263 28.4425 32.4263C27.87 32.4263 27.3325 32.2037 26.9275 31.7987L26.63 31.5013L25.7463 30.6175L24.8625 31.5013L22.6125 33.75H18.75H17.5V35V38.8625L16.3625 40H12.5H11.25V41.25V45.1125L10.62 45.7425L5.43625 47.335L2.66625 44.5662L4.26875 39.3688L18.4975 25.14L19.3813 24.2563L18.4975 23.3725L18.2 23.075C17.795 22.67 17.5725 22.1325 17.5725 21.56C17.5725 20.9875 17.795 20.45 18.2 20.045L19.19 19.055L19.6125 18.6325L19.5487 18.0375C19.4912 17.5037 19.4638 17.0075 19.4638 16.52C19.4638 8.78875 25.7525 2.5 33.4825 2.5ZM39.9263 24.2675L40.81 23.3838C42.7062 21.4888 43.75 18.9675 43.75 16.2863C43.75 13.605 42.7062 11.085 40.81 9.18875C38.915 7.29375 36.3937 6.25 33.7138 6.25C31.0338 6.25 28.5125 7.29375 26.6162 9.19L25.7325 10.0737L26.6162 10.9575L39.0425 23.3838L39.9263 24.2675ZM33.4825 1.25C25.05 1.25 18.2138 8.085 18.2138 16.5175C18.2138 17.0763 18.2475 17.6262 18.3063 18.1688L17.3162 19.1587C15.9913 20.4837 15.9913 22.6325 17.3162 23.9575L17.6138 24.255L3.16625 38.7038L1.25 44.9162L5.085 48.75L11.285 46.845L12.5 45.63V41.25H16.88L18.75 39.38V35H23.13L25.7437 32.3862L26.0413 32.6838C26.7038 33.3462 27.5725 33.6775 28.44 33.6775C29.3088 33.6775 30.1762 33.3462 30.8387 32.6838L31.8287 31.6937C32.3712 31.7525 32.9213 31.7863 33.48 31.7863C42.0563 31.7863 48.9813 24.715 48.7412 16.085C48.52 8.1175 41.8787 1.47625 33.9125 1.25625C33.77 1.2525 33.625 1.25 33.4825 1.25ZM39.9263 22.5L27.5 10.0737C29.2162 8.3575 31.465 7.5 33.7138 7.5C35.9625 7.5 38.2113 8.3575 39.9275 10.0737C43.3575 13.505 43.3575 19.0688 39.9263 22.5Z" fill="#4788C7"/>
<path d="M21.1913 27.1925L7.31626 41.0675C7.07251 41.3112 6.67626 41.3112 6.43251 41.0675C6.18876 40.8237 6.18876 40.4275 6.43251 40.1837L20.3075 26.3088C20.5513 26.065 20.9475 26.065 21.1913 26.3088C21.435 26.5525 21.435 26.9487 21.1913 27.1925Z" fill="#98CCFD"/>
<path d="M18.2482 24.9004L19.1321 24.0165L25.7843 30.6685L24.9004 31.5524L18.2482 24.9004Z" fill="#4788C7"/>
</svg>
