<svg width="75" height="75" viewBox="0 0 75 75" fill="none" xmlns="http://www.w3.org/2000/svg">
<path d="M33.104 8.25C32.2127 8.25 31.4405 8.88303 31.2656 9.75732C31.2651 9.75976 31.2646 9.7622 31.2642 9.76465L30.0615 16.5H29.625C27.7656 16.5 26.25 18.0156 26.25 19.875V20.25H23.25C17.4597 20.25 12.75 24.9597 12.75 30.75V32.3804L9.75 32.9604V19.4326C10.6158 19.2818 11.3161 18.8762 11.811 18.3193C12.4423 17.6092 12.75 16.6771 12.75 15.75C12.75 14.8229 12.4423 13.8908 11.811 13.1807C11.1798 12.4705 10.2187 12 9 12C7.78125 12 6.82019 12.4705 6.18896 13.1807C5.55774 13.8908 5.25 14.8229 5.25 15.75C5.25 16.6771 5.55774 17.6092 6.18896 18.3193C6.68392 18.8762 7.38425 19.2818 8.25 19.4326V33.2505L7.62012 33.3721C7.61327 33.373 7.60643 33.3739 7.59961 33.375C6.23134 33.6792 5.25 34.9027 5.25 36.3047V42.4453C5.25 43.8478 6.23168 45.0694 7.59961 45.3735C7.60642 45.3751 7.61326 45.3766 7.62012 45.3779L12.75 46.3696V54.75C12.75 60.5403 17.4597 65.25 23.25 65.25H51C56.7903 65.25 61.5 60.5403 61.5 54.75V46.3696L66.6299 45.3779C66.6367 45.3766 66.6436 45.3751 66.6504 45.3735C68.0183 45.0695 69 43.8478 69 42.4453V36.3047C69 34.9027 68.0187 33.6792 66.6504 33.375C66.6436 33.3739 66.6367 33.373 66.6299 33.3721L66 33.2505V19.4326C66.8657 19.2818 67.5661 18.8762 68.061 18.3193C68.6923 17.6092 69 16.6771 69 15.75C69 14.8229 68.6923 13.8908 68.061 13.1807C67.4298 12.4705 66.4688 12 65.25 12C64.0312 12 63.0702 12.4705 62.439 13.1807C61.8077 13.8908 61.5 14.8229 61.5 15.75C61.5 16.6771 61.8077 17.6092 62.439 18.3193C62.9339 18.8762 63.6343 19.2818 64.5 19.4326V32.9604L61.5 32.3804V30.75C61.5 24.9597 56.7903 20.25 51 20.25H48V19.875C48 18.0156 46.4844 16.5 44.625 16.5H44.1885L42.9844 9.76465C42.9839 9.7622 42.9834 9.75976 42.9829 9.75732C42.8081 8.88306 42.0358 8.25 41.1445 8.25H33.104ZM33.104 9H41.1445C41.6827 9 42.1419 9.37707 42.2476 9.90527L43.4268 16.5H30.8232L32.001 9.90527C32.1066 9.37707 32.5658 9 33.104 9ZM9 12.75C10.0312 12.75 10.7577 13.1232 11.2515 13.6787C11.7452 14.2342 12 14.9896 12 15.75C12 16.5104 11.7452 17.2658 11.2515 17.8213C10.7577 18.3768 10.0312 18.75 9 18.75C7.96875 18.75 7.24231 18.3768 6.74854 17.8213C6.25476 17.2658 6 16.5104 6 15.75C6 14.9896 6.25476 14.2342 6.74854 13.6787C7.24231 13.1232 7.96875 12.75 9 12.75ZM65.25 12.75C66.2812 12.75 67.0077 13.1232 67.5015 13.6787C67.9952 14.2342 68.25 14.9896 68.25 15.75C68.25 16.5104 67.9952 17.2658 67.5015 17.8213C67.0077 18.3768 66.2812 18.75 65.25 18.75C64.2188 18.75 63.4923 18.3768 62.9985 17.8213C62.5048 17.2658 62.25 16.5104 62.25 15.75C62.25 14.9896 62.5048 14.2342 62.9985 13.6787C63.4923 13.1232 64.2188 12.75 65.25 12.75ZM29.625 17.25H30.3574H43.875H44.625C46.0791 17.25 47.25 18.4209 47.25 19.875V20.25H27V19.875C27 18.4209 28.1709 17.25 29.625 17.25ZM23.25 21.75H51C55.9797 21.75 60 25.7703 60 30.75V33V45.75V54.75C60 59.7297 55.9797 63.75 51 63.75H23.25C18.2703 63.75 14.25 59.7297 14.25 54.75V45.75V33V30.75C14.25 25.7703 18.2703 21.75 23.25 21.75ZM26.25 29.25C22.5265 29.25 19.5 32.2765 19.5 36C19.5 39.7235 22.5265 42.75 26.25 42.75C29.9735 42.75 33 39.7235 33 36C33 32.2765 29.9735 29.25 26.25 29.25ZM48 29.25C44.2765 29.25 41.25 32.2765 41.25 36C41.25 39.7235 44.2765 42.75 48 42.75C51.7235 42.75 54.75 39.7235 54.75 36C54.75 32.2765 51.7235 29.25 48 29.25ZM26.25 30C29.5682 30 32.25 32.6818 32.25 36C32.25 39.3182 29.5682 42 26.25 42C22.9318 42 20.25 39.3182 20.25 36C20.25 32.6818 22.9318 30 26.25 30ZM48 30C51.3182 30 54 32.6818 54 36C54 39.3182 51.3182 42 48 42C44.6818 42 42 39.3182 42 36C42 32.6818 44.6818 30 48 30ZM26.25 33C24.5955 33 23.25 34.3455 23.25 36C23.25 37.6545 24.5955 39 26.25 39C27.9045 39 29.25 37.6545 29.25 36C29.25 34.3455 27.9045 33 26.25 33ZM48 33C46.3455 33 45 34.3455 45 36C45 37.6545 46.3455 39 48 39C49.6545 39 51 37.6545 51 36C51 34.3455 49.6545 33 48 33ZM12.75 33.9097V44.8403L7.9043 43.9058L7.9248 43.9087C7.23474 43.7553 6.75 43.1534 6.75 42.4453V36.3047C6.75 35.5981 7.2343 34.9936 7.92334 34.8398H7.9248L12.75 33.9097ZM61.5 33.9097L66.3252 34.8398H66.3267C67.0157 34.9936 67.5 35.5981 67.5 36.3047V42.4453C67.5 43.1534 67.0153 43.7553 66.3252 43.9087L66.3457 43.9058L61.5 44.8403V33.9097ZM28.1191 48.7441C28.1005 48.7447 28.0819 48.7467 28.0635 48.75H23.625C23.5255 48.75 23.4302 48.7895 23.3598 48.8598C23.2895 48.9302 23.25 49.0255 23.25 49.125V53.625C23.25 56.2864 25.3945 58.4528 28.0459 58.4956C28.0921 58.5059 28.1398 58.5074 28.1865 58.5H32.5649C32.6052 58.5066 32.6463 58.5066 32.6865 58.5H37.0649C37.1052 58.5066 37.1463 58.5066 37.1865 58.5H41.5649C41.6052 58.5066 41.6463 58.5066 41.6865 58.5H46.0649C46.1131 58.508 46.1624 58.5065 46.21 58.4956C48.8587 58.4497 51 56.2845 51 53.625V49.125C51 49.0255 50.9605 48.9302 50.8902 48.8598C50.8198 48.7895 50.7245 48.75 50.625 48.75H46.1938C46.1692 48.7456 46.1442 48.7436 46.1191 48.7441C46.1005 48.7447 46.0819 48.7467 46.0635 48.75H41.6938C41.6692 48.7456 41.6442 48.7436 41.6191 48.7441C41.6005 48.7447 41.5819 48.7467 41.5635 48.75H37.1938C37.1692 48.7456 37.1442 48.7436 37.1191 48.7441C37.1005 48.7447 37.0819 48.7467 37.0635 48.75H32.6938C32.6692 48.7456 32.6442 48.7436 32.6191 48.7441C32.6005 48.7447 32.5819 48.7467 32.5635 48.75H28.1938C28.1692 48.7456 28.1442 48.7436 28.1191 48.7441ZM24 49.5H27.75V52.125C27.7493 52.1747 27.7585 52.224 27.777 52.2701C27.7955 52.3163 27.823 52.3582 27.8579 52.3936C27.8928 52.429 27.9344 52.4571 27.9803 52.4763C28.0261 52.4955 28.0753 52.5053 28.125 52.5053C28.1747 52.5053 28.2239 52.4955 28.2697 52.4763C28.3156 52.4571 28.3572 52.429 28.3921 52.3936C28.427 52.3582 28.4545 52.3163 28.473 52.2701C28.4915 52.224 28.5007 52.1747 28.5 52.125V49.5H32.25V57.75H28.5V53.625C28.5008 53.5748 28.4915 53.5249 28.4726 53.4783C28.4537 53.4318 28.4257 53.3895 28.3902 53.3539C28.3547 53.3184 28.3124 53.2904 28.2658 53.2715C28.2193 53.2527 28.1694 53.2434 28.1191 53.2441C28.0699 53.2449 28.0213 53.2554 27.9761 53.2749C27.9309 53.2945 27.89 53.3228 27.8557 53.3581C27.8214 53.3935 27.7944 53.4353 27.7763 53.481C27.7582 53.5268 27.7492 53.5758 27.75 53.625V57.731C25.6443 57.5417 24 55.7811 24 53.625V49.5ZM33 49.5H36.75V55.125C36.7493 55.1747 36.7585 55.224 36.777 55.2701C36.7955 55.3163 36.823 55.3582 36.8579 55.3936C36.8928 55.429 36.9344 55.4571 36.9803 55.4763C37.0261 55.4955 37.0753 55.5053 37.125 55.5053C37.1747 55.5053 37.2239 55.4955 37.2697 55.4763C37.3156 55.4571 37.3572 55.429 37.3921 55.3936C37.427 55.3582 37.4545 55.3163 37.473 55.2701C37.4915 55.224 37.5007 55.1747 37.5 55.125V49.5H41.25V51.375C41.2493 51.4247 41.2585 51.474 41.277 51.5201C41.2955 51.5663 41.323 51.6082 41.3579 51.6436C41.3928 51.679 41.4344 51.7071 41.4803 51.7263C41.5261 51.7455 41.5753 51.7553 41.625 51.7553C41.6747 51.7553 41.7239 51.7455 41.7697 51.7263C41.8156 51.7071 41.8572 51.679 41.8921 51.6436C41.927 51.6082 41.9545 51.5663 41.973 51.5201C41.9915 51.474 42.0007 51.4247 42 51.375V49.5H45.75V57.75H42V52.875C42.0008 52.8248 41.9915 52.7749 41.9726 52.7283C41.9537 52.6818 41.9257 52.6395 41.8902 52.6039C41.8547 52.5684 41.8124 52.5404 41.7658 52.5215C41.7192 52.5027 41.6694 52.4934 41.6191 52.4941C41.5699 52.4949 41.5213 52.5054 41.4761 52.5249C41.4309 52.5445 41.39 52.5728 41.3557 52.6081C41.3214 52.6435 41.2944 52.6853 41.2763 52.731C41.2582 52.7768 41.2492 52.8258 41.25 52.875V57.75H37.5V56.625C37.5008 56.5748 37.4915 56.5249 37.4726 56.4783C37.4537 56.4318 37.4257 56.3895 37.3902 56.3539C37.3547 56.3184 37.3124 56.2904 37.2658 56.2715C37.2193 56.2527 37.1694 56.2434 37.1191 56.2441C37.0699 56.2449 37.0213 56.2554 36.9761 56.2749C36.9309 56.2945 36.89 56.3228 36.8557 56.3581C36.8214 56.3935 36.7944 56.4353 36.7763 56.481C36.7582 56.5268 36.7492 56.5758 36.75 56.625V57.75H33V49.5ZM46.5 49.5H50.25V53.625C50.25 55.7811 48.6057 57.5417 46.5 57.731V49.5Z" fill="#03B3FF"/>
</svg>
