<svg width="32" height="32" viewBox="0 0 32 32" fill="none" xmlns="http://www.w3.org/2000/svg">
<path d="M24.96 3.84C23.815 3.84 22.67 4.27 21.8 5.14L9.10001 17.86C9.05501 17.895 9.01501 17.935 8.98001 17.98C8.96501 17.9925 8.95251 18.005 8.94001 18.02C8.91001 18.045 8.88501 18.07 8.86001 18.1C8.86001 18.1075 8.86001 18.1125 8.86001 18.12C7.74751 19.37 7.78251 21.3025 8.98001 22.5C10.2225 23.7425 12.2575 23.7425 13.5 22.5L23.16 12.82C23.35 12.6375 23.4075 12.355 23.305 12.1125C23.205 11.87 22.9625 11.715 22.7 11.72C22.5325 11.7275 22.375 11.7975 22.26 11.92L12.6 21.58C11.8475 22.3325 10.6325 22.3325 9.88001 21.58C9.15251 20.8525 9.14001 19.715 9.82001 18.96C9.84251 18.935 9.86251 18.9075 9.88001 18.88C9.89501 18.8675 9.90751 18.855 9.92001 18.84L9.98001 18.8C9.98001 18.7925 9.98001 18.7875 9.98001 18.78L22.72 6.06C23.97 4.81 25.9675 4.8075 27.22 6.06C28.47 7.31 28.47 9.31 27.22 10.56L11.46 26.32C9.71001 28.07 6.89001 28.07 5.14001 26.32C3.39001 24.57 3.39001 21.75 5.14001 20L17.74 7.4C17.93 7.245 18.0175 6.9975 17.9625 6.7575C17.9075 6.52 17.72 6.3325 17.4825 6.2775C17.2425 6.2225 16.995 6.31 16.84 6.5L4.24001 19.1C2.00251 21.3375 2.00001 25.0025 4.24001 27.24C6.48001 29.4775 10.1225 29.4775 12.36 27.24L28.14 11.48C29.88 9.74 29.88 6.88 28.14 5.14C27.27 4.27 26.105 3.84 24.96 3.84Z" fill="#007BB0"/>
</svg>
