<svg width="14" height="18" viewBox="0 0 14 18" fill="none" xmlns="http://www.w3.org/2000/svg">
<path d="M1.72003 0.359985C0.924669 0.359985 0.280029 1.00463 0.280029 1.79999V16.2C0.280029 16.9953 0.924669 17.64 1.72003 17.64H12.28C13.0754 17.64 13.72 16.9953 13.72 16.2V7.61811C13.72 7.36371 13.6188 7.11936 13.4388 6.93936L7.14065 0.641235C6.96065 0.461235 6.7163 0.359985 6.4619 0.359985H1.72003ZM1.72003 0.839985H6.52003V6.11999C6.52003 6.91535 7.16467 7.55999 7.96003 7.55999H13.24V16.2C13.24 16.7304 12.8104 17.16 12.28 17.16H1.72003C1.18963 17.16 0.760029 16.7304 0.760029 16.2V1.79999C0.760029 1.26959 1.18963 0.839985 1.72003 0.839985ZM7.00003 1.17936L12.9007 7.07999H7.96003C7.42963 7.07999 7.00003 6.65039 7.00003 6.11999V1.17936Z" fill="#007BB0"/>
</svg>
