<svg width="52" height="30" viewBox="0 0 52 30" fill="none" xmlns="http://www.w3.org/2000/svg">
<path d="M18.3243 15.7021H15.4989C14.8978 15.7021 14.3385 16.006 14.0155 16.5081L9.16676 24.0505C8.84413 24.5525 8.2845 24.8565 7.68338 24.8565H2.3012C0.906782 24.8565 0.0673408 23.3266 0.826455 22.1687L8.80131 10.0037C9.1256 9.50887 9.68058 9.21053 10.2764 9.21053H18.3243C19.2955 9.21053 20.0825 9.9899 20.0825 10.951V13.9613C20.0825 14.9227 19.2955 15.7021 18.3243 15.7021Z" fill="#444444"/>
<path d="M33.8906 15.7021H36.3585C37.0383 15.7021 37.6712 16.0458 38.0364 16.6139L42.749 23.9447C43.1142 24.5128 43.7471 24.8565 44.4273 24.8565H49.2578C50.8354 24.8565 51.7851 23.1255 50.9264 21.8159L43.2509 10.1075C42.8841 9.5483 42.2561 9.21053 41.5823 9.21053H33.8906C32.7919 9.21053 31.9014 10.0921 31.9014 11.1797V13.733C31.9014 14.8206 32.7919 15.7021 33.8906 15.7021Z" fill="#444444"/>
<path d="M11.5377 -0.000335693C10.7295 -0.000335693 10.0742 0.648265 10.0742 1.44834V4.9473C10.0742 5.74737 10.7295 6.39597 11.5377 6.39597H21.7411C22.5029 6.39597 23.1203 7.00712 23.1203 7.76119V27.0894C23.1203 27.6069 23.3918 28.0873 23.8376 28.358L25.6353 29.4499C25.8487 29.5797 26.1179 29.5797 26.3313 29.4499L28.129 28.358C28.5745 28.0873 28.846 27.6069 28.846 27.0894V7.76119C28.846 7.00712 29.4637 6.39597 30.2251 6.39597H40.5417C41.3503 6.39597 42.0055 5.74737 42.0055 4.9473V1.44834C42.0055 0.648265 41.3503 -0.000335693 40.5417 -0.000335693" fill="#444444"/>
</svg>
