<svg width="96" height="49" viewBox="0 0 96 49" fill="none" xmlns="http://www.w3.org/2000/svg">
<g clip-path="url(#clip0_101_20096)">
<path d="M39.3243 15.7021H36.4989C35.8978 15.7021 35.3385 16.0061 35.0155 16.5081L30.1668 24.0505C29.8441 24.5525 29.2845 24.8565 28.6834 24.8565H23.3012C21.9068 24.8565 21.0673 23.3266 21.8265 22.1688L29.8013 10.0037C30.1256 9.50888 30.6806 9.21054 31.2764 9.21054H39.3243C40.2955 9.21054 41.0825 9.98991 41.0825 10.951V13.9614C41.0825 14.9228 40.2955 15.7021 39.3243 15.7021Z" fill="#444444"/>
<path d="M54.8906 15.7021H57.3585C58.0383 15.7021 58.6712 16.0458 59.0364 16.6139L63.749 23.9447C64.1142 24.5128 64.7471 24.8565 65.4273 24.8565H70.2578C71.8354 24.8565 72.7851 23.1256 71.9264 21.8159L64.2509 10.1075C63.8841 9.54831 63.2561 9.21054 62.5823 9.21054H54.8906C53.7919 9.21054 52.9014 10.0921 52.9014 11.1797V13.733C52.9014 14.8206 53.7919 15.7021 54.8906 15.7021Z" fill="#444444"/>
<path d="M32.5377 -0.000335693C31.7295 -0.000335693 31.0742 0.648265 31.0742 1.44834V4.9473C31.0742 5.74737 31.7295 6.39597 32.5377 6.39597H42.7411C43.5029 6.39597 44.1203 7.00712 44.1203 7.76119V27.0894C44.1203 27.6069 44.3918 28.0873 44.8376 28.358L46.6353 29.4499C46.8487 29.5797 47.1179 29.5797 47.3313 29.4499L49.129 28.358C49.5745 28.0873 49.846 27.6069 49.846 27.0894V7.76119C49.846 7.00712 50.4637 6.39597 51.2251 6.39597H61.5417C62.3503 6.39597 63.0055 5.74737 63.0055 4.9473V1.44834C63.0055 0.648265 62.3503 -0.000335693 61.5417 -0.000335693" fill="#03B3FF"/>
<path d="M3.88619 37.2702L0.438805 37.2706C0.123144 37.2706 -0.0643946 37.0172 0.0202465 36.7048L0.509837 34.897C0.593815 34.5865 0.915451 34.3338 1.22978 34.3315L13.2053 34.2418C13.5233 34.2392 13.7129 34.4931 13.6279 34.8073L13.0945 36.7784C13.0098 37.0908 12.6855 37.3442 12.3699 37.3442H8.7572C8.44154 37.3442 8.11725 37.5975 8.03261 37.91L5.24709 48.2005C5.16244 48.5126 4.83815 48.766 4.52249 48.766H1.91056C1.5949 48.766 1.40737 48.5126 1.49234 48.2002L4.30442 37.8364C4.38906 37.5239 4.20185 37.2702 3.88619 37.2702Z" fill="#03B3FF"/>
<mask id="mask0_101_20096" style="mask-type:luminance" maskUnits="userSpaceOnUse" x="9" y="38" width="12" height="11">
<path d="M9.60195 38.0197H20.5635V48.9999H9.60195V38.0197Z" fill="white"/>
</mask>
<g mask="url(#mask0_101_20096)">
<path d="M17.0318 42.1298L17.0663 42.0023C17.2216 41.428 17.2001 40.556 16.0397 40.556C15.0728 40.556 14.3126 41.3005 13.9807 42.1298H17.0318ZM9.89172 43.6613C10.6751 40.7685 13.0935 38.025 16.9183 38.025C20.4616 38.025 21.1576 40.7574 19.9351 43.8831C19.7801 44.279 19.3563 44.5757 18.9533 44.5757H13.2757C13.0317 45.8736 14.1042 46.2774 15.3934 46.2774C16.1223 46.2774 16.909 46.1821 17.6624 46.0208C18.15 45.9166 18.5128 46.233 18.4458 46.6956L18.3021 47.6919C18.2456 48.0832 17.8971 48.4482 17.4849 48.5547C16.3407 48.8491 15.0996 48.9789 14.0391 48.9789C10.4938 48.9789 8.95934 47.107 9.89172 43.6613Z" fill="#03B3FF"/>
</g>
<path d="M24.8377 33.2939L27.7377 33.2278C27.9734 33.2226 28.1158 33.4089 28.0531 33.6412L25.9795 41.3008C25.8806 41.6662 26.2739 41.8522 26.6078 41.5975C26.644 41.5696 26.6772 41.5381 26.7064 41.5032L29.2477 38.4699C29.3565 38.3394 29.5178 38.2589 29.6689 38.2589H32.9822C33.336 38.2589 33.419 38.667 33.1199 38.9364L29.2453 42.4265C29.0903 42.5662 29.0249 42.7653 29.0847 42.9174L31.1217 48.1263C31.2289 48.401 30.9312 48.766 30.5989 48.766H27.0095C26.8518 48.766 26.7313 48.6779 26.6981 48.5383L25.8882 45.1211C25.8292 44.8721 25.5098 44.8159 25.2546 45.0101L25.0631 45.156C24.9605 45.2338 24.8858 45.341 24.8556 45.453L24.0706 48.3527C24.0089 48.581 23.7719 48.766 23.5412 48.766H20.6594C20.4287 48.766 20.2916 48.581 20.3537 48.3527L24.3179 33.7069C24.3786 33.4825 24.6093 33.2988 24.8377 33.2939Z" fill="#03B3FF"/>
<path d="M46.058 48.8573C45.7792 48.8573 45.5761 48.6615 45.5754 48.3914L45.4244 42.3864L41.8306 48.4831C41.7052 48.7059 41.4569 48.8573 41.2143 48.8573H39.6728C39.3936 48.8573 39.1908 48.6612 39.1905 48.3914L39.0428 42.4107L35.5622 48.4765C35.4377 48.7032 35.1878 48.8573 34.9418 48.8573H32.8925C32.7113 48.8573 32.5593 48.7758 32.4746 48.6332C32.3824 48.4778 32.389 48.2754 32.4922 48.0918L37.8694 38.5448C37.9966 38.3194 38.2452 38.1676 38.4878 38.1676H41.3268C41.4642 38.1676 41.5887 38.2165 41.6773 38.3052C41.7639 38.392 41.8107 38.5109 41.8091 38.6407L41.7792 41.2331L41.7234 44.4906L43.5268 41.152L44.9448 38.5533C45.0706 38.3227 45.3208 38.1676 45.5678 38.1676H48.3563C48.4934 38.1676 48.6179 38.2165 48.7065 38.3046C48.7928 38.391 48.8399 38.5096 48.8389 38.6391L48.7599 48.1861C48.7573 48.5311 48.4167 48.8573 48.0592 48.8573" fill="#444444"/>
<path d="M38.4878 38.3358H41.3268C41.5127 38.3358 41.6411 38.4606 41.6391 38.6387L41.6092 41.2312L41.5429 45.0965H41.589L43.6765 41.2312L45.0941 38.6331C45.1901 38.4577 45.3839 38.3358 45.5678 38.3358H48.3563C48.5419 38.3358 48.6703 38.46 48.669 38.6377L48.59 48.1847C48.588 48.44 48.3258 48.6891 48.0592 48.6891H46.0581C45.8738 48.6891 45.746 48.5669 45.7454 48.3911L45.5794 41.7897L41.6839 48.3983C41.5867 48.5705 41.3955 48.6891 41.2143 48.6891H39.6728C39.4886 48.6891 39.3604 48.5669 39.3601 48.3911L39.1978 41.7999L35.4145 48.3934C35.3183 48.5682 35.1251 48.6891 34.9418 48.6891H32.8925C32.621 48.6891 32.4956 48.4315 32.6406 48.1739L38.0178 38.6269C38.1151 38.4544 38.3066 38.3358 38.4878 38.3358Z" fill="#444444"/>
<mask id="mask1_101_20096" style="mask-type:luminance" maskUnits="userSpaceOnUse" x="49" y="38" width="13" height="11">
<path d="M49.9642 38.0197H61.7754V48.9999H49.9642V38.0197Z" fill="white"/>
</mask>
<g mask="url(#mask1_101_20096)">
<path d="M57.5825 43.5124C58.1986 41.2364 57.5377 40.6624 56.6136 40.6624C55.6899 40.6624 54.7177 41.2364 54.1016 43.5124C53.4859 45.7881 54.1524 46.3411 55.0765 46.3411C56.0002 46.3411 56.9665 45.7881 57.5825 43.5124ZM50.2443 43.5552C51.3669 39.4073 54.5773 38.025 57.3276 38.025C60.0779 38.025 62.5285 39.45 61.4173 43.5552C60.3694 47.4261 57.1072 48.9999 54.3569 48.9999C51.6065 48.9999 49.1791 47.4898 50.2443 43.5552Z" fill="#444444"/>
</g>
<path d="M63.5004 41.8108C63.7938 40.7258 64.0498 39.7273 64.2642 38.8267C64.3392 38.5132 64.6585 38.252 64.9778 38.2431L67.0922 38.1866C67.3733 38.1794 67.5645 38.3723 67.5449 38.643L67.4855 39.4713H67.5715C68.4491 38.7692 69.7035 38.025 71.2718 38.025C74.0225 38.025 74.4337 39.9179 73.7257 42.534L72.1919 48.2002C72.1073 48.513 71.783 48.766 71.4673 48.766H68.8929C68.5772 48.766 68.39 48.513 68.4747 48.2002L69.9451 42.7679C70.2561 41.6195 70.1549 40.9601 69.2955 40.9601C68.4577 40.9601 67.7408 41.3856 67.1483 42.0661L65.488 48.2002C65.4034 48.513 65.0791 48.766 64.7634 48.766H62.189C61.8733 48.766 61.6861 48.513 61.7708 48.2002" fill="#444444"/>
<path d="M78.7186 33.2939L81.6183 33.2278C81.8543 33.2226 81.9967 33.4089 81.9339 33.6412L79.8604 41.3008C79.7615 41.6662 80.1551 41.8522 80.4887 41.5975C80.5249 41.5696 80.5581 41.5381 80.5873 41.5032L83.1282 38.4699C83.2374 38.3394 83.3987 38.2589 83.5497 38.2589H86.8627C87.2172 38.2589 87.2995 38.667 87.0004 38.9364L83.1262 42.4265C82.9712 42.5662 82.9061 42.7653 82.9652 42.9174L85.0019 48.1263C85.1098 48.401 84.8117 48.766 84.4798 48.766H80.8904C80.7327 48.766 80.6122 48.6779 80.579 48.5383L79.7691 45.1211C79.71 44.8721 79.3904 44.8159 79.1355 45.0101L78.9439 45.156C78.8417 45.2338 78.7667 45.341 78.7365 45.453L77.9515 48.3527C77.8897 48.581 77.6527 48.766 77.4221 48.766H74.5399C74.3096 48.766 74.1725 48.581 74.2342 48.3527L78.1988 33.7069C78.2595 33.4825 78.4902 33.2988 78.7186 33.2939Z" fill="#444444"/>
<mask id="mask2_101_20096" style="mask-type:luminance" maskUnits="userSpaceOnUse" x="85" y="38" width="11" height="11">
<path d="M85.6528 38.0197H96V48.9999H85.6528V38.0197Z" fill="white"/>
</mask>
<g mask="url(#mask2_101_20096)">
<path d="M85.7793 47.8844L86.4312 46.3776C86.5799 46.0323 86.9922 45.8203 87.2972 45.9304C88.0228 46.1923 89.0763 46.4262 89.7963 46.4262C90.6772 46.4262 91.047 46.1712 91.1505 45.7885C91.4844 44.5547 86.7269 44.7462 87.6022 41.5131C88.2243 39.216 90.5013 38.025 93.0369 38.025C94.0585 38.025 95.0185 38.1965 95.7221 38.4337C95.9711 38.5178 96.068 38.7843 95.9482 39.0626L95.3305 40.5017C95.1851 40.8415 94.7815 41.056 94.4764 40.9548C93.8843 40.758 93.1016 40.5773 92.4752 40.5773C91.895 40.5773 91.3875 40.7048 91.267 41.1513C90.967 42.2576 95.7231 42.1512 94.8309 45.4481C94.1976 47.7875 91.9843 48.9786 89.1052 48.9786C87.9999 48.9786 86.8066 48.7972 85.9937 48.511C85.7504 48.4252 85.6605 48.1584 85.7793 47.8844Z" fill="#444444"/>
</g>
</g>
<defs>
<clipPath id="clip0_101_20096">
<rect width="96" height="49" fill="white"/>
</clipPath>
</defs>
</svg>
