<svg width="247" height="29" viewBox="0 0 247 29" fill="none" xmlns="http://www.w3.org/2000/svg">
<path d="M0.335 9.04V7.6H0.815V8.56H1.535V6.64H0.335V4.96H1.535V0.159998H3.215V2.8H2.735V0.639999H2.015V5.44H0.815V6.16H2.015V9.04H0.335ZM5.135 3.04V1.36H6.575V1.84H5.615V2.56H8.735V1.84H7.535V0.639999H4.415V1.6H3.935V0.159998H8.015V1.36H9.215V3.04H5.135ZM17.135 6.64V5.44H15.935V3.76H17.135V3.04H15.935V1.36H17.135V0.399998H17.615V1.84H16.415V2.56H17.615V4.24H16.415V4.96H17.615V6.16H18.335V2.56H20.015V3.76H20.735V0.639999H18.815V1.36H19.775V1.84H18.335V0.159998H21.215V4.24H19.535V3.04H18.815V6.64H17.135ZM22.175 0.639999V0.159998H23.375V0.639999H22.175ZM22.175 4.24V3.76H24.335V1.84H22.415V2.56H23.375V3.04H21.935V1.36H24.815V4.24H22.175ZM0.335 4V1.6H0.815V4H0.335ZM3.935 5.44V2.8H4.415V4.96H5.375V5.44H3.935ZM5.375 4.24V3.76H7.775V4.24H5.375ZM3.935 9.04V7.84H2.735V6.16H5.615V7.36H6.335V4.96H8.735V3.76H10.415V4.96H11.375V5.44H9.935V4.24H9.215V5.44H6.815V7.84H5.135V6.64H3.215V7.36H4.415V8.56H6.575V9.04H3.935ZM2.735 5.2V4H3.215V5.2H2.735ZM20.735 6.64V5.44H20.015V6.4H19.535V4.96H21.215V6.16H21.935V4.96H23.615V6.16H24.335V5.2H24.815V6.64H23.135V5.44H22.415V6.64H20.735ZM5.135 25.84V24.64H3.935V22.24H2.975V21.76H4.415V24.16H5.615V25.36H6.335V24.16H8.015V25.36H8.735V22.24H7.535V20.56H8.735V19.84H7.535V18.16H8.735V12.16H9.935V9.04H7.535V6.16H11.615V7.84H8.975V7.36H11.135V6.64H8.015V8.56H10.415V12.64H9.215V18.64H8.015V19.36H9.215V21.04H8.015V21.76H9.215V25.84H7.535V24.64H6.815V25.84H5.135ZM15.935 10.24V6.4H16.415V9.76H17.375V10.24H15.935ZM21.935 22.24V20.56H23.375V21.04H22.415V21.76H24.335V16.24H23.615V17.44H21.935V15.04H20.015V15.76H21.215V18.16H23.615V19.84H19.535V17.44H18.335V15.04H17.135V12.64H15.935V10.96H20.015V12.64H18.815V13.36H23.615V14.56H24.335V12.64H23.135V10.96H24.335V7.84H21.215V8.56H22.415V10.24H18.335V8.56H19.775V9.04H18.815V9.76H21.935V9.04H20.735V7.36H24.815V11.44H23.615V12.16H24.815V15.04H23.135V13.84H18.335V12.16H19.535V11.44H16.415V12.16H17.615V14.56H18.815V16.96H20.015V19.36H23.135V18.64H20.735V16.24H19.535V14.56H22.415V16.96H23.135V15.76H24.815V22.24H21.935ZM17.135 8.8V7.36H19.775V7.84H17.615V8.8H17.135ZM10.175 18.64V18.16H12.335V17.44H9.935V15.76H11.135V14.56H12.335V13.84H11.135V12.16H12.335V10.96H13.535V9.04H12.815V10.24H11.135V8.8H11.615V9.76H12.335V8.56H14.015V11.44H12.815V12.64H11.615V13.36H12.815V15.04H11.615V16.24H10.415V16.96H12.815V18.64H10.175ZM23.135 10V8.8H23.615V10H23.135ZM2.735 10.24V8.8H3.215V9.76H5.375V10.24H2.735ZM7.535 11.44V10.24H6.815V11.2H6.335V9.76H8.015V10.96H8.735V10H9.215V11.44H7.535ZM0.335 15.04V12.16H3.935V11.44H0.335V9.76H1.775V10.24H0.815V10.96H4.415V12.64H0.815V14.56H2.735V13.84H1.775V13.36H3.215V15.04H0.335ZM20.735 12.64V10.96H22.175V11.44H21.215V12.16H22.175V12.64H20.735ZM13.775 12.64V12.16H14.735V11.2H15.215V12.64H13.775ZM7.535 13.6V12.64H5.135V11.2H5.615V12.16H8.015V13.6H7.535ZM5.135 17.44V13.36H6.575V13.84H5.615V16.96H7.535V15.04H6.815V16H6.335V14.56H8.015V17.44H5.135ZM12.575 16.24V15.76H15.935V13.84H14.015V14.56H14.975V15.04H13.535V13.36H16.415V16.24H12.575ZM3.935 14.8V13.6H4.415V14.8H3.935ZM9.935 14.8V13.6H10.415V14.8H9.935ZM5.135 23.44V21.76H6.335V19.84H4.415V21.04H2.735V19.84H1.535V18.64H0.335V16.96H1.535V16.24H0.575V15.76H2.015V17.44H0.815V18.16H2.015V19.36H3.215V20.56H3.935V19.36H6.815V22.24H5.615V22.96H7.775V23.44H5.135ZM3.935 18.64V17.44H2.735V16H3.215V16.96H4.415V18.16H6.575V18.64H3.935ZM16.175 17.44V16.96H17.135V16H17.615V17.44H16.175ZM13.535 18.4V17.2H14.015V18.4H13.535ZM15.935 21.04V19.36H18.335V18.64H14.735V17.2H15.215V18.16H18.815V19.84H16.415V20.56H20.975V21.04H15.935ZM17.135 28.24V27.04H16.415V28H15.935V26.56H17.615V27.76H19.535V27.04H18.335V24.16H20.015V25.36H21.935V24.64H20.735V22.24H16.415V23.44H14.735V22.24H13.535V19.84H11.615V20.56H12.815V22H12.335V21.04H11.135V19.36H14.015V21.76H15.215V22.96H15.935V21.76H21.215V24.16H22.415V25.84H19.535V24.64H18.815V26.56H20.015V28.24H17.135ZM14.735 20.8V19.6H15.215V20.8H14.735ZM0.575 22.24V21.76H1.535V21.04H0.335V19.6H0.815V20.56H2.015V22.24H0.575ZM1.535 24.64V23.44H0.815V24.4H0.335V22.96H2.015V24.16H2.735V23.2H3.215V24.64H1.535ZM15.935 25.84V24.64H15.215V25.6H14.735V24.16H16.415V25.36H17.135V22.96H19.775V23.44H17.615V25.84H15.935ZM22.175 23.44V22.96H24.575V23.44H22.175ZM13.535 24.4V23.2H14.015V24.4H13.535ZM20.735 28.24V26.56H22.175V27.04H21.215V27.76H23.135V24.16H24.815V28H24.335V24.64H23.615V28.24H20.735ZM2.735 28.24V25.84H2.015V27.04H0.335V25.6H0.815V26.56H1.535V25.36H3.215V27.76H3.935V26.56H6.815V27.76H7.535V26.56H8.975V27.04H8.015V28.24H6.335V27.04H4.415V28.24H2.735ZM0.575 28.24V27.76H1.775V28.24H0.575ZM49.2644 20V16.16H50.4644V14.24H48.5444V16.64H46.8644V12.56H48.0644V11.84H42.0644V8.96H44.4644V8.24H41.3444V11.84H39.6644V8.24H37.7444V13.04H33.6644V11.36H34.8644V10.16H36.5444V11.6H36.0644V10.64H35.3444V11.84H34.1444V12.56H37.2644V7.76H40.1444V11.36H40.8644V7.76H44.9444V9.44H42.5444V11.36H48.5444V13.04H47.3444V16.16H48.0644V13.76H50.9444V16.64H49.7444V20H49.2644ZM35.1044 9.44V8.96H36.0644V8.24H35.1044V7.76H36.5444V9.44H35.1044ZM45.9044 9.44V8.96H47.1044V9.44H45.9044ZM30.0644 12.8V11.36H31.2644V10.16H33.6644V9.2H34.1444V10.64H31.7444V11.84H30.5444V12.8H30.0644ZM38.4644 10.4V9.2H38.9444V10.4H38.4644ZM43.5044 10.64V10.16H48.3044V10.64H43.5044ZM43.2644 16.64V15.44H40.8644V13.76H42.0644V13.04H38.4644V11.6H38.9444V12.56H42.5444V14.24H41.3444V14.96H43.7444V16.16H44.4644V13.76H45.6644V13.04H43.7444V14H43.2644V12.56H46.1444V14.24H44.9444V16.64H43.2644ZM49.2644 12.8V11.6H49.7444V12.8H49.2644ZM38.4644 20.24V19.04H37.2644V17.84H36.0644V14.24H32.4644V13.04H31.7444V14.24H29.1044V13.76H31.2644V12.56H32.9444V13.76H36.5444V17.36H37.7444V18.56H38.9444V19.76H39.6644V18.8H40.1444V20.24H38.4644ZM37.2644 16.64V14.96H38.4644V14.24H37.5044V13.76H38.9444V15.44H37.7444V16.16H38.7044V16.64H37.2644ZM34.8644 28.64V27.44H32.4644V26.24H31.2644V23.36H32.4644V22.64H31.2644V19.04H30.5444V20.24H28.8644V14.96H30.5444V17.36H33.6644V14.96H35.3444V19.04H32.9444V20.96H33.6644V20H34.1444V21.44H32.4644V18.56H34.8644V15.44H34.1444V17.84H30.0644V15.44H29.3444V19.76H30.0644V18.56H31.7444V22.16H32.9444V23.84H31.7444V25.76H32.9444V26.96H35.3444V28.16H36.0644V23.36H38.4644V22.64H34.1444V24.56H35.3444V26.24H33.9044V25.76H34.8644V25.04H33.6644V22.16H38.9444V23.84H36.5444V28.64H34.8644ZM31.2644 16.64V14.96H32.7044V15.44H31.7444V16.16H32.7044V16.64H31.2644ZM44.4644 20.24V17.36H45.6644V15.2H46.1444V17.84H44.9444V19.76H48.0644V17.84H47.3444V18.8H46.8644V17.36H48.5444V20.24H44.4644ZM38.7044 17.84V17.36H39.6644V16.16H42.5444V17.6H42.0644V16.64H40.1444V17.84H38.7044ZM50.4644 20V17.6H50.9444V20H50.4644ZM41.1044 20.24V19.76H42.0644V19.04H40.8644V17.6H41.3444V18.56H42.5444V20.24H41.1044ZM43.2644 20V17.6H43.7444V20H43.2644ZM34.8644 21.44V19.76H37.7444V21.2H37.2644V20.24H35.3444V20.96H36.3044V21.44H34.8644ZM28.8644 22.4V20.96H30.5444V22.4H30.0644V21.44H29.3444V22.4H28.8644ZM37.2644 28.64V27.2H37.7444V28.16H39.6644V27.44H38.4644V26.24H37.2644V24.56H40.1444V25.76H41.3444V28.16H44.4644V27.44H42.0644V25.76H43.2644V22.16H44.9444V25.76H46.1444V26.96H46.8644V24.56H49.5044V25.04H47.3444V27.44H45.6644V26.24H44.4644V22.64H43.7444V26.24H42.5444V26.96H44.9444V28.64H40.8644V26.24H39.6644V25.04H37.7444V25.76H38.9444V26.96H40.1444V28.64H37.2644ZM45.6644 24.8V22.16H47.3444V23.36H50.4644V22.4H50.9444V23.84H46.8644V22.64H46.1444V24.8H45.6644ZM48.3044 22.64V22.16H49.5044V22.64H48.3044ZM39.9044 23.84V23.36H42.0644V22.4H42.5444V23.84H39.9044ZM30.0644 24.8V23.6H30.5444V24.8H30.0644ZM41.1044 25.04V24.56H42.3044V25.04H41.1044ZM54.2663 9.44V8H54.7463V8.96H55.4663V7.76H58.1063V8.24H55.9463V9.44H54.2663ZM61.7063 10.64V10.16H62.6663V9.44H60.2663V8.24H59.3063V7.76H60.7463V8.96H63.1463V10.64H61.7063ZM61.7063 8.24V7.76H62.9062V8.24H61.7063ZM73.4662 11.84V8.24H69.1463V10.64H67.4663V9.2H67.9463V10.16H68.6663V7.76H73.9463V11.36H74.9063V11.84H73.4662ZM77.0663 15.2V11.84H75.8663V9.44H74.6663V7.76H77.5463V10.4H77.0663V8.24H75.1463V8.96H76.3463V11.36H77.5463V15.2H77.0663ZM56.6663 10.64V8.96H59.5463V10.16H60.5063V10.64H59.0663V9.44H57.1463V10.16H58.1063V10.64H56.6663ZM67.4663 17.84V14.96H69.1463V16.4H68.6663V15.44H67.9463V17.36H69.8663V13.04H68.6663V11.36H69.8663V8.96H71.5463V11.36H72.7463V12.56H73.9463V14.24H72.7463V15.2H72.2663V13.76H73.4662V13.04H72.2663V11.84H71.0663V9.44H70.3463V11.84H69.1463V12.56H70.3463V17.84H67.4663ZM72.2663 10.4V9.2H72.7463V10.4H72.2663ZM54.2663 13.04V11.36H55.4663V10.64H54.5063V10.16H55.9463V11.84H54.7463V12.56H56.6663V11.6H57.1463V13.04H54.2663ZM54.2663 23.84V22.16H55.4663V21.44H54.2663V17.36H55.4663V16.16H57.1463V17.36H57.8663V15.44H56.6663V13.76H57.8663V11.36H63.1463V14.24H61.4663V12.8H61.9463V13.76H62.6663V11.84H58.3463V14.24H57.1463V14.96H58.3463V17.84H56.6663V16.64H55.9463V17.84H54.7463V20.96H55.9463V22.64H54.7463V23.36H57.8663V22.64H56.6663V18.56H59.5463V20.96H61.9463V22.64H60.7463V23.84H59.0663V22.4H59.5463V23.36H60.2663V22.16H61.4663V21.44H59.0663V19.04H57.1463V22.16H58.3463V23.84H54.2663ZM67.4663 14.24V11.6H67.9463V13.76H68.9063V14.24H67.4663ZM73.7063 15.44V14.96H75.8663V13.04H75.1463V14H74.6663V12.56H76.3463V15.44H73.7063ZM59.3063 15.44V14.96H60.2663V14.24H59.0663V12.56H60.5063V13.04H59.5463V13.76H60.7463V15.44H59.3063ZM77.0663 20V17.84H75.8663V16.64H75.1463V17.84H73.4662V16.64H71.0663V12.8H71.5463V16.16H73.9463V17.36H74.6663V16.16H76.3463V17.36H77.5463V20H77.0663ZM54.2663 16.4V13.76H55.9463V15.2H55.4663V14.24H54.7463V16.4H54.2663ZM62.6663 17.6V16.64H61.4663V14.96H62.9062V15.44H61.9463V16.16H63.1463V17.6H62.6663ZM60.2663 17.84V16.64H59.5463V17.6H59.0663V16.16H60.7463V17.36H61.7063V17.84H60.2663ZM71.0663 20V17.6H71.5463V20H71.0663ZM72.2663 22.64V21.44H69.8663V19.04H67.9463V19.76H68.9063V20.24H67.4663V18.56H70.3463V20.96H72.7463V22.16H74.6663V19.76H75.8663V19.04H72.7463V19.76H73.9463V21.2H73.4662V20.24H72.2663V18.56H76.3463V20.24H75.1463V22.64H72.2663ZM55.4663 20V18.8H55.9463V20H55.4663ZM60.2663 20V18.8H60.7463V20H60.2663ZM61.4663 20.24V18.8H61.9463V19.76H62.6663V18.8H63.1463V20.24H61.4663ZM57.8663 21.2V20H58.3463V21.2H57.8663ZM75.8663 26.24V23.36H77.0663V22.64H75.8663V20.96H77.3063V21.44H76.3463V22.16H77.5463V23.84H76.3463V25.76H77.0663V24.8H77.5463V26.24H75.8663ZM62.9062 22.64V22.16H63.8663V21.44H62.9062V20.96H64.3463V22.64H62.9062ZM67.4663 24.8V20.96H69.1463V22.16H71.3063V22.64H68.6663V21.44H67.9463V24.8H67.4663ZM65.3063 22.64V22.16H66.5063V22.64H65.3063ZM57.8663 28.64V24.56H61.4663V23.36H64.3463V25.04H62.9062V24.56H63.8663V23.84H61.9463V25.04H58.3463V28.16H59.0663V25.76H64.3463V28.16H65.3063V28.64H63.8663V26.24H59.5463V28.64H57.8663ZM65.0663 27.44V24.8H65.5463V26.96H67.4663V26.24H66.2663V23.84H65.3063V23.36H66.7463V25.76H67.9463V27.44H65.0663ZM68.6663 28.64V26.96H71.0663V25.76H72.2663V25.04H71.0663V23.84H69.1463V24.56H70.3463V26H69.8663V25.04H68.6663V23.36H71.5463V24.56H72.7463V26.24H71.5463V27.44H69.1463V28.16H72.2663V26.96H73.4662V25.76H75.1463V26.96H76.3463V28.64H73.7063V28.16H75.8663V27.44H74.6663V26.24H73.9463V27.44H72.7463V28.64H68.6663ZM73.7063 25.04V24.56H74.6663V23.84H72.5063V23.36H75.1463V25.04H73.7063ZM55.4663 26V24.56H56.9063V25.04H55.9463V26H55.4663ZM56.6663 27.2V26H57.1463V27.2H56.6663ZM60.2663 28.64V27.2H60.7463V28.16H61.4663V26.96H63.1463V28.4H62.6663V27.44H61.9463V28.64H60.2663ZM77.0663 28.4V27.2H77.5463V28.4H77.0663ZM82.6194 17.2V16.24H81.4194V14.56H82.6194V12.16H89.0994V13.84H86.6994V14.56H89.0994V15.76H89.8194V12.16H91.0194V10.96H95.8194V9.76H98.2194V9.04H97.0194V7.84H96.2994V9.04H92.6994V9.76H94.8594V10.24H92.2194V8.56H95.8194V7.36H97.4994V8.56H98.6994V10.24H96.2994V11.44H91.4994V12.64H90.2994V16.24H88.6194V15.04H86.2194V13.36H88.6194V12.64H83.0994V15.04H81.8994V15.76H83.0994V17.2H82.6194ZM81.4194 13.6V10.96H82.6194V10.24H81.4194V8.56H82.6194V7.36H84.0594V7.84H83.0994V9.04H81.8994V9.76H83.0994V11.44H81.8994V13.6H81.4194ZM87.4194 10V9.04H86.2194V7.36H87.6594V7.84H86.6994V8.56H87.8994V10H87.4194ZM84.0594 9.04V8.56H85.0194V7.6H85.4994V9.04H84.0594ZM86.2194 11.44V10.24H85.2594V9.76H86.6994V10.96H89.8194V10.24H88.6194V8.56H90.0594V9.04H89.0994V9.76H90.2994V11.44H86.2194ZM99.4194 11.2V8.8H99.8994V11.2H99.4194ZM83.8194 11.44V10H84.2994V10.96H85.2594V11.44H83.8194ZM98.4594 13.84V13.36H99.4194V12.64H98.2194V11.44H97.2594V10.96H98.6994V12.16H99.8994V13.84H98.4594ZM85.0194 22.24V21.04H83.8194V19.36H86.2194V15.76H87.8994V16.96H89.0994V18.64H87.6594V18.16H88.6194V17.44H87.4194V16.24H86.6994V19.84H84.2994V20.56H85.4994V21.76H86.2194V20.56H87.4194V19.36H89.0994V20.56H89.8194V16.96H91.0194V14.56H92.2194V12.16H93.8994V13.36H96.2994V15.04H93.8994V16.24H92.4594V15.76H93.4194V14.56H95.8194V13.84H93.4194V12.64H92.6994V15.04H91.4994V17.44H90.2994V21.04H88.6194V19.84H87.8994V21.04H86.6994V22.24H85.0194ZM97.0194 15.04V12.64H94.8594V12.16H97.4994V14.56H99.6594V15.04H97.0194ZM83.8194 17.44V13.6H84.2994V16.96H85.0194V13.6H85.4994V17.44H83.8194ZM94.8594 16.24V15.76H98.4594V16.24H94.8594ZM81.4194 18.64V17.2H81.8994V18.16H85.2594V18.64H81.4194ZM81.4194 25.6V19.36H83.0994V20.8H82.6194V19.84H81.8994V25.6H81.4194ZM82.8594 27.04V26.56H83.8194V25.36H85.0194V24.64H82.6194V21.76H84.2994V22.96H87.8994V24.64H86.6994V25.6H86.2194V24.16H87.4194V23.44H83.8194V22.24H83.0994V24.16H85.4994V25.84H84.2994V27.04H82.8594ZM88.8594 23.44V22.96H89.8194V22.24H88.8594V21.76H90.2994V23.44H88.8594ZM84.0594 28.24V27.76H85.0194V26.56H87.4194V25.36H88.6194V24.16H90.2994V27.04H89.0994V28.24H86.4594V27.76H88.6194V26.56H89.8194V24.64H89.0994V25.84H87.8994V27.04H85.4994V28.24H84.0594ZM81.4194 28.24V26.8H81.8994V27.76H82.8594V28.24H81.4194ZM105.451 14.24V12.56H106.891V13.04H105.931V13.76H107.851V11.84H106.651V10.16H111.451V8.96H113.131V11.36H113.851V8.24H109.531V9.44H106.651V7.76H108.091V8.24H107.131V8.96H109.051V7.76H114.331V11.84H112.651V9.44H111.931V10.64H107.131V11.36H108.331V14.24H105.451ZM115.051 9.2V7.76H117.691V8.24H115.531V9.2H115.051ZM101.851 14V12.56H103.051V10.16H105.451V9.44H104.491V8.96H105.931V10.64H103.531V13.04H102.331V14H101.851ZM115.051 12.8V10.16H116.251V8.96H117.931V10.16H118.651V8.96H120.091V9.44H119.131V10.64H117.451V9.44H116.731V10.64H115.531V12.8H115.051ZM120.091 10.64V10.16H121.291V10.64H120.091ZM104.251 14V11.36H105.691V11.84H104.731V14H104.251ZM110.251 12.8V11.36H111.691V11.84H110.731V12.8H110.251ZM118.651 16.64V14.24H117.931V15.44H114.091V14.96H117.451V13.76H119.131V16.16H119.851V12.56H121.051V11.84H116.731V12.56H118.891V13.04H116.251V11.36H121.531V13.04H120.331V16.64H118.651ZM110.251 20.24V18.56H112.651V15.44H111.931V16.64H110.251V14.24H109.051V11.6H109.531V13.76H110.731V16.16H111.451V14.96H113.131V19.04H110.731V19.76H111.691V20.24H110.251ZM113.851 14.24V13.04H111.691V12.56H114.331V13.76H116.491V14.24H113.851ZM113.851 28.64V23.36H117.451V22.64H116.251V20.96H117.451V20.24H115.531V22.64H113.131V23.84H111.931V26H111.451V23.36H112.651V22.16H115.051V19.76H117.931V21.44H116.731V22.16H117.931V23.84H114.331V28.16H116.251V26.24H115.051V24.56H118.651V23.36H120.331V25.76H122.251V22.64H121.051V21.44H119.851V20.24H118.651V18.56H121.531V19.76H122.251V17.84H121.051V13.76H122.731V16.4H122.251V14.24H121.531V17.36H122.731V20.24H121.051V19.04H119.131V19.76H120.331V20.96H121.531V22.16H122.731V26.24H119.851V23.84H119.131V25.04H115.531V25.76H116.731V28.64H113.851ZM107.851 22.64V21.44H104.251V19.76H107.851V19.04H105.451V16.16H108.331V17.84H106.891V17.36H107.851V16.64H105.931V18.56H108.331V20.24H104.731V20.96H108.331V22.16H109.051V16.4H109.531V22.64H107.851ZM113.851 19.04V16.16H115.531V17.36H116.251V16.16H117.691V16.64H116.731V17.84H115.051V16.64H114.331V18.56H116.491V19.04H113.851ZM110.491 17.84V17.36H111.691V17.84H110.491ZM117.691 17.84V17.36H120.091V17.84H117.691ZM103.051 19.04V17.6H103.531V18.56H104.251V17.6H104.731V19.04H103.051ZM100.651 25.04V20H101.131V24.56H101.851V19.76H103.531V23.36H104.251V22.16H105.691V22.64H104.731V23.84H103.051V20.24H102.331V25.04H100.651ZM113.851 21.2V20H114.331V21.2H113.851ZM118.651 22.64V21.2H119.131V22.16H120.091V22.64H118.651ZM105.451 28.64V27.44H104.251V24.56H105.451V23.36H106.651V22.4H107.131V23.84H105.931V25.04H104.731V26.96H105.931V28.16H106.651V26.24H105.691V25.76H107.131V28.64H105.451ZM110.251 27.44V23.84H109.531V25.04H107.851V23.6H108.331V24.56H109.051V23.36H110.731V26.96H112.651V24.8H113.131V27.44H110.251ZM121.051 24.8V23.6H121.531V24.8H121.051ZM103.051 26V24.8H103.531V26H103.051ZM109.051 28.64V26.24H108.091V25.76H109.531V28.16H111.691V28.64H109.051ZM117.451 28.4V26H117.931V28.4H117.451ZM118.651 28.64V27.2H119.131V28.16H122.251V27.44H120.091V26.96H122.731V28.64H118.651ZM107.851 28.4V27.2H108.331V28.4H107.851ZM126.654 19.84V18.16H127.854V16.24H126.654V14.56H127.854V13.36H129.054V9.76H131.454V7.84H130.734V9.04H127.854V7.36H129.294V7.84H128.334V8.56H130.254V7.36H131.934V10.24H129.534V13.84H128.334V15.04H127.134V15.76H128.334V18.64H127.134V19.36H128.094V19.84H126.654ZM147.054 28.24V26.8H147.534V27.76H149.454V27.04H148.254V25.36H149.454V24.64H147.534V25.84H146.334V27.04H144.654V24.64H143.934V25.84H142.254V23.44H141.534V24.64H139.854V21.76H142.254V21.04H139.854V14.56H141.054V12.64H138.654V10.96H139.854V10.24H138.654V9.04H137.934V12.64H133.854V7.84H133.134V12.64H130.734V13.36H131.934V14.56H133.134V15.76H133.854V13.36H135.534V14.56H136.254V13.6H136.734V15.04H135.054V13.84H134.334V16.24H132.654V15.04H131.454V13.84H130.254V12.16H132.654V7.36H134.334V12.16H137.454V8.56H139.134V9.76H140.334V11.44H139.134V12.16H141.534V15.04H140.334V20.56H142.734V22.24H140.334V24.16H141.054V22.96H142.734V25.36H143.454V24.16H145.134V26.56H145.854V25.36H147.054V24.16H149.934V25.84H148.734V26.56H149.934V28.24H147.054ZM141.054 19.84V18.4H141.534V19.36H142.254V17.44H141.054V15.76H147.054V12.16H148.254V11.44H144.654V7.84H140.334V8.56H143.934V10.24H141.294V9.76H143.454V9.04H139.854V7.36H145.134V10.96H148.734V12.64H147.534V16.24H141.534V16.96H142.734V19.84H141.054ZM145.854 10.24V8.8H146.334V9.76H147.294V10.24H145.854ZM135.054 11.44V8.8H135.534V10.96H136.254V10H136.734V11.44H135.054ZM126.654 11.44V8.8H127.134V10.96H127.854V10H128.334V11.44H126.654ZM142.494 15.04V14.56H145.854V13.84H142.254V11.44H141.294V10.96H142.734V13.36H146.334V15.04H142.494ZM130.494 11.44V10.96H131.694V11.44H130.494ZM143.454 12.64V11.2H143.934V12.16H146.094V12.64H143.454ZM126.654 13.6V12.16H128.094V12.64H127.134V13.6H126.654ZM149.454 19.6V17.44H148.254V14.56H149.454V13.84H148.494V13.36H149.934V15.04H148.734V16.96H149.934V19.6H149.454ZM137.694 15.04V14.56H138.654V13.84H137.694V13.36H139.134V15.04H137.694ZM126.894 23.44V22.96H130.254V20.56H131.454V18.64H129.054V14.56H130.734V15.76H131.934V17.44H130.494V16.96H131.454V16.24H130.254V15.04H129.534V18.16H131.934V21.04H130.734V23.44H126.894ZM148.494 23.44V22.96H149.454V21.04H148.254V18.64H147.054V17.44H145.134V18.64H143.454V17.2H143.934V18.16H144.654V16.96H147.534V18.16H148.734V20.56H149.934V23.44H148.494ZM132.894 19.84V19.36H133.854V16.96H135.534V19.6H135.054V17.44H134.334V19.84H132.894ZM132.654 18.4V17.2H133.134V18.4H132.654ZM129.054 22V19.36H130.494V19.84H129.534V22H129.054ZM145.854 24.4V22.96H147.054V22.24H143.454V19.36H146.334V20.56H147.054V19.6H147.534V21.04H145.854V19.84H143.934V21.76H147.534V23.44H146.334V24.4H145.854ZM126.654 22.24V20.56H128.094V21.04H127.134V21.76H128.094V22.24H126.654ZM133.854 28.24V26.56H135.054V21.04H134.094V20.56H135.534V27.04H134.334V27.76H135.294V28.24H133.854ZM130.254 28.24V27.04H129.534V28H129.054V26.56H130.734V27.76H131.454V24.16H133.134V25.36H133.854V22.24H131.934V22.96H132.894V23.44H131.454V21.76H134.334V25.84H132.654V24.64H131.934V28.24H130.254ZM143.694 23.44V22.96H144.894V23.44H143.694ZM126.654 28.24V26.56H127.854V25.84H126.654V24.16H129.534V25.36H130.254V24.4H130.734V25.84H129.054V24.64H127.134V25.36H128.334V27.04H127.134V27.76H128.094V28.24H126.654ZM139.854 28.24V25.36H141.534V26.8H141.054V25.84H140.334V27.76H142.254V26.56H143.934V27.76H146.094V28.24H143.454V27.04H142.734V28.24H139.854ZM132.654 28V26.8H133.134V28H132.654ZM173.327 20V16.16H174.527V14.24H172.607V16.64H170.927V12.56H172.127V11.84H166.127V8.96H168.527V8.24H165.407V11.84H163.727V8.24H161.807V13.04H157.727V11.36H158.927V10.16H160.607V11.6H160.127V10.64H159.407V11.84H158.207V12.56H161.327V7.76H164.207V11.36H164.927V7.76H169.007V9.44H166.607V11.36H172.607V13.04H171.407V16.16H172.127V13.76H175.007V16.64H173.807V20H173.327ZM159.167 9.44V8.96H160.127V8.24H159.167V7.76H160.607V9.44H159.167ZM169.967 9.44V8.96H171.167V9.44H169.967ZM154.127 12.8V11.36H155.327V10.16H157.727V9.2H158.207V10.64H155.807V11.84H154.607V12.8H154.127ZM162.527 10.4V9.2H163.007V10.4H162.527ZM167.567 10.64V10.16H172.367V10.64H167.567ZM167.327 16.64V15.44H164.927V13.76H166.127V13.04H162.527V11.6H163.007V12.56H166.607V14.24H165.407V14.96H167.807V16.16H168.527V13.76H169.727V13.04H167.807V14H167.327V12.56H170.207V14.24H169.007V16.64H167.327ZM173.327 12.8V11.6H173.807V12.8H173.327ZM162.527 20.24V19.04H161.327V17.84H160.127V14.24H156.527V13.04H155.807V14.24H153.167V13.76H155.327V12.56H157.007V13.76H160.607V17.36H161.807V18.56H163.007V19.76H163.727V18.8H164.207V20.24H162.527ZM161.327 16.64V14.96H162.527V14.24H161.567V13.76H163.007V15.44H161.807V16.16H162.767V16.64H161.327ZM158.927 28.64V27.44H156.527V26.24H155.327V23.36H156.527V22.64H155.327V19.04H154.607V20.24H152.927V14.96H154.607V17.36H157.727V14.96H159.407V19.04H157.007V20.96H157.727V20H158.207V21.44H156.527V18.56H158.927V15.44H158.207V17.84H154.127V15.44H153.407V19.76H154.127V18.56H155.807V22.16H157.007V23.84H155.807V25.76H157.007V26.96H159.407V28.16H160.127V23.36H162.527V22.64H158.207V24.56H159.407V26.24H157.967V25.76H158.927V25.04H157.727V22.16H163.007V23.84H160.607V28.64H158.927ZM155.327 16.64V14.96H156.767V15.44H155.807V16.16H156.767V16.64H155.327ZM168.527 20.24V17.36H169.727V15.2H170.207V17.84H169.007V19.76H172.127V17.84H171.407V18.8H170.927V17.36H172.607V20.24H168.527ZM162.767 17.84V17.36H163.727V16.16H166.607V17.6H166.127V16.64H164.207V17.84H162.767ZM174.527 20V17.6H175.007V20H174.527ZM165.167 20.24V19.76H166.127V19.04H164.927V17.6H165.407V18.56H166.607V20.24H165.167ZM167.327 20V17.6H167.807V20H167.327ZM158.927 21.44V19.76H161.807V21.2H161.327V20.24H159.407V20.96H160.367V21.44H158.927ZM152.927 22.4V20.96H154.607V22.4H154.127V21.44H153.407V22.4H152.927ZM161.327 28.64V27.2H161.807V28.16H163.727V27.44H162.527V26.24H161.327V24.56H164.207V25.76H165.407V28.16H168.527V27.44H166.127V25.76H167.327V22.16H169.007V25.76H170.207V26.96H170.927V24.56H173.567V25.04H171.407V27.44H169.727V26.24H168.527V22.64H167.807V26.24H166.607V26.96H169.007V28.64H164.927V26.24H163.727V25.04H161.807V25.76H163.007V26.96H164.207V28.64H161.327ZM169.727 24.8V22.16H171.407V23.36H174.527V22.4H175.007V23.84H170.927V22.64H170.207V24.8H169.727ZM172.367 22.64V22.16H173.567V22.64H172.367ZM163.967 23.84V23.36H166.127V22.4H166.607V23.84H163.967ZM154.127 24.8V23.6H154.607V24.8H154.127ZM165.167 25.04V24.56H166.367V25.04H165.167ZM182.209 13.84V13.36H183.169V12.16H185.569V11.44H181.969V10.24H178.369V7.36H180.049V8.56H183.169V6.64H182.449V7.84H180.769V4.96H186.769V3.76H187.969V3.04H185.569V0.159998H187.249V1.36H187.969V0.159998H189.649V5.44H188.449V6.16H189.649V7.84H186.769V6.64H184.849V7.36H186.049V8.56H187.249V10.24H183.409V9.76H186.769V9.04H185.569V7.84H184.369V6.16H187.249V7.36H189.169V6.64H187.969V4.96H189.169V0.639999H188.449V1.84H186.769V0.639999H186.049V2.56H188.449V4.24H187.249V5.44H181.249V7.36H181.969V6.16H183.649V9.04H179.569V7.84H178.849V9.76H182.449V10.96H186.049V12.64H183.649V13.84H182.209ZM183.169 4.24V3.04H180.769V1.36H181.969V0.159998H183.649V1.6H183.169V0.639999H182.449V1.84H181.249V2.56H183.649V3.76H184.369V0.399998H184.849V4.24H183.169ZM181.009 4.24V3.76H182.209V4.24H181.009ZM183.169 24.64V21.04H180.769V16.96H181.969V14.56H184.849V16.24H183.409V15.76H184.369V15.04H182.449V17.44H181.249V20.56H183.649V24.16H184.369V19.84H181.969V18.16H183.169V16.96H185.569V15.76H189.169V14.56H191.569V13.36H193.969V12.16H195.169V10.96H196.369V9.04H195.169V7.84H194.449V8.8H193.969V7.36H195.649V8.56H196.849V11.44H195.649V12.64H194.449V13.84H192.049V15.04H189.649V16.24H186.049V17.44H183.649V18.64H182.449V19.36H184.849V24.64H183.169ZM185.569 15.04V13.84H184.609V13.36H186.049V14.56H186.769V10.96H189.169V10.24H187.969V8.56H192.769V7.84H190.609V7.36H193.249V9.04H188.449V9.76H189.649V11.44H187.249V15.04H185.569ZM191.809 11.44V10.96H192.769V9.76H195.409V10.24H193.249V11.44H191.809ZM187.969 14.8V12.16H190.369V9.76H191.809V10.24H190.849V12.64H188.449V14.8H187.969ZM177.169 11.44V10H177.649V10.96H181.009V11.44H177.169ZM191.809 12.64V12.16H193.009V12.64H191.809ZM177.409 15.04V14.56H178.369V12.64H177.649V13.6H177.169V12.16H178.849V15.04H177.409ZM179.809 12.64V12.16H182.209V12.64H179.809ZM195.169 14.8V13.36H196.369V12.4H196.849V13.84H195.649V14.8H195.169ZM180.769 16V13.84H180.049V14.8H179.569V13.36H181.249V16H180.769ZM189.409 13.84V13.36H190.609V13.84H189.409ZM193.009 15.04V14.56H194.209V15.04H193.009ZM184.609 18.64V18.16H186.769V16.96H189.409V17.44H187.249V18.64H184.609ZM189.169 21.04V18.64H188.209V18.16H189.649V20.56H190.609V21.04H189.169ZM185.569 22.24V19.6H186.049V21.76H187.969V21.04H186.769V19.36H188.209V19.84H187.249V20.56H188.449V22.24H185.569ZM181.969 24.4V22.24H181.009V21.76H182.449V24.4H181.969ZM183.409 25.84V25.36H186.769V24.64H185.569V22.96H188.449V24.16H189.169V22.96H190.369V21.76H192.049V22.96H192.769V21.76H194.209V22.24H193.249V23.44H191.569V22.24H190.849V23.44H189.649V24.64H187.969V23.44H186.049V24.16H187.249V25.84H183.409ZM196.369 25.6V22.24H195.409V21.76H196.849V25.6H196.369ZM195.169 24.4V23.44H194.209V22.96H195.649V24.4H195.169ZM185.569 28.24V27.04H184.609V26.56H186.049V27.76H189.169V27.04H187.969V25.36H190.849V26.56H191.569V24.16H194.449V25.36H195.649V26.56H196.849V28.24H193.969V26.8H194.449V27.76H196.369V27.04H195.169V25.84H193.969V24.64H192.049V27.04H190.369V25.84H188.449V26.56H189.649V28.24H185.569ZM192.769 28V25.6H193.249V28H192.769ZM190.609 28.24V27.76H191.809V28.24H190.609ZM205.663 23.44V21.76H208.543V22.96H209.263V21.04H206.863V18.16H208.543V19.36H209.263V18.16H210.463V15.76H212.863V14.56H214.063V10.96H215.263V9.76H216.463V5.44H215.263V4.24H214.063V2.56H216.463V0.159998H218.143V1.36H220.063V0.159998H222.703V0.639999H220.543V1.84H217.663V0.639999H216.943V3.04H214.543V3.76H215.743V4.96H216.943V10.24H215.743V11.44H214.543V15.04H213.343V16.24H210.943V18.64H209.743V19.84H208.063V18.64H207.343V20.56H209.743V23.44H208.063V22.24H206.143V22.96H207.103V23.44H205.663ZM214.063 1.84V0.159998H215.503V0.639999H214.543V1.36H215.503V1.84H214.063ZM224.863 2.8V1.84H223.663V0.399998H224.143V1.36H225.343V2.8H224.863ZM216.463 13.84V12.16H217.663V8.56H218.863V7.84H217.663V6.16H220.063V2.56H221.263V1.36H222.703V1.84H221.743V3.04H220.543V6.64H218.143V7.36H219.343V9.04H218.143V12.64H216.943V13.36H217.903V13.84H216.463ZM208.063 16.24V14.8H208.543V15.76H209.263V14.56H210.463V12.64H209.263V10.96H212.863V8.56H215.263V7.84H212.863V1.6H213.343V7.36H215.743V9.04H213.343V11.44H209.743V12.16H210.943V15.04H209.743V16.24H208.063ZM221.263 5.44V3.76H222.463V2.56H223.903V3.04H222.943V4.24H221.743V4.96H223.663V3.76H226.303V4.24H224.143V5.44H221.263ZM217.663 5.44V2.8H218.143V4.96H218.863V2.8H219.343V5.44H217.663ZM227.263 17.2V16.24H226.063V13.36H228.463V11.44H227.263V10.24H226.543V12.64H225.343V15.04H223.663V12.64H222.463V7.36H224.863V4.96H226.543V7.36H227.743V9.04H225.343V10.24H224.143V10.96H225.103V11.44H223.663V9.76H224.863V8.56H227.263V7.84H226.063V5.44H225.343V7.84H222.943V12.16H224.143V14.56H224.863V12.16H226.063V9.76H227.743V10.96H228.943V13.84H226.543V15.76H227.743V17.2H227.263ZM214.063 6.64V5.2H214.543V6.16H215.503V6.64H214.063ZM210.463 10.24V8.56H211.663V5.2H212.143V9.04H210.943V9.76H211.903V10.24H210.463ZM221.503 6.64V6.16H223.903V6.64H221.503ZM220.063 9.04V7.36H221.503V7.84H220.543V8.56H221.503V9.04H220.063ZM221.263 16.24V14.8H221.743V15.76H222.463V13.84H221.263V10.24H220.303V9.76H221.743V13.36H222.943V16.24H221.263ZM220.063 13.6V11.2H220.543V13.6H220.063ZM211.663 13.84V12.16H213.103V12.64H212.143V13.36H213.103V13.84H211.663ZM215.263 15.04V12.4H215.743V14.56H217.903V15.04H215.263ZM228.463 17.44V15.76H229.663V15.04H227.503V14.56H230.143V16.24H228.943V16.96H229.903V17.44H228.463ZM211.663 18.4V16.96H214.063V15.76H215.503V16.24H214.543V17.44H212.143V18.4H211.663ZM224.863 17.2V16.24H223.903V15.76H225.343V17.2H224.863ZM216.463 18.4V16H216.943V18.4H216.463ZM208.303 17.44V16.96H209.503V17.44H208.303ZM218.863 24.64V20.56H220.063V17.44H219.343V19.6H218.863V16.96H220.543V21.04H219.343V24.16H221.263V23.44H220.063V21.76H221.263V19.36H222.463V18.64H221.263V16.96H224.143V18.16H225.343V21.76H226.543V22.96H227.263V19.84H226.543V20.8H226.063V19.36H227.743V23.44H226.063V22.24H224.863V18.64H223.663V17.44H221.743V18.16H222.943V19.84H221.743V22.24H220.543V22.96H221.743V24.64H218.863ZM228.463 21.04V19.6H228.943V20.56H229.663V18.64H226.063V17.2H226.543V18.16H230.143V21.04H228.463ZM204.463 28.24V25.36H205.663V24.16H210.463V22.96H212.143V26.56H214.063V21.76H215.263V21.04H210.463V19.36H212.863V18.16H215.743V19.36H217.663V18.4H218.143V19.84H215.263V18.64H213.343V19.84H210.943V20.56H215.743V22.24H214.543V27.04H211.663V23.44H210.943V24.64H206.143V25.84H204.943V27.76H205.663V26.56H206.863V25.36H208.543V26.56H210.943V28.24H207.103V27.76H210.463V27.04H208.063V25.84H207.343V27.04H206.143V28.24H204.463ZM230.863 23.2V18.4H231.343V23.2H230.863ZM222.463 22.24V20.56H223.663V19.6H224.143V21.04H222.943V21.76H223.903V22.24H222.463ZM216.463 24.64V23.2H216.943V24.16H217.663V21.04H216.943V22H216.463V20.56H218.143V24.64H216.463ZM210.703 22.24V21.76H211.903V22.24H210.703ZM227.503 28.24V27.76H228.463V22H228.943V28.24H227.503ZM229.663 23.2V22H230.143V23.2H229.663ZM232.063 23.2V22H232.543V23.2H232.063ZM212.863 25.6V22H213.343V25.6H212.863ZM223.903 23.44V22.96H225.103V23.44H223.903ZM215.263 24.4V23.2H215.743V24.4H215.263ZM223.663 25.6V24.64H222.463V23.2H222.943V24.16H224.143V25.6H223.663ZM225.103 24.64V24.16H226.303V24.64H225.103ZM232.063 28.24V27.04H229.903V26.56H232.543V27.76H233.263V24.64H230.143V25.36H232.303V25.84H229.663V24.16H233.743V28.24H232.063ZM209.503 25.84V25.36H210.703V25.84H209.503ZM224.863 28.24V25.36H227.743V26.8H227.263V25.84H225.343V27.76H226.063V26.8H226.543V28.24H224.863ZM211.903 28.24V27.76H213.103V28.24H211.903ZM229.903 28.24V27.76H231.103V28.24H229.903ZM244.058 20.8V19.84H242.858V18.16H244.058V15.76H245.258V14.56H246.458V13.84H245.258V12.16H246.458V9.04H245.258V4.96H246.458V4.24H245.258V2.56H246.458V1.84H245.258V0.639999H240.938V2.56H244.538V9.04H242.858V7.84H242.138V9.04H240.938V11.44H239.258V9.04H238.538V13.36H239.258V12.16H241.658V9.76H245.738V11.44H243.338V13.84H240.938V15.04H236.858V7.36H239.258V0.639999H238.538V1.84H237.338V2.56H238.538V5.44H237.338V6.16H238.298V6.64H236.858V4.96H238.058V3.04H236.858V1.36H238.058V0.159998H239.738V7.84H237.338V14.56H240.458V13.36H242.858V10.96H245.258V10.24H242.138V12.64H239.738V13.84H238.058V8.56H239.738V10.96H240.458V8.56H241.658V7.36H243.338V8.56H244.058V3.04H240.458V0.159998H245.738V1.36H246.938V3.04H245.738V3.76H246.938V5.44H245.738V8.56H246.938V12.64H245.738V13.36H246.938V15.04H245.738V16.24H244.538V18.64H243.338V19.36H244.538V20.8H244.058ZM241.898 1.84V1.36H244.298V1.84H241.898ZM240.458 7.6V4.96H241.658V3.76H243.338V6.64H241.898V6.16H242.858V4.24H242.138V5.44H240.938V7.6H240.458ZM246.458 7.6V6.4H246.938V7.6H246.458ZM241.658 16.24V14.8H242.138V15.76H242.858V14.56H244.058V13.6H244.538V15.04H243.338V16.24H241.658ZM238.058 24.64V22.24H236.858V20.8H237.338V21.76H238.538V24.16H239.258V22.96H240.938V24.16H242.858V23.44H241.658V21.04H240.938V22.24H239.258V21.04H238.058V19.84H236.858V15.76H238.538V18.16H241.658V17.44H240.458V16.24H239.498V15.76H240.938V16.96H242.138V18.64H238.058V16.24H237.338V19.36H238.538V20.56H239.738V21.76H240.458V20.56H242.138V22.96H243.338V24.64H240.458V23.44H239.738V24.64H238.058ZM245.258 19.84V16.96H246.698V17.44H245.738V19.36H246.458V18.4H246.938V19.84H245.258ZM239.498 19.84V19.36H241.898V19.84H239.498ZM244.058 25.84V22.24H242.858V20.8H243.338V21.76H244.538V25.36H246.458V24.64H245.258V22.96H246.458V21.04H245.498V20.56H246.938V23.44H245.738V24.16H246.938V25.84H244.058ZM236.858 28.24V23.2H237.338V27.76H238.298V28.24H236.858ZM241.658 28.24V27.04H240.938V28H240.458V26.56H242.138V27.76H246.458V27.04H242.858V25.84H238.538V26.56H239.738V28H239.258V27.04H238.058V25.36H243.338V26.56H246.938V28.24H241.658Z" fill="#168CD0"/>
</svg>
