<svg version="1.1" id="Layer_1" xmlns="http://www.w3.org/2000/svg" xmlns:xlink="http://www.w3.org/1999/xlink" x="0px" y="0px"
	 width="100%" viewBox="0 0 1024 432" xml:space="preserve">
<path fill="#000000" opacity="1.000000" stroke="none" 
	d="
M388.960693,225.914139 
	C386.451904,231.124542 385.214417,236.156906 385.183014,241.652252 
	C385.066284,262.103729 376.119354,270.123871 355.888977,266.964539 
	C349.153992,265.912750 344.582397,267.503601 339.684113,271.744415 
	C328.695251,281.258240 316.084015,288.540649 303.821106,296.245667 
	C298.574554,299.542145 295.587982,303.130157 296.024353,309.863129 
	C296.567749,318.247437 292.597656,323.814178 284.472198,325.756470 
	C266.905182,329.955688 261.391144,343.629089 258.414978,358.700562 
	C255.342804,374.258423 255.859665,390.192688 256.039612,406.020325 
	C256.073639,409.013916 256.173553,411.997833 255.402527,414.960571 
	C254.520142,418.351166 252.476379,420.247070 248.987000,419.974823 
	C245.428329,419.697174 242.282333,418.312469 241.975479,414.191650 
	C240.415848,393.247681 239.672455,372.286133 242.590988,351.400665 
	C243.587891,344.266571 246.100937,337.505280 250.072189,331.427399 
	C252.709427,327.391174 253.133224,323.315186 250.661575,319.217560 
	C248.124207,315.010986 247.347336,310.487610 247.858307,305.769196 
	C248.402298,300.745941 246.773880,296.547882 243.594101,292.899658 
	C229.033600,276.194183 215.074966,259.009277 201.782379,241.274048 
	C198.030975,236.268845 193.720215,235.584167 188.184280,239.292603 
	C180.856323,244.201477 173.925980,249.699310 166.698669,254.764099 
	C154.016373,263.651611 141.193268,272.338257 128.514145,281.230255 
	C117.703552,288.811829 117.824829,290.802124 129.648697,296.194519 
	C143.018295,302.291809 156.985428,306.925537 171.188293,310.454926 
	C190.527832,315.260742 204.165741,327.336945 216.736710,341.924225 
	C226.023651,352.700714 228.913971,364.144501 226.489105,377.862823 
	C224.662094,388.198944 225.222519,398.788055 225.272964,409.281433 
	C225.289932,412.809113 224.183289,415.456146 220.527115,416.557190 
	C216.317703,417.824829 213.391235,416.078033 212.561218,411.754822 
	C211.482849,406.138123 211.889114,400.452515 211.891739,394.801056 
	C211.894226,389.448578 211.294205,384.173828 210.752991,378.871796 
	C210.310303,374.534882 208.123505,372.765350 203.834763,372.954010 
	C194.842789,373.349609 186.061447,375.645996 177.033691,375.730499 
	C162.988663,375.861969 149.147385,375.246033 135.851303,369.731262 
	C119.590881,362.987030 108.825066,350.719391 100.405380,335.929382 
	C97.194443,330.289001 94.352661,324.438965 91.320549,318.696136 
	C89.321808,314.910522 86.492638,312.014221 82.592232,310.077759 
	C76.506409,307.056244 73.044121,301.966309 71.680618,295.384491 
	C70.919601,291.710907 69.914505,288.290436 65.915230,286.688629 
	C54.498779,282.116119 48.047268,272.682831 42.536263,262.418060 
	C34.842583,248.087936 34.175858,232.813232 36.975021,217.212524 
	C37.606762,213.691620 37.193726,210.842148 35.387474,207.749161 
	C28.718142,196.328766 31.611834,182.553146 42.274040,174.726379 
	C45.729004,172.190186 46.369194,168.361893 47.578537,164.811584 
	C51.070862,154.559006 54.792774,144.499481 60.395737,135.081665 
	C69.058273,120.521118 80.547592,108.748566 93.424812,97.971695 
	C104.280777,88.886398 114.513962,79.063416 123.385574,67.948494 
	C136.789185,51.155613 154.649078,41.247761 174.768433,35.045898 
	C180.997284,33.125832 186.179398,30.689804 190.113754,24.982639 
	C193.813812,19.615314 199.369385,15.817991 206.218246,14.904236 
	C216.785889,13.494332 224.798141,18.809578 228.789795,29.699858 
	C231.977158,38.395771 228.537430,48.519608 220.339432,53.622879 
	C217.476379,55.405132 215.643463,57.581390 214.521179,60.733322 
	C209.712418,74.238945 205.865646,88.009514 202.731842,101.989876 
	C202.192215,104.397209 202.161697,106.377739 204.512375,108.147423 
	C210.178406,112.413063 211.339294,118.600105 210.576614,125.147888 
	C210.256363,127.897362 210.525223,129.866638 212.630219,131.810104 
	C225.236282,143.448822 237.731781,155.207214 250.315689,166.870087 
	C251.845764,168.288177 253.383209,170.354752 255.866669,169.484207 
	C258.290100,168.634689 257.616821,166.180969 257.907959,164.291840 
	C260.850189,145.200241 262.184021,125.944611 263.885376,106.722382 
	C264.750183,96.951851 266.120422,87.223167 267.396118,77.493126 
	C268.016144,72.764519 267.279724,68.467667 263.936554,64.958092 
	C252.736862,53.200977 258.633087,38.333023 267.599579,32.427650 
	C278.893158,24.989635 296.864319,28.817034 303.172882,40.463554 
	C305.090942,44.004539 307.279144,46.119312 311.241638,46.950031 
	C328.843262,50.640133 341.073090,61.869255 350.824341,76.147682 
	C355.448975,82.919350 360.653015,88.108177 368.671600,91.216988 
	C384.061890,97.183815 390.162567,111.331696 383.127960,125.543198 
	C381.570007,128.690567 383.233978,131.032181 384.660889,133.417603 
	C394.567474,149.978439 399.645538,167.809738 399.109863,187.178604 
	C398.734406,200.754196 394.971344,213.425446 388.960693,225.914139 
M215.251144,152.252075 
	C211.965881,148.945633 208.564926,145.744476 205.430878,142.300430 
	C202.785095,139.392914 199.868881,137.934830 195.798203,138.200027 
	C190.229080,138.562851 184.715866,137.583862 180.024719,134.437057 
	C176.784592,132.263611 174.104263,132.686783 170.805542,134.133453 
	C152.320969,142.239944 135.013916,152.607941 117.136803,161.875610 
	C105.759514,167.773697 94.237617,173.428696 83.363121,180.254425 
	C81.380241,181.499054 79.141090,182.999344 79.581024,185.639557 
	C80.012711,188.230240 82.750618,188.268921 84.780090,188.767136 
	C117.762054,196.863815 150.948959,204.063446 184.080902,211.507278 
	C192.023178,213.291672 199.181335,211.958084 206.248703,208.378143 
	C217.096985,202.882996 227.816238,197.173096 238.145660,190.737579 
	C245.173492,186.359070 245.856674,183.122025 240.284683,176.925308 
	C232.598404,168.377213 224.114594,160.613770 215.251144,152.252075 
M271.581329,284.904419 
	C276.263977,284.974884 280.905212,285.566925 285.402161,286.781219 
	C288.397308,287.589935 290.826630,287.147552 293.383942,285.485291 
	C307.340637,276.413483 321.485565,267.643585 334.310089,256.920776 
	C341.855621,250.611862 341.732666,240.939316 333.299927,236.034698 
	C315.164978,225.487137 296.872375,215.210876 278.676025,204.768295 
	C276.053802,203.263458 273.573486,203.125275 270.582001,203.744171 
	C263.939697,205.118362 257.239014,205.129745 251.365814,201.007141 
	C248.710526,199.143311 246.485947,199.690521 243.986923,201.058304 
	C234.784805,206.094940 225.524124,211.024734 216.331512,216.078491 
	C209.899246,219.614716 208.609436,224.141724 212.206909,230.552826 
	C213.340622,232.573212 214.771561,234.445435 216.207596,236.274658 
	C228.451843,251.871262 242.326996,266.074799 254.833786,281.442596 
	C257.953552,285.276062 261.531921,286.597504 266.223175,285.551056 
	C267.678864,285.226318 269.184784,285.126709 271.581329,284.904419 
M69.341499,151.840225 
	C67.491623,156.321304 66.155563,160.968338 65.354813,165.731628 
	C65.044479,167.577667 64.282913,169.944839 66.346634,171.260300 
	C68.164543,172.419067 69.857811,170.915909 71.420929,170.087479 
	C78.483955,166.344147 85.517609,162.544693 92.537506,158.720779 
	C123.186775,142.025345 156.158401,129.497910 183.968277,107.680283 
	C186.478577,105.710884 188.218018,103.729248 189.003494,100.629356 
	C191.660873,90.142052 194.199753,79.610023 197.351120,69.267914 
	C199.356537,62.686493 200.115234,57.735413 193.352341,52.687332 
	C188.691132,49.208023 184.870972,47.496384 179.412811,48.794060 
	C162.208054,52.884480 148.388718,62.592793 136.967499,75.548958 
	C124.848404,89.296783 113.440163,103.679260 97.827026,113.781464 
	C90.387123,118.595322 84.914970,125.176498 79.869926,132.300110 
	C75.697517,138.191544 72.634857,144.631393 69.341499,151.840225 
M354.649048,132.170517 
	C351.491547,131.842422 348.823486,133.050827 346.229004,134.692123 
	C339.176910,139.153320 332.840637,144.522079 326.409027,149.805466 
	C313.928833,160.057632 300.068542,168.430130 287.176147,178.131897 
	C280.716339,182.993057 280.860748,189.674271 287.548401,193.932770 
	C305.666565,205.469925 325.106903,214.686035 343.476166,225.783524 
	C346.823608,227.805832 350.145599,228.196487 353.846069,226.254044 
	C356.924591,224.638092 360.399994,223.399994 363.926086,223.826645 
	C370.834167,224.662476 373.899872,220.548843 376.063202,215.082336 
	C385.742035,190.625168 384.396393,166.696426 372.860962,143.127823 
	C369.235168,135.719818 363.771667,131.919846 354.649048,132.170517 
M135.038269,214.562881 
	C116.808113,210.753738 98.921890,205.368591 80.420410,202.766632 
	C77.548462,202.362747 75.628448,202.823532 74.005028,205.164001 
	C69.909019,211.069183 64.302711,214.608490 57.187138,215.809158 
	C52.765690,216.555206 50.563152,219.488037 50.252403,223.766418 
	C49.261604,237.407639 51.859142,250.297150 58.897449,262.117218 
	C62.322784,267.869659 66.925323,272.298920 73.756607,273.849274 
	C75.620903,274.272400 77.323746,274.411377 78.914169,273.026398 
	C88.487579,264.689697 98.813736,265.995972 109.170525,271.076569 
	C112.139915,272.533234 114.320297,272.399536 116.949539,270.648407 
	C136.074310,257.911011 155.269943,245.279999 174.391693,232.538101 
	C176.388016,231.207855 179.128220,229.855576 178.439301,226.841537 
	C177.827148,224.163391 174.996841,223.925751 172.791809,223.402069 
	C160.488800,220.480179 148.161530,217.660446 135.038269,214.562881 
M276.401276,146.886093 
	C276.233795,153.572968 274.333801,160.183365 275.137695,167.266693 
	C276.175690,166.849411 276.814941,166.684189 277.359741,166.360168 
	C297.724487,154.249176 316.309296,139.689255 334.608276,124.735420 
	C336.286011,123.364410 336.679810,121.592133 336.980133,119.502602 
	C338.065460,111.952324 339.001465,104.311218 342.828796,97.497513 
	C343.798187,95.771675 343.526520,94.317833 342.649506,92.820755 
	C334.333679,78.625275 323.167603,67.604042 307.555389,61.647541 
	C305.256897,60.770603 302.482452,59.481178 300.302429,60.833103 
	C292.544525,65.644051 283.197571,69.152847 282.426056,80.438454 
	C282.154144,84.415970 281.571350,88.371384 281.177002,92.341507 
	C279.402771,110.203384 278.896667,128.174835 276.401276,146.886093 
M132.676636,312.928101 
	C127.733757,310.945984 122.815491,308.899506 117.841881,306.997772 
	C111.361275,304.519775 107.661407,307.226044 108.320602,314.161011 
	C108.880096,320.047058 111.156898,325.426636 114.196320,330.471649 
	C133.003067,361.688019 162.542526,364.584198 195.197906,358.883240 
	C201.883347,357.716064 203.247787,352.781128 199.895966,346.646698 
	C194.030396,335.911652 184.555099,329.866119 173.294708,326.121613 
	C160.031387,321.711090 146.456757,318.260925 132.676636,312.928101 
M287.637207,50.934669 
	C288.563385,46.102760 286.187836,43.222866 281.826813,42.055496 
	C277.956085,41.019371 274.040741,41.512058 271.646301,45.156574 
	C269.345215,48.658985 269.402222,52.580128 272.388519,55.684158 
	C275.413208,58.828114 279.267090,58.415234 282.976501,56.795181 
	C285.222870,55.814095 286.457001,53.825745 287.637207,50.934669 
z"/>
<path fill="#000000" opacity="1.000000" stroke="none" 
	d="
M587.974304,231.145264 
	C575.823242,231.148956 564.166809,231.115662 552.510864,231.173798 
	C547.232849,231.200119 546.431946,232.381699 547.829712,237.578293 
	C549.864929,245.144745 556.135681,250.389587 564.054504,250.938446 
	C572.248047,251.506332 580.181763,251.425034 584.955505,242.831482 
	C586.093872,240.782257 596.828857,241.354370 598.454041,243.254318 
	C599.681763,244.689667 598.980713,246.067963 598.258301,247.401581 
	C594.305481,254.698563 588.851501,260.125305 580.598022,262.545837 
	C560.805664,268.350464 542.439453,261.336426 533.648254,244.402695 
	C525.661438,229.018280 531.378723,207.078842 545.802307,197.763046 
	C561.204468,187.815216 583.266418,190.491745 593.535706,203.655762 
	C599.015198,210.679916 600.175598,219.117554 600.863525,227.640839 
	C601.050537,229.958496 599.567200,230.953217 597.458130,231.026382 
	C594.464050,231.130280 591.465698,231.111786 587.974304,231.145264 
M569.485229,219.825546 
	C572.637268,219.828995 575.791138,219.766785 578.940857,219.854324 
	C582.099976,219.942139 582.962830,218.628601 582.346619,215.546402 
	C580.807800,207.848862 574.567078,203.085510 565.990051,203.357986 
	C557.880798,203.615616 549.490784,209.991959 548.484070,216.498260 
	C548.072998,219.154755 549.456299,219.699020 551.570679,219.714157 
	C557.210815,219.754562 562.851013,219.784103 569.485229,219.825546 
z"/>
<path fill="#000000" opacity="1.000000" stroke="none" 
	d="
M886.296204,236.242981 
	C885.074951,224.038788 886.231873,212.750305 894.516663,203.490280 
	C907.876282,188.557953 939.446533,185.343323 950.887146,209.107880 
	C953.514709,214.565948 954.345886,220.538834 955.108704,226.476456 
	C955.704468,231.113434 952.280151,231.066452 949.242065,231.066116 
	C934.930725,231.064514 920.619385,230.977005 906.308044,230.921005 
	C905.341797,230.917221 904.375610,230.920486 903.455750,230.920486 
	C902.178162,241.187347 908.851685,249.761795 918.677979,250.733643 
	C926.642395,251.521332 933.894470,250.209503 939.593872,243.840607 
	C941.848816,241.320786 949.425903,241.360535 952.164001,243.471298 
	C954.132629,244.988998 952.927856,246.344620 952.101990,247.781418 
	C944.856689,260.387207 933.296631,264.643646 919.597656,263.958832 
	C902.446472,263.101410 890.395569,252.944427 886.296204,236.242981 
M906.984741,209.520630 
	C904.916321,212.368271 903.378235,215.383850 903.754028,219.015228 
	C907.894470,220.130661 933.092773,220.324753 938.480042,219.336761 
	C938.854614,213.263550 935.170593,207.594177 928.898315,204.591324 
	C922.157532,201.364227 913.619324,203.078094 906.984741,209.520630 
z"/>
<path fill="#000000" opacity="1.000000" stroke="none" 
	d="
M795.958984,245.136108 
	C795.833557,250.130478 796.527039,254.578049 797.281128,259.010956 
	C797.710327,261.533630 796.827515,262.898132 794.228821,262.944550 
	C791.564514,262.992157 788.896729,263.029877 786.234253,262.947784 
	C781.901672,262.814270 782.662842,258.288025 780.349243,255.647171 
	C771.809265,262.260925 762.074280,264.185791 751.636169,263.210999 
	C736.627563,261.809296 728.142700,248.280441 734.651367,235.802155 
	C737.591858,230.164505 742.390686,226.301895 748.294556,223.866608 
	C754.818665,221.175430 761.709473,219.981308 768.616272,218.844910 
	C770.094177,218.601746 771.620056,218.506165 773.035950,218.062225 
	C775.546753,217.275024 779.234070,217.985245 779.551453,213.984619 
	C779.873291,209.927307 778.781433,206.220245 774.767334,204.333832 
	C766.652100,200.520065 758.631775,201.352676 751.681152,206.685776 
	C747.929993,209.563995 744.366943,209.271820 740.434265,208.759521 
	C737.756775,208.410736 737.149048,206.962219 738.446533,204.529236 
	C739.876404,201.848083 741.434509,199.424332 744.211365,197.844818 
	C754.542053,191.968613 765.539612,190.402939 777.027466,192.986313 
	C788.067810,195.468994 794.668457,203.792526 795.106628,215.200790 
	C795.483765,225.019211 794.955811,234.864044 795.958984,245.136108 
M758.192993,252.599854 
	C773.900085,253.830917 781.081543,246.928391 779.865417,231.918808 
	C779.664062,229.434036 778.976807,228.334946 776.238098,228.651291 
	C769.437805,229.436783 762.727844,230.538193 756.406067,233.276566 
	C751.866577,235.242905 748.203674,238.241867 748.515808,243.650772 
	C748.819641,248.914383 752.670532,251.266281 758.192993,252.599854 
z"/>
<path fill="#000000" opacity="1.000000" stroke="none" 
	d="
M810.007690,248.983490 
	C810.238098,232.835144 810.440674,217.183624 810.722717,201.533554 
	C810.780090,198.344543 809.869080,194.215683 814.971313,194.086044 
	C822.915771,193.884140 823.846130,192.599106 826.073853,199.867599 
	C835.255554,191.762924 846.035217,190.393661 857.433472,192.617661 
	C867.660706,194.613190 873.869629,201.481384 875.161560,211.707230 
	C877.157043,227.501389 875.003784,243.311462 875.195068,259.114807 
	C875.227112,261.760040 873.749268,262.844696 871.150208,263.139252 
	C860.919861,264.298645 859.842651,263.413544 859.830933,253.298294 
	C859.818359,242.470871 859.864807,231.642761 859.757874,220.816208 
	C859.664307,211.341568 856.359924,206.245651 849.480896,204.548126 
	C840.856079,202.419800 833.791138,205.530518 829.295227,213.431503 
	C827.202271,217.109558 826.029358,220.965851 826.029114,225.293335 
	C826.028381,236.609680 825.782837,247.926041 825.631592,259.242340 
	C825.622803,259.901245 825.855469,260.802216 825.517273,261.180908 
	C822.192688,264.902863 817.785950,262.748901 813.858276,263.113678 
	C811.180603,263.362335 810.015869,261.506714 809.991821,258.974579 
	C809.961792,255.810333 809.999512,252.645432 810.007690,248.983490 
z"/>
<path fill="#000000" opacity="1.000000" stroke="none" 
	d="
M613.441040,248.221466 
	C610.182190,237.102386 611.048157,226.081650 611.171082,215.121872 
	C611.230774,209.800598 611.560242,204.480865 611.834351,199.163879 
	C612.106201,193.890289 613.623108,193.041901 620.901550,192.989349 
	C625.342163,192.957291 627.208435,194.674957 627.140808,199.213104 
	C626.959534,211.367050 626.970337,223.525543 627.053040,235.681229 
	C627.119751,245.484360 631.389648,250.364059 640.618652,251.570953 
	C650.459351,252.857834 659.249268,247.785980 661.619751,239.408188 
	C662.529968,236.191055 662.868408,232.901093 662.955261,229.546173 
	C663.205139,219.896072 663.543762,210.247025 663.989197,200.604095 
	C664.099548,198.216339 663.685852,194.943314 666.714111,194.260040 
	C670.366699,193.435883 674.318604,193.019836 677.879822,194.965851 
	C679.160889,195.665863 679.169617,197.221985 679.148132,198.570267 
	C678.829651,218.542786 678.481018,238.514862 678.192078,258.487793 
	C678.154114,261.112152 677.044250,262.546173 674.418518,262.769836 
	C673.755127,262.826324 673.093384,262.904205 672.429321,262.948944 
	C664.805481,263.462830 664.495605,263.212646 663.716919,255.321243 
	C657.779480,260.445648 650.981018,262.787872 643.633728,263.818665 
	C629.789429,265.760895 618.868652,260.262878 613.441040,248.221466 
z"/>
<path fill="#000000" opacity="1.000000" stroke="none" 
	d="
M502.900696,260.583954 
	C502.855499,246.639603 502.935211,233.149048 502.907562,219.658707 
	C502.887878,210.050461 499.331451,205.288406 491.566376,204.170883 
	C481.565948,202.731659 472.643860,207.476196 470.240570,215.656662 
	C469.637878,217.707977 469.300049,219.895676 469.226044,222.034027 
	C468.817322,233.847061 468.352966,245.663269 468.287933,257.480469 
	C468.263641,261.892212 466.628845,263.587250 462.386444,263.234924 
	C460.732544,263.097565 459.055908,263.171112 457.392303,263.227264 
	C454.180115,263.335724 452.864868,261.654419 452.919189,258.620575 
	C453.274109,238.809708 453.619690,218.998642 453.995300,199.188156 
	C454.059448,195.804764 455.669922,193.994232 459.263184,194.009644 
	C462.609161,194.024002 465.884796,193.823502 465.608063,198.684814 
	C465.585358,199.083786 466.072784,199.511795 466.339478,199.953278 
	C468.640076,200.292877 470.037476,198.627533 471.704285,197.659119 
	C481.915771,191.726227 492.597961,190.164703 503.805298,194.371964 
	C513.042114,197.839462 518.163452,205.225555 518.176575,215.051559 
	C518.195435,229.204010 518.202209,243.352951 517.416870,257.500092 
	C517.183655,261.702057 515.513489,263.372253 511.675720,262.948151 
	C508.737152,262.623474 505.242096,264.495148 502.900696,260.583954 
z"/>
<path fill="#000000" opacity="1.000000" stroke="none" 
	d="
M986.088257,221.002884 
	C986.056213,228.999298 985.905579,236.498245 986.034058,243.992416 
	C986.141418,250.253067 988.059814,251.999603 994.218323,252.053192 
	C995.550171,252.064774 996.882812,251.989975 998.215088,251.955078 
	C1000.841064,251.886292 1002.884094,252.640823 1003.105591,255.673431 
	C1003.329712,258.743103 1003.523193,261.946136 999.572754,262.894958 
	C991.475159,264.839844 983.591248,264.024384 976.356934,259.899200 
	C970.217224,256.398224 969.259766,250.130096 969.274048,243.802246 
	C969.299561,232.479828 969.383057,221.150040 969.844360,209.839737 
	C970.032837,205.220657 968.165527,203.833344 964.033752,204.296326 
	C959.738770,204.777557 958.556885,202.573212 958.658447,198.649414 
	C958.744324,195.331573 959.904785,193.483475 963.352783,193.820984 
	C967.931763,194.269211 968.954895,191.934448 968.953796,187.846970 
	C968.950989,177.202621 972.076355,174.918564 982.771301,177.079056 
	C985.362793,177.602570 986.256287,179.044693 986.425842,181.585266 
	C986.684631,185.461960 984.546509,190.348618 987.835266,192.948654 
	C990.669373,195.189285 995.252258,193.645218 999.058105,193.722580 
	C1002.014771,193.782654 1003.947815,194.508301 1003.556702,198.014954 
	C1003.231262,200.933029 1003.866821,204.416595 999.173279,204.192780 
	C998.841370,204.176971 998.507080,204.203369 998.174133,204.215668 
	C986.214233,204.657196 986.214172,204.657303 986.120300,216.504791 
	C986.109741,217.837646 986.100464,219.170502 986.088257,221.002884 
z"/>
<path fill="#000000" opacity="1.000000" stroke="none" 
	d="
M692.710327,251.946808 
	C692.802185,234.975677 692.803894,218.494019 693.027832,202.015396 
	C693.129211,194.559250 698.889099,191.104401 705.935059,193.933426 
	C707.397705,194.520691 707.996155,195.516693 707.735779,197.048035 
	C707.487366,198.508743 707.005615,199.962387 707.779724,201.867340 
	C713.138550,195.584747 719.802429,192.518555 727.934814,192.800858 
	C730.880249,192.903107 733.743469,192.764404 733.958069,196.912689 
	C734.268188,202.909134 732.750305,206.002777 728.546387,206.253738 
	C717.716492,206.900299 711.592468,212.923706 708.712036,222.896271 
	C707.676697,226.480804 708.167542,230.178070 708.130676,233.826233 
	C708.049988,241.816360 707.954346,249.809494 708.094971,257.797333 
	C708.161804,261.591919 706.783569,263.456421 702.876892,263.183167 
	C701.717712,263.102112 700.546448,263.212250 699.382202,263.180908 
	C693.640930,263.026550 692.794800,262.166718 692.715881,256.432892 
	C692.697510,255.101318 692.711609,253.769318 692.710327,251.946808 
z"/>
</svg>