<svg width="30" height="30" viewBox="0 0 30 30" fill="none" xmlns="http://www.w3.org/2000/svg">
<g clip-path="url(#clip0_419_2)">
<mask id="mask0_419_2" style="mask-type:luminance" maskUnits="userSpaceOnUse" x="0" y="0" width="30" height="30">
<path d="M30 0H0V30H30V0Z" fill="white"/>
</mask>
<g mask="url(#mask0_419_2)">
<path d="M24.0422 4.24689C23.8551 4.43457 23.6095 4.5527 23.346 4.58168C23.0826 4.61067 22.8172 4.54878 22.5937 4.40626C21.859 3.93786 20.9972 3.70846 20.1268 3.74959C19.2564 3.79072 18.4201 4.10035 17.7328 4.63595L14.6156 7.10157C14.3785 7.28893 14.0779 7.37701 13.7772 7.34729C13.4765 7.31756 13.199 7.17235 13.0031 6.9422C12.9007 6.82239 12.8236 6.68309 12.7765 6.53269C12.7294 6.38229 12.7133 6.22391 12.7291 6.06709C12.7448 5.91028 12.7922 5.75829 12.8683 5.62028C12.9444 5.48227 13.0477 5.3611 13.1719 5.26407C14.5781 4.14845 16.2937 2.7797 16.2937 2.7797C17.3636 1.95102 18.6634 1.47335 20.0153 1.41209C21.3672 1.35083 22.7049 1.70899 23.8453 2.43751C23.9918 2.53209 24.1154 2.65818 24.207 2.80657C24.2985 2.95497 24.3559 3.12194 24.3747 3.2953C24.3936 3.46867 24.3735 3.64406 24.316 3.80868C24.2585 3.9733 24.1649 4.12301 24.0422 4.24689Z" fill="#F2FAFF"/>
<path d="M27.9797 5.925L28.5937 4.6875C28.8244 4.22967 28.9032 3.71031 28.819 3.20465C28.7347 2.69899 28.4916 2.23329 28.125 1.875C27.7654 1.52251 27.3047 1.29106 26.8073 1.21291C26.3098 1.13476 25.8004 1.21382 25.35 1.43906L24.1078 2.05312C22.8841 1.26827 21.4473 0.881998 19.995 0.947476C18.5428 1.01295 17.1465 1.52696 15.9984 2.41875L9.51562 7.4625C8.99865 7.86439 8.39523 8.14042 7.75312 8.26875L2.59687 9.30469H2.48906L2.20781 9.375C2.14332 9.38864 2.08243 9.41573 2.02912 9.4545C1.97581 9.49327 1.93128 9.54285 1.89843 9.6C1.86562 9.62344 1.82812 9.64219 1.79999 9.67031C0.168748 11.3062 3.98437 16.8281 8.59687 21.4406L8.99999 21.8391C9.02571 22.9408 9.48151 23.9887 10.2699 24.7587C11.0583 25.5287 12.1167 25.9597 13.2187 25.9594C13.3974 25.9604 13.5759 25.9494 13.7531 25.9266C15.9375 27.5531 17.9812 28.5937 19.2937 28.5937C19.4886 28.605 19.6837 28.5767 19.8674 28.5107C20.051 28.4446 20.2194 28.3421 20.3625 28.2094C20.3909 28.1765 20.4176 28.1421 20.4422 28.1062C20.4966 28.0735 20.5437 28.03 20.5808 27.9784C20.6179 27.9268 20.6441 27.8683 20.6578 27.8062L21.7687 22.2609C21.8971 21.6188 22.1731 21.0154 22.575 20.4984L27.6187 14.0344C28.5098 12.8858 29.023 11.4893 29.0876 10.037C29.1523 8.58478 28.7652 7.14819 27.9797 5.925ZM25.7812 2.26875C26.0592 2.12863 26.3743 2.07993 26.6816 2.1296C26.9888 2.17927 27.2725 2.32476 27.4922 2.54531C27.7085 2.76568 27.8506 3.04817 27.8985 3.35327C27.9464 3.65836 27.8978 3.97079 27.7594 4.24687L27.3422 5.08125C27.2391 4.96406 27.1406 4.84687 27.0281 4.73906L25.2891 2.99531C25.1812 2.8875 25.0641 2.78437 24.9469 2.68125L25.7812 2.26875ZM2.46562 10.3125C2.50546 10.2751 2.55368 10.2478 2.60624 10.2328L2.77968 10.2H2.89687C3.41718 10.2 4.40624 10.4906 6.03749 11.4891C8.53173 13.1005 10.8368 14.9874 12.9094 17.1141L13.2984 17.5078H13.2187C12.2883 17.5077 11.3839 17.8151 10.6464 18.3822C9.90881 18.9494 9.37943 19.7445 9.14062 20.6437C3.96562 15.4687 1.72499 11.0766 2.46562 10.3125ZM13.2187 25.0219C12.966 25.0235 12.7141 24.9935 12.4687 24.9328C11.9557 24.8142 11.4787 24.5737 11.0781 24.2319C10.6775 23.89 10.365 23.4568 10.1672 22.9687C10.0138 22.5857 9.93583 22.1767 9.93749 21.7641C9.9375 21.6703 9.93749 21.5766 9.93749 21.4828C9.97742 20.9754 10.1349 20.4842 10.3973 20.0481C10.6598 19.612 11.0202 19.243 11.4499 18.9701C11.8796 18.6973 12.3668 18.5282 12.8732 18.4762C13.3795 18.4241 13.891 18.4906 14.3672 18.6703C14.7328 19.0687 15.0891 19.4719 15.4266 19.8656C15.7641 20.2594 16.0922 20.6531 16.4062 21.0375C16.4574 21.2668 16.4841 21.501 16.4859 21.7359C16.4856 22.4714 16.2383 23.1855 15.7835 23.7635C15.3287 24.3416 14.6929 24.7501 13.9781 24.9234C13.7298 24.9862 13.4749 25.0192 13.2187 25.0219ZM14.9156 25.6031C15.5746 25.3132 16.1484 24.8595 16.5824 24.2851C17.0164 23.7108 17.2963 23.0349 17.3953 22.3219C19.0266 24.5625 19.8422 26.3062 19.8375 27.1406L19.7719 27.4687C19.7541 27.5067 19.7304 27.5415 19.7016 27.5719C19.2516 28.0219 17.4422 27.3656 14.9156 25.6031ZM26.8781 13.4625L21.8344 19.9453C21.3441 20.5784 21.0072 21.3164 20.85 22.1016L20.2312 25.2C19.2908 23.2876 18.1059 21.5055 16.7062 19.8984L16.1625 19.2562L15.5906 18.6094C15.3937 18.3937 15.1969 18.1734 14.9953 17.9578C14.5266 17.4562 14.0578 16.9594 13.5891 16.4719C11.4676 14.2939 9.10916 12.36 6.55781 10.7062C6.02094 10.373 5.46358 10.074 4.88906 9.81094L7.97343 9.19219C8.75887 9.03596 9.49713 8.69893 10.1297 8.20781L16.575 3.15937C17.7473 2.24803 19.212 1.79609 20.694 1.88844C22.176 1.9808 23.5733 2.6111 24.6234 3.66094L26.3719 5.41406C27.4224 6.46356 28.0536 7.86054 28.1468 9.34256C28.24 10.8246 27.7889 12.2896 26.8781 13.4625Z" fill="#2395EC"/>
<path d="M19.0078 4.39687C19.0728 4.38577 19.1348 4.36109 19.1896 4.32442C19.2444 4.28775 19.2909 4.23992 19.3259 4.18407C19.361 4.12822 19.3839 4.06559 19.3931 4.00028C19.4023 3.93498 19.3977 3.86846 19.3794 3.80509C19.3612 3.74171 19.3297 3.6829 19.2872 3.63249C19.2447 3.58209 19.192 3.54123 19.1326 3.51258C19.0732 3.48393 19.0084 3.46814 18.9425 3.46624C18.8765 3.46434 18.811 3.47638 18.75 3.50156C18.1539 3.68276 17.5962 3.97194 17.1047 4.35468L15.2297 5.79374C15.1315 5.8702 15.0677 5.98254 15.0523 6.10605C15.0369 6.22956 15.0712 6.35412 15.1477 6.45234C15.2241 6.55055 15.3365 6.61437 15.46 6.62975C15.5835 6.64514 15.708 6.61082 15.8063 6.53437L17.6813 5.09531C18.0775 4.78404 18.527 4.54738 19.0078 4.39687ZM22.0922 4.11562C22.1111 4.05684 22.1183 3.99489 22.1132 3.93335C22.1081 3.8718 22.0909 3.81186 22.0626 3.75698C22.0343 3.70209 21.9954 3.65335 21.9482 3.61353C21.901 3.57372 21.8464 3.54363 21.7875 3.52499C21.4566 3.41881 21.1158 3.34656 20.7703 3.30937C20.7088 3.3029 20.6465 3.30863 20.5872 3.32621C20.5278 3.3438 20.4725 3.3729 20.4244 3.41186C20.3763 3.45082 20.3364 3.49886 20.3069 3.55326C20.2773 3.60766 20.2588 3.66734 20.2523 3.7289C20.2459 3.79046 20.2516 3.85268 20.2692 3.91203C20.2868 3.97137 20.3159 4.02667 20.3548 4.07477C20.3938 4.12287 20.4418 4.16282 20.4962 4.19235C20.5506 4.22188 20.6103 4.2404 20.6719 4.24687C20.9553 4.27789 21.2349 4.33757 21.5063 4.42499C21.565 4.44393 21.627 4.45106 21.6885 4.44599C21.7501 4.44091 21.81 4.42372 21.8649 4.39541C21.9198 4.3671 21.9685 4.32822 22.0083 4.28101C22.0481 4.23379 22.0782 4.17918 22.0969 4.12031L22.0922 4.11562ZM17.6859 17.2828C17.5963 17.206 17.4809 17.1659 17.3629 17.1705C17.245 17.175 17.1331 17.2239 17.0496 17.3074C16.9661 17.3909 16.9172 17.5028 16.9126 17.6208C16.9081 17.7387 16.9482 17.8541 17.025 17.9438L17.6859 18.6047C17.7756 18.6815 17.891 18.7216 18.0089 18.7171C18.1269 18.7125 18.2388 18.6636 18.3223 18.5801C18.4058 18.4966 18.4547 18.3847 18.4592 18.2667C18.4638 18.1488 18.4237 18.0334 18.3469 17.9438L17.6859 17.2828ZM19.3453 15.6281C19.2556 15.5513 19.1403 15.5112 19.0223 15.5158C18.9043 15.5203 18.7924 15.5692 18.709 15.6527C18.6255 15.7362 18.5766 15.8481 18.572 15.9661C18.5675 16.084 18.6076 16.1994 18.6844 16.2891L19.3453 16.95C19.435 17.0268 19.5503 17.0669 19.6683 17.0624C19.7863 17.0578 19.8982 17.0089 19.9817 16.9254C20.0652 16.8419 20.1141 16.73 20.1186 16.6121C20.1232 16.4941 20.083 16.3787 20.0063 16.2891L19.3453 15.6281ZM21.0047 13.9688C20.915 13.892 20.7997 13.8518 20.6817 13.8564C20.5637 13.8609 20.4518 13.9099 20.3683 13.9933C20.2849 14.0768 20.2359 14.1887 20.2314 14.3067C20.2268 14.4247 20.267 14.54 20.3438 14.6297L21.0047 15.2906C21.0944 15.3674 21.2097 15.4075 21.3277 15.403C21.4457 15.3984 21.5576 15.3495 21.641 15.266C21.7245 15.1826 21.7734 15.0707 21.778 14.9527C21.7826 14.8347 21.7424 14.7194 21.6656 14.6297L21.0047 13.9688ZM22.6594 12.3141C22.5697 12.2373 22.4544 12.1971 22.3364 12.2017C22.2184 12.2063 22.1065 12.2552 22.023 12.3386C21.9395 12.4221 21.8906 12.534 21.8861 12.652C21.8815 12.77 21.9216 12.8853 21.9984 12.975L22.6594 13.6359C22.7491 13.7127 22.8644 13.7529 22.9824 13.7483C23.1003 13.7437 23.2123 13.6948 23.2957 13.6114C23.3792 13.5279 23.4281 13.416 23.4327 13.298C23.4372 13.18 23.3971 13.0647 23.3203 12.975L22.6594 12.3141ZM24.3188 10.6547C24.2311 10.5664 24.112 10.5166 23.9876 10.5161C23.8632 10.5157 23.7437 10.5647 23.6555 10.6523C23.5672 10.74 23.5174 10.8591 23.5169 10.9835C23.5165 11.1079 23.5655 11.2274 23.6531 11.3156L24.3141 11.9813C24.4017 12.0695 24.5208 12.1194 24.6452 12.1198C24.7696 12.1202 24.8891 12.0712 24.9773 11.9836C25.0656 11.896 25.1154 11.7768 25.1159 11.6524C25.1163 11.5281 25.0673 11.4086 24.9797 11.3203L24.3188 10.6547ZM25.9734 8.99531C25.8852 8.90766 25.7657 8.85867 25.6413 8.85911C25.5169 8.85955 25.3978 8.90938 25.3102 8.99765C25.2225 9.08592 25.1735 9.20539 25.174 9.32978C25.1744 9.45416 25.2242 9.57328 25.3125 9.66093L25.9734 10.3125C26.0631 10.3893 26.1785 10.4294 26.2964 10.4249C26.4144 10.4203 26.5263 10.3714 26.6098 10.2879C26.6933 10.2044 26.7422 10.0925 26.7467 9.97455C26.7513 9.85658 26.7112 9.74123 26.6344 9.65156L25.9734 8.99531Z" fill="#2395EC"/>
</g>
</g>
<defs>
<clipPath id="clip0_419_2">
<rect width="30" height="30" fill="white"/>
</clipPath>
</defs>
</svg>
