<svg width="130" height="130" viewBox="0 0 130 130" fill="none" xmlns="http://www.w3.org/2000/svg">
<rect x="0" y="0" width="100%" height="100%" fill="#FFFFFF" />
<g><path fill="#DC4F4F" d="M64,128a64,64,0,1,1,64-64A64,64,0,0,1,64,128ZM64,2.75A61.25,61.25,0,1,0,125.25,64,61.25,61.25,0,0,0,64,2.75Z"/><path fill="#DC4F4F" d="M64 128a64 64 0 1 1 64-64 64 64 0 0 1-64 64zM64 2.75A61.2 61.2 0 0 0 3.34 72.4c1.28-3.52 3.9-6.32 7.5-6.86 6.55-1 11.9 2.63 13.6 8.08 3.52 11.27.5 23 15 35.25 19.47 16.46 40.34 13.54 52.84 9.46A61.25 61.25 0 0 0 64 2.75z"/>
<animateTransform attributeName="transform" type="rotate" from="0 64 64" to="360 64 64" dur="1800ms" repeatCount="indefinite"></animateTransform></g>

<svg x="28" y="42">
<path d="M2.91992 8.15234C4.22331 8.15234 4.87956 7.7194 4.88867 6.85352C4.88867 6.49805 4.63802 6.21549 4.13672 6.00586C3.91797 5.91471 3.66276 5.83268 3.37109 5.75977C3.08854 5.68685 2.80143 5.60938 2.50977 5.52734C2.2181 5.44531 1.92643 5.35417 1.63477 5.25391C1.3431 5.14453 1.08789 5.00781 0.869141 4.84375C0.376953 4.47005 0.126302 3.97786 0.117188 3.36719C0.117188 2.71094 0.367839 2.17318 0.869141 1.75391C1.4069 1.29818 2.12695 1.07031 3.0293 1.07031C3.84961 1.07031 4.58789 1.19336 5.24414 1.43945C5.45378 1.51237 5.56315 1.66276 5.57227 1.89062C5.57227 2 5.53125 2.10482 5.44922 2.20508C5.3763 2.30534 5.28971 2.35547 5.18945 2.35547C5.09831 2.35547 4.9707 2.32812 4.80664 2.27344C4.31445 2.10026 3.75846 2.01367 3.13867 2.01367C2.56445 2.01367 2.09049 2.12305 1.7168 2.3418C1.33398 2.56966 1.14258 2.88411 1.14258 3.28516C1.14258 3.70443 1.38867 4.02799 1.88086 4.25586C2.10872 4.35612 2.36393 4.44271 2.64648 4.51562C2.92904 4.57943 3.2207 4.64779 3.52148 4.7207C3.82227 4.79362 4.10938 4.88477 4.38281 4.99414C4.66536 5.0944 4.92057 5.22201 5.14844 5.37695C5.64062 5.73242 5.89128 6.25195 5.90039 6.93555C5.90039 7.57357 5.64062 8.0931 5.12109 8.49414C4.59245 8.9043 3.89518 9.10938 3.0293 9.10938C2.08138 9.10938 1.19271 8.93164 0.363281 8.57617C0.28125 8.53971 0.208333 8.48047 0.144531 8.39844C0.0807292 8.30729 0.0488281 8.20703 0.0488281 8.09766C0.0488281 7.98828 0.0898438 7.88802 0.171875 7.79688C0.253906 7.69661 0.345052 7.64648 0.445312 7.64648C0.554688 7.64648 0.686849 7.68294 0.841797 7.75586C1.00586 7.82878 1.27018 7.91536 1.63477 8.01562C1.99935 8.10677 2.42773 8.15234 2.91992 8.15234ZM7.33594 1.27539C7.33594 1.12956 7.38607 1.01107 7.48633 0.919922C7.58659 0.819661 7.70964 0.769531 7.85547 0.769531C8.0013 0.769531 8.11979 0.819661 8.21094 0.919922C8.3112 1.01107 8.36133 1.12956 8.36133 1.27539V8.54883C8.36133 8.68555 8.3112 8.80404 8.21094 8.9043C8.11979 9.00456 8.0013 9.05469 7.85547 9.05469C7.70964 9.05469 7.58659 9.00456 7.48633 8.9043C7.38607 8.80404 7.33594 8.68555 7.33594 8.54883V1.27539ZM12.7227 3.17578C13.5885 3.17578 14.2858 3.44922 14.8145 3.99609C15.3431 4.55208 15.5983 5.26758 15.5801 6.14258C15.5801 7.02669 15.3249 7.74219 14.8145 8.28906C14.2858 8.83594 13.5885 9.10938 12.7227 9.10938C11.8477 9.10938 11.1549 8.83594 10.6445 8.28906C10.1159 7.74219 9.85156 7.02669 9.85156 6.14258C9.85156 5.24935 10.1159 4.53385 10.6445 3.99609C11.1549 3.44922 11.8477 3.17578 12.7227 3.17578ZM11.4648 7.72852C11.6471 7.88346 11.8477 7.9974 12.0664 8.07031C12.2943 8.14323 12.513 8.17969 12.7227 8.17969C12.9323 8.17969 13.1465 8.14323 13.3652 8.07031C13.584 7.9974 13.7845 7.87891 13.9668 7.71484C14.3678 7.35026 14.5684 6.82161 14.5684 6.12891C14.5684 5.45443 14.3678 4.93034 13.9668 4.55664C13.6296 4.24674 13.2148 4.09635 12.7227 4.10547C11.9115 4.10547 11.3509 4.47005 11.041 5.19922C10.9316 5.46354 10.877 5.77799 10.877 6.14258C10.877 6.50716 10.9316 6.82161 11.041 7.08594C11.1504 7.35026 11.2917 7.56445 11.4648 7.72852ZM23.6738 3.53125C23.7285 3.33073 23.888 3.23047 24.1523 3.23047C24.2799 3.23047 24.3893 3.2806 24.4805 3.38086C24.5807 3.47201 24.6309 3.57227 24.6309 3.68164C24.6309 3.7819 24.6217 3.86393 24.6035 3.92773L23.0176 8.58984C22.972 8.71745 22.89 8.82682 22.7715 8.91797C22.653 9.00911 22.5163 9.05469 22.3613 9.05469C22.2155 9.05469 22.0788 9.00911 21.9512 8.91797C21.8327 8.82682 21.7507 8.71289 21.7051 8.57617L20.5156 4.87109L19.3262 8.57617C19.2715 8.70378 19.1849 8.81771 19.0664 8.91797C18.9479 9.00911 18.8112 9.05469 18.6562 9.05469C18.5104 9.05469 18.3783 9.00911 18.2598 8.91797C18.1413 8.82682 18.0592 8.71745 18.0137 8.58984L16.4277 3.92773C16.4095 3.86393 16.4004 3.7819 16.4004 3.68164C16.4004 3.57227 16.446 3.47201 16.5371 3.38086C16.6374 3.2806 16.7513 3.23047 16.8789 3.23047C17.1432 3.23047 17.3027 3.33073 17.3574 3.53125L18.6562 7.85156L19.9688 3.64062C20.0052 3.52214 20.0736 3.42643 20.1738 3.35352C20.2741 3.27148 20.388 3.23047 20.5156 3.23047C20.6432 3.23047 20.7572 3.26693 20.8574 3.33984C20.9577 3.41276 21.026 3.51302 21.0625 3.64062L22.3613 7.85156L23.6738 3.53125ZM31.7949 4.11914C31.1387 4.11914 30.5234 4.47917 29.9492 5.19922V8.54883C29.9492 8.68555 29.8991 8.80404 29.7988 8.9043C29.6986 9.00456 29.5801 9.05469 29.4434 9.05469C29.3066 9.05469 29.1882 9.00456 29.0879 8.9043C28.9876 8.80404 28.9375 8.68555 28.9375 8.54883V3.75C28.9375 3.60417 28.9831 3.48112 29.0742 3.38086C29.1745 3.2806 29.2975 3.23047 29.4434 3.23047C29.5801 3.23047 29.6986 3.2806 29.7988 3.38086C29.8991 3.47201 29.9492 3.59505 29.9492 3.75V4.21484C30.25 3.90495 30.5098 3.68164 30.7285 3.54492C31.1478 3.29883 31.5488 3.17578 31.9316 3.17578C32.3236 3.17578 32.6426 3.23503 32.8887 3.35352C33.1348 3.46289 33.3444 3.6224 33.5176 3.83203C33.8639 4.24219 34.0371 4.7526 34.0371 5.36328V8.54883C34.0371 8.68555 33.987 8.80404 33.8867 8.9043C33.7865 9.00456 33.668 9.05469 33.5312 9.05469C33.3945 9.05469 33.276 9.00456 33.1758 8.9043C33.0755 8.80404 33.0254 8.68555 33.0254 8.54883V5.47266C33.0254 5.05339 32.9297 4.72526 32.7383 4.48828C32.5469 4.24219 32.2324 4.11914 31.7949 4.11914ZM36.4297 6.51172C36.4935 7.01302 36.6849 7.41406 37.0039 7.71484C37.332 8.00651 37.7786 8.15234 38.3438 8.15234C38.918 8.15234 39.4056 8.0612 39.8066 7.87891C39.9342 7.8151 40.0482 7.7832 40.1484 7.7832C40.2487 7.77409 40.3398 7.81055 40.4219 7.89258C40.513 7.97461 40.5586 8.06576 40.5586 8.16602C40.5586 8.36654 40.4766 8.50781 40.3125 8.58984C40.1576 8.67188 40.0163 8.74479 39.8887 8.80859C39.7611 8.8724 39.6243 8.92708 39.4785 8.97266C39.1413 9.0638 38.7493 9.10938 38.3027 9.10938C37.3822 9.10938 36.6667 8.85417 36.1562 8.34375C35.6549 7.82422 35.4043 7.09049 35.4043 6.14258C35.4043 5.32227 35.6185 4.63867 36.0469 4.0918C36.5299 3.48112 37.209 3.17578 38.084 3.17578C38.9225 3.17578 39.5833 3.45833 40.0664 4.02344C40.5221 4.55208 40.75 5.21289 40.75 6.00586C40.75 6.14258 40.6999 6.26107 40.5996 6.36133C40.5085 6.46159 40.39 6.51172 40.2441 6.51172H36.4297ZM38.084 4.03711C37.4186 4.03711 36.9355 4.33333 36.6348 4.92578C36.5254 5.13542 36.457 5.38607 36.4297 5.67773H39.7383C39.7109 5.14909 39.515 4.72982 39.1504 4.41992C38.8587 4.16471 38.5033 4.03711 38.084 4.03711ZM44.1953 8.20703C44.3958 8.20703 44.5371 8.19336 44.6191 8.16602C44.7103 8.12956 44.806 8.11133 44.9062 8.11133C45.0065 8.11133 45.0977 8.15234 45.1797 8.23438C45.2617 8.30729 45.3027 8.42122 45.3027 8.57617C45.3027 8.72201 45.2298 8.82682 45.084 8.89062C44.765 9.03646 44.4915 9.10938 44.2637 9.10938C44.0358 9.10938 43.8262 9.0957 43.6348 9.06836C43.4525 9.05013 43.2747 8.99089 43.1016 8.89062C42.6914 8.65365 42.4863 8.23438 42.4863 7.63281V4.16016H41.6934C41.5566 4.16016 41.4837 4.08724 41.4746 3.94141C41.4746 3.8776 41.5111 3.81836 41.584 3.76367L43.1016 2.27344C43.1654 2.20964 43.2292 2.17773 43.293 2.17773C43.3568 2.16862 43.4069 2.18685 43.4434 2.23242C43.4798 2.27799 43.498 2.33268 43.498 2.39648V3.28516H44.7695C44.8971 3.28516 45.002 3.32617 45.084 3.4082C45.166 3.49023 45.207 3.59505 45.207 3.72266C45.207 3.85026 45.166 3.95508 45.084 4.03711C45.002 4.11914 44.8971 4.16016 44.7695 4.16016H43.498V7.55078C43.498 7.83333 43.5846 8.02474 43.7578 8.125C43.849 8.17969 43.9948 8.20703 44.1953 8.20703ZM53.082 3.53125C53.1367 3.33073 53.2962 3.23047 53.5605 3.23047C53.6882 3.23047 53.7975 3.2806 53.8887 3.38086C53.9889 3.47201 54.0391 3.57227 54.0391 3.68164C54.0391 3.7819 54.0299 3.86393 54.0117 3.92773L52.4258 8.58984C52.3802 8.71745 52.2982 8.82682 52.1797 8.91797C52.0612 9.00911 51.9245 9.05469 51.7695 9.05469C51.6237 9.05469 51.487 9.00911 51.3594 8.91797C51.2409 8.82682 51.1589 8.71289 51.1133 8.57617L49.9238 4.87109L48.7344 8.57617C48.6797 8.70378 48.5931 8.81771 48.4746 8.91797C48.3561 9.00911 48.2194 9.05469 48.0645 9.05469C47.9186 9.05469 47.7865 9.00911 47.668 8.91797C47.5495 8.82682 47.4674 8.71745 47.4219 8.58984L45.8359 3.92773C45.8177 3.86393 45.8086 3.7819 45.8086 3.68164C45.8086 3.57227 45.8542 3.47201 45.9453 3.38086C46.0456 3.2806 46.1595 3.23047 46.2871 3.23047C46.5514 3.23047 46.7109 3.33073 46.7656 3.53125L48.0645 7.85156L49.377 3.64062C49.4134 3.52214 49.4818 3.42643 49.582 3.35352C49.6823 3.27148 49.7962 3.23047 49.9238 3.23047C50.0514 3.23047 50.1654 3.26693 50.2656 3.33984C50.3659 3.41276 50.4342 3.51302 50.4707 3.64062L51.7695 7.85156L53.082 3.53125ZM57.7031 3.17578C58.569 3.17578 59.2663 3.44922 59.7949 3.99609C60.3236 4.55208 60.5788 5.26758 60.5605 6.14258C60.5605 7.02669 60.3053 7.74219 59.7949 8.28906C59.2663 8.83594 58.569 9.10938 57.7031 9.10938C56.8281 9.10938 56.1354 8.83594 55.625 8.28906C55.0964 7.74219 54.832 7.02669 54.832 6.14258C54.832 5.24935 55.0964 4.53385 55.625 3.99609C56.1354 3.44922 56.8281 3.17578 57.7031 3.17578ZM56.4453 7.72852C56.6276 7.88346 56.8281 7.9974 57.0469 8.07031C57.2747 8.14323 57.4935 8.17969 57.7031 8.17969C57.9128 8.17969 58.127 8.14323 58.3457 8.07031C58.5645 7.9974 58.765 7.87891 58.9473 7.71484C59.3483 7.35026 59.5488 6.82161 59.5488 6.12891C59.5488 5.45443 59.3483 4.93034 58.9473 4.55664C58.61 4.24674 58.1953 4.09635 57.7031 4.10547C56.8919 4.10547 56.3314 4.47005 56.0215 5.19922C55.9121 5.46354 55.8574 5.77799 55.8574 6.14258C55.8574 6.50716 55.9121 6.82161 56.0215 7.08594C56.1309 7.35026 56.2721 7.56445 56.4453 7.72852ZM62.9941 4.22852C63.5228 3.52669 64.1107 3.17578 64.7578 3.17578H64.8125C64.9492 3.17578 65.0632 3.22591 65.1543 3.32617C65.2546 3.41732 65.3047 3.53581 65.3047 3.68164C65.3047 3.82747 65.2546 3.94596 65.1543 4.03711C65.054 4.11914 64.931 4.16016 64.7852 4.16016H64.7305C64.3568 4.16016 64.0241 4.2513 63.7324 4.43359C63.4408 4.61589 63.1947 4.85286 62.9941 5.14453V8.54883C62.9941 8.68555 62.944 8.80404 62.8438 8.9043C62.7435 9.00456 62.625 9.05469 62.4883 9.05469C62.3516 9.05469 62.2331 9.00456 62.1328 8.9043C62.0326 8.80404 61.9824 8.68555 61.9824 8.54883V3.75C61.9824 3.61328 62.028 3.49479 62.1191 3.39453C62.2194 3.28516 62.3424 3.23047 62.4883 3.23047C62.625 3.23047 62.7435 3.2806 62.8438 3.38086C62.944 3.48112 62.9941 3.60417 62.9941 3.75V4.22852ZM71.0332 8.26172C71.1061 8.35286 71.1426 8.4668 71.1426 8.60352C71.1426 8.73112 71.0924 8.84049 70.9922 8.93164C70.901 9.01367 70.7962 9.05469 70.6777 9.05469C70.4954 9.05469 70.3405 8.98633 70.2129 8.84961L68.2852 6.22461L67.3145 7.11328V8.54883C67.3145 8.68555 67.2643 8.80404 67.1641 8.9043C67.0638 9.00456 66.9453 9.05469 66.8086 9.05469C66.6719 9.05469 66.5534 9.00456 66.4531 8.9043C66.3529 8.80404 66.3027 8.68555 66.3027 8.54883V1.27539C66.3027 1.13867 66.3483 1.02018 66.4395 0.919922C66.5397 0.819661 66.6628 0.769531 66.8086 0.769531C66.9453 0.769531 67.0638 0.819661 67.1641 0.919922C67.2643 1.02018 67.3145 1.13867 67.3145 1.27539V5.85547L69.9805 3.39453C70.099 3.30339 70.2311 3.25781 70.377 3.25781C70.5319 3.25781 70.6413 3.3125 70.7051 3.42188C70.778 3.52214 70.8145 3.61328 70.8145 3.69531C70.8145 3.85938 70.7507 4.00521 70.623 4.13281L69.0098 5.58203L71.0332 8.26172ZM17.125 23.1758C17.9909 23.1758 18.6882 23.4492 19.2168 23.9961C19.7454 24.5521 20.0007 25.2676 19.9824 26.1426C19.9824 27.0267 19.7272 27.7422 19.2168 28.2891C18.6882 28.8359 17.9909 29.1094 17.125 29.1094C16.25 29.1094 15.5573 28.8359 15.0469 28.2891C14.5182 27.7422 14.2539 27.0267 14.2539 26.1426C14.2539 25.2493 14.5182 24.5339 15.0469 23.9961C15.5573 23.4492 16.25 23.1758 17.125 23.1758ZM15.8672 27.7285C16.0495 27.8835 16.25 27.9974 16.4688 28.0703C16.6966 28.1432 16.9154 28.1797 17.125 28.1797C17.3346 28.1797 17.5488 28.1432 17.7676 28.0703C17.9863 27.9974 18.1868 27.8789 18.3691 27.7148C18.7702 27.3503 18.9707 26.8216 18.9707 26.1289C18.9707 25.4544 18.7702 24.9303 18.3691 24.5566C18.0319 24.2467 17.6172 24.0964 17.125 24.1055C16.3138 24.1055 15.7533 24.4701 15.4434 25.1992C15.334 25.4635 15.2793 25.778 15.2793 26.1426C15.2793 26.5072 15.334 26.8216 15.4434 27.0859C15.5527 27.3503 15.694 27.5645 15.8672 27.7285ZM22.416 24.2285C22.9447 23.5267 23.5326 23.1758 24.1797 23.1758H24.2344C24.3711 23.1758 24.485 23.2259 24.5762 23.3262C24.6764 23.4173 24.7266 23.5358 24.7266 23.6816C24.7266 23.8275 24.6764 23.946 24.5762 24.0371C24.4759 24.1191 24.3529 24.1602 24.207 24.1602H24.1523C23.7786 24.1602 23.446 24.2513 23.1543 24.4336C22.8626 24.6159 22.6165 24.8529 22.416 25.1445V28.5488C22.416 28.6855 22.3659 28.804 22.2656 28.9043C22.1654 29.0046 22.0469 29.0547 21.9102 29.0547C21.7734 29.0547 21.6549 29.0046 21.5547 28.9043C21.4544 28.804 21.4043 28.6855 21.4043 28.5488V23.75C21.4043 23.6133 21.4499 23.4948 21.541 23.3945C21.6413 23.2852 21.7643 23.2305 21.9102 23.2305C22.0469 23.2305 22.1654 23.2806 22.2656 23.3809C22.3659 23.4811 22.416 23.6042 22.416 23.75V24.2285ZM29.5664 26.5117C29.6302 27.013 29.8216 27.4141 30.1406 27.7148C30.4688 28.0065 30.9154 28.1523 31.4805 28.1523C32.0547 28.1523 32.5423 28.0612 32.9434 27.8789C33.071 27.8151 33.1849 27.7832 33.2852 27.7832C33.3854 27.7741 33.4766 27.8105 33.5586 27.8926C33.6497 27.9746 33.6953 28.0658 33.6953 28.166C33.6953 28.3665 33.6133 28.5078 33.4492 28.5898C33.2943 28.6719 33.153 28.7448 33.0254 28.8086C32.8978 28.8724 32.7611 28.9271 32.6152 28.9727C32.278 29.0638 31.8861 29.1094 31.4395 29.1094C30.5189 29.1094 29.8034 28.8542 29.293 28.3438C28.7917 27.8242 28.541 27.0905 28.541 26.1426C28.541 25.3223 28.7552 24.6387 29.1836 24.0918C29.6667 23.4811 30.3457 23.1758 31.2207 23.1758C32.0592 23.1758 32.7201 23.4583 33.2031 24.0234C33.6589 24.5521 33.8867 25.2129 33.8867 26.0059C33.8867 26.1426 33.8366 26.2611 33.7363 26.3613C33.6452 26.4616 33.5267 26.5117 33.3809 26.5117H29.5664ZM31.2207 24.0371C30.5553 24.0371 30.0723 24.3333 29.7715 24.9258C29.6621 25.1354 29.5938 25.3861 29.5664 25.6777H32.875C32.8477 25.1491 32.6517 24.7298 32.2871 24.4199C31.9954 24.1647 31.64 24.0371 31.2207 24.0371ZM36.2656 24.2285C36.7943 23.5267 37.3822 23.1758 38.0293 23.1758H38.084C38.2207 23.1758 38.3346 23.2259 38.4258 23.3262C38.526 23.4173 38.5762 23.5358 38.5762 23.6816C38.5762 23.8275 38.526 23.946 38.4258 24.0371C38.3255 24.1191 38.2025 24.1602 38.0566 24.1602H38.002C37.6283 24.1602 37.2956 24.2513 37.0039 24.4336C36.7122 24.6159 36.4661 24.8529 36.2656 25.1445V28.5488C36.2656 28.6855 36.2155 28.804 36.1152 28.9043C36.015 29.0046 35.8965 29.0547 35.7598 29.0547C35.623 29.0547 35.5046 29.0046 35.4043 28.9043C35.304 28.804 35.2539 28.6855 35.2539 28.5488V23.75C35.2539 23.6133 35.2995 23.4948 35.3906 23.3945C35.4909 23.2852 35.6139 23.2305 35.7598 23.2305C35.8965 23.2305 36.015 23.2806 36.1152 23.3809C36.2155 23.4811 36.2656 23.6042 36.2656 23.75V24.2285ZM40.5859 24.2285C41.1146 23.5267 41.7025 23.1758 42.3496 23.1758H42.4043C42.541 23.1758 42.6549 23.2259 42.7461 23.3262C42.8464 23.4173 42.8965 23.5358 42.8965 23.6816C42.8965 23.8275 42.8464 23.946 42.7461 24.0371C42.6458 24.1191 42.5228 24.1602 42.377 24.1602H42.3223C41.9486 24.1602 41.6159 24.2513 41.3242 24.4336C41.0326 24.6159 40.7865 24.8529 40.5859 25.1445V28.5488C40.5859 28.6855 40.5358 28.804 40.4355 28.9043C40.3353 29.0046 40.2168 29.0547 40.0801 29.0547C39.9434 29.0547 39.8249 29.0046 39.7246 28.9043C39.6243 28.804 39.5742 28.6855 39.5742 28.5488V23.75C39.5742 23.6133 39.6198 23.4948 39.7109 23.3945C39.8112 23.2852 39.9342 23.2305 40.0801 23.2305C40.2168 23.2305 40.3353 23.2806 40.4355 23.3809C40.5358 23.4811 40.5859 23.6042 40.5859 23.75V24.2285ZM46.4102 23.1758C47.276 23.1758 47.9733 23.4492 48.502 23.9961C49.0306 24.5521 49.2858 25.2676 49.2676 26.1426C49.2676 27.0267 49.0124 27.7422 48.502 28.2891C47.9733 28.8359 47.276 29.1094 46.4102 29.1094C45.5352 29.1094 44.8424 28.8359 44.332 28.2891C43.8034 27.7422 43.5391 27.0267 43.5391 26.1426C43.5391 25.2493 43.8034 24.5339 44.332 23.9961C44.8424 23.4492 45.5352 23.1758 46.4102 23.1758ZM45.1523 27.7285C45.3346 27.8835 45.5352 27.9974 45.7539 28.0703C45.9818 28.1432 46.2005 28.1797 46.4102 28.1797C46.6198 28.1797 46.834 28.1432 47.0527 28.0703C47.2715 27.9974 47.472 27.8789 47.6543 27.7148C48.0553 27.3503 48.2559 26.8216 48.2559 26.1289C48.2559 25.4544 48.0553 24.9303 47.6543 24.5566C47.3171 24.2467 46.9023 24.0964 46.4102 24.1055C45.599 24.1055 45.0384 24.4701 44.7285 25.1992C44.6191 25.4635 44.5645 25.778 44.5645 26.1426C44.5645 26.5072 44.6191 26.8216 44.7285 27.0859C44.8379 27.3503 44.9792 27.5645 45.1523 27.7285ZM51.7012 24.2285C52.2298 23.5267 52.8177 23.1758 53.4648 23.1758H53.5195C53.6562 23.1758 53.7702 23.2259 53.8613 23.3262C53.9616 23.4173 54.0117 23.5358 54.0117 23.6816C54.0117 23.8275 53.9616 23.946 53.8613 24.0371C53.7611 24.1191 53.638 24.1602 53.4922 24.1602H53.4375C53.0638 24.1602 52.7311 24.2513 52.4395 24.4336C52.1478 24.6159 51.9017 24.8529 51.7012 25.1445V28.5488C51.7012 28.6855 51.651 28.804 51.5508 28.9043C51.4505 29.0046 51.332 29.0547 51.1953 29.0547C51.0586 29.0547 50.9401 29.0046 50.8398 28.9043C50.7396 28.804 50.6895 28.6855 50.6895 28.5488V23.75C50.6895 23.6133 50.735 23.4948 50.8262 23.3945C50.9264 23.2852 51.0495 23.2305 51.1953 23.2305C51.332 23.2305 51.4505 23.2806 51.5508 23.3809C51.651 23.4811 51.7012 23.6042 51.7012 23.75V24.2285ZM16.5986 41.2754C16.5986 41.1296 16.6488 41.0111 16.749 40.9199C16.8493 40.8197 16.9723 40.7695 17.1182 40.7695C17.264 40.7695 17.3825 40.8197 17.4736 40.9199C17.5739 41.0111 17.624 41.1296 17.624 41.2754V48.5488C17.624 48.6855 17.5739 48.804 17.4736 48.9043C17.3825 49.0046 17.264 49.0547 17.1182 49.0547C16.9723 49.0547 16.8493 49.0046 16.749 48.9043C16.6488 48.804 16.5986 48.6855 16.5986 48.5488V41.2754ZM21.9854 43.1758C22.8512 43.1758 23.5485 43.4492 24.0771 43.9961C24.6058 44.5521 24.861 45.2676 24.8428 46.1426C24.8428 47.0267 24.5876 47.7422 24.0771 48.2891C23.5485 48.8359 22.8512 49.1094 21.9854 49.1094C21.1104 49.1094 20.4176 48.8359 19.9072 48.2891C19.3786 47.7422 19.1143 47.0267 19.1143 46.1426C19.1143 45.2493 19.3786 44.5339 19.9072 43.9961C20.4176 43.4492 21.1104 43.1758 21.9854 43.1758ZM20.7275 47.7285C20.9098 47.8835 21.1104 47.9974 21.3291 48.0703C21.557 48.1432 21.7757 48.1797 21.9854 48.1797C22.195 48.1797 22.4092 48.1432 22.6279 48.0703C22.8467 47.9974 23.0472 47.8789 23.2295 47.7148C23.6305 47.3503 23.8311 46.8216 23.8311 46.1289C23.8311 45.4544 23.6305 44.9303 23.2295 44.5566C22.8923 44.2467 22.4775 44.0964 21.9854 44.1055C21.1742 44.1055 20.6136 44.4701 20.3037 45.1992C20.1943 45.4635 20.1396 45.778 20.1396 46.1426C20.1396 46.5072 20.1943 46.8216 20.3037 47.0859C20.4131 47.3503 20.5544 47.5645 20.7275 47.7285ZM26.4697 43.5723C27.0986 43.2988 27.7503 43.1667 28.4248 43.1758C29.1813 43.1758 29.7692 43.4082 30.1885 43.873C30.5622 44.2741 30.7536 44.7754 30.7627 45.377V48.5488C30.7627 48.6855 30.708 48.804 30.5986 48.9043C30.4984 49.0046 30.3753 49.0547 30.2295 49.0547C30.0928 49.0547 29.9743 49.0046 29.874 48.9043C29.7738 48.804 29.7236 48.6855 29.7236 48.5488V48.2617C29.5231 48.4714 29.2542 48.6673 28.917 48.8496C28.5798 49.0228 28.1514 49.1094 27.6318 49.1094C27.1123 49.1094 26.6794 48.959 26.333 48.6582C25.9775 48.3483 25.7998 47.9427 25.7998 47.4414C25.7998 46.8854 26.0094 46.4479 26.4287 46.1289C26.8844 45.7826 27.5316 45.6139 28.3701 45.623H29.7236V45.5273C29.7236 45.026 29.6006 44.6706 29.3545 44.4609C29.1175 44.2513 28.7438 44.1465 28.2334 44.1465C27.805 44.1465 27.3083 44.2331 26.7432 44.4062C26.6885 44.4245 26.6201 44.4336 26.5381 44.4336C26.4652 44.4336 26.3877 44.3971 26.3057 44.3242C26.2236 44.2422 26.1781 44.1191 26.1689 43.9551C26.1689 43.7819 26.2692 43.6543 26.4697 43.5723ZM26.8252 47.3184C26.8252 47.9199 27.2217 48.2161 28.0146 48.207C28.361 48.207 28.6846 48.125 28.9854 47.9609C29.2952 47.7878 29.5413 47.5964 29.7236 47.3867V46.4434H28.5205C27.9919 46.4434 27.5771 46.5117 27.2764 46.6484C26.9756 46.776 26.8252 46.9993 26.8252 47.3184ZM36.751 48.2617C36.195 48.8268 35.557 49.1094 34.8369 49.1094C34.126 49.1094 33.5062 48.8587 32.9775 48.3574C32.4124 47.7923 32.1253 47.054 32.1162 46.1426C32.1162 45.2493 32.4033 44.5156 32.9775 43.9414C33.4971 43.4219 34.1169 43.1667 34.8369 43.1758C35.557 43.1758 36.195 43.4583 36.751 44.0234V41.2754C36.751 41.1296 36.7965 41.0111 36.8877 40.9199C36.988 40.8197 37.111 40.7695 37.2568 40.7695C37.4027 40.7695 37.5212 40.8197 37.6123 40.9199C37.7126 41.0111 37.7627 41.1296 37.7627 41.2754V48.5488C37.7627 48.6855 37.7126 48.804 37.6123 48.9043C37.5212 49.0046 37.4027 49.0547 37.2568 49.0547C37.111 49.0547 36.988 49.0046 36.8877 48.9043C36.7965 48.804 36.751 48.6855 36.751 48.5488V48.2617ZM36.751 44.9668C36.2406 44.4017 35.6481 44.1237 34.9736 44.1328C34.1169 44.1328 33.5563 44.5111 33.292 45.2676C33.2008 45.5228 33.1507 45.8145 33.1416 46.1426C33.1416 46.7806 33.3148 47.2865 33.6611 47.6602C33.9801 47.9974 34.4176 48.1615 34.9736 48.1523C35.6481 48.1523 36.2406 47.8743 36.751 47.3184V44.9668ZM39.5674 43.75C39.5674 43.5951 39.6175 43.472 39.7178 43.3809C39.818 43.2806 39.9411 43.2305 40.0869 43.2305C40.2327 43.2305 40.3512 43.2806 40.4424 43.3809C40.5335 43.472 40.5791 43.5951 40.5791 43.75V48.5488C40.5791 48.6855 40.5335 48.804 40.4424 48.9043C40.3512 49.0046 40.2327 49.0547 40.0869 49.0547C39.9411 49.0547 39.818 49.0046 39.7178 48.9043C39.6175 48.804 39.5674 48.6855 39.5674 48.5488V43.75ZM40.6885 41.5488C40.6885 41.7129 40.6338 41.8496 40.5244 41.959C40.415 42.0684 40.2783 42.123 40.1143 42.123H40.0459C39.8818 42.123 39.7451 42.0684 39.6357 41.959C39.5355 41.8496 39.4854 41.7129 39.4854 41.5488V41.5078C39.4854 41.3438 39.54 41.207 39.6494 41.0977C39.7588 40.9883 39.891 40.9336 40.0459 40.9336H40.1143C40.2783 40.9336 40.415 40.9883 40.5244 41.0977C40.6338 41.207 40.6885 41.3438 40.6885 41.5078V41.5488ZM45.2549 44.1191C44.5986 44.1191 43.9834 44.4792 43.4092 45.1992V48.5488C43.4092 48.6855 43.359 48.804 43.2588 48.9043C43.1585 49.0046 43.04 49.0547 42.9033 49.0547C42.7666 49.0547 42.6481 49.0046 42.5479 48.9043C42.4476 48.804 42.3975 48.6855 42.3975 48.5488V43.75C42.3975 43.6042 42.443 43.4811 42.5342 43.3809C42.6344 43.2806 42.7575 43.2305 42.9033 43.2305C43.04 43.2305 43.1585 43.2806 43.2588 43.3809C43.359 43.472 43.4092 43.5951 43.4092 43.75V44.2148C43.71 43.9049 43.9697 43.6816 44.1885 43.5449C44.6077 43.2988 45.0088 43.1758 45.3916 43.1758C45.7835 43.1758 46.1025 43.235 46.3486 43.3535C46.5947 43.4629 46.8044 43.6224 46.9775 43.832C47.3239 44.2422 47.4971 44.7526 47.4971 45.3633V48.5488C47.4971 48.6855 47.4469 48.804 47.3467 48.9043C47.2464 49.0046 47.1279 49.0547 46.9912 49.0547C46.8545 49.0547 46.736 49.0046 46.6357 48.9043C46.5355 48.804 46.4854 48.6855 46.4854 48.5488V45.4727C46.4854 45.0534 46.3896 44.7253 46.1982 44.4883C46.0068 44.2422 45.6924 44.1191 45.2549 44.1191ZM53.4854 44.0234V43.75C53.4854 43.6133 53.5309 43.4948 53.6221 43.3945C53.7223 43.2852 53.8408 43.2305 53.9775 43.2305C54.1143 43.2305 54.2327 43.2806 54.333 43.3809C54.4424 43.4811 54.4971 43.6042 54.4971 43.75V48.7539C54.4971 49.7018 54.2692 50.4264 53.8135 50.9277C53.3577 51.4382 52.7106 51.6934 51.8721 51.6934C50.9788 51.6934 50.1768 51.4974 49.4658 51.1055C49.3382 51.0234 49.2744 50.9095 49.2744 50.7637C49.2744 50.6178 49.3154 50.4948 49.3975 50.3945C49.4886 50.3034 49.5798 50.2578 49.6709 50.2578C49.762 50.2578 49.8441 50.2715 49.917 50.2988C50.4821 50.5814 51.0973 50.7227 51.7627 50.7227C52.9111 50.7227 53.4854 50.1165 53.4854 48.9043V48.1523C52.9567 48.7174 52.3187 49 51.5713 49C50.8604 49 50.2497 48.7585 49.7393 48.2754C49.1468 47.7285 48.8506 46.9993 48.8506 46.0879C48.8506 45.1673 49.1468 44.4336 49.7393 43.8867C50.2497 43.4036 50.8695 43.1667 51.5986 43.1758C52.3278 43.1758 52.9567 43.4583 53.4854 44.0234ZM53.4854 44.9258C53.2757 44.707 53.0342 44.5156 52.7607 44.3516C52.4964 44.1875 52.2002 44.1055 51.8721 44.1055C51.5439 44.1055 51.2614 44.1465 51.0244 44.2285C50.7965 44.3105 50.596 44.4336 50.4229 44.5977C50.0583 44.944 49.876 45.4408 49.876 46.0879C49.876 47.054 50.2588 47.6738 51.0244 47.9473C51.2614 48.0293 51.5439 48.0703 51.8721 48.0703C52.4189 48.0703 52.9567 47.7923 53.4854 47.2363V44.9258Z" fill="#DC4F4F"/>
</svg>
</svg>