<svg width="130" height="130" viewBox="0 0 130 130" fill="none" xmlns="http://www.w3.org/2000/svg">
<rect x="0" y="0" width="100%" height="100%" fill="#FFFFFF" />
<g><path fill="#168CD0" d="M64,128a64,64,0,1,1,64-64A64,64,0,0,1,64,128ZM64,2.75A61.25,61.25,0,1,0,125.25,64,61.25,61.25,0,0,0,64,2.75Z"/><path fill="#00b7ff" d="M64 128a64 64 0 1 1 64-64 64 64 0 0 1-64 64zM64 2.75A61.2 61.2 0 0 0 3.34 72.4c1.28-3.52 3.9-6.32 7.5-6.86 6.55-1 11.9 2.63 13.6 8.08 3.52 11.27.5 23 15 35.25 19.47 16.46 40.34 13.54 52.84 9.46A61.25 61.25 0 0 0 64 2.75z"/>
<animateTransform attributeName="transform" type="rotate" from="0 64 64" to="360 64 64" dur="1800ms" repeatCount="indefinite"></animateTransform></g>

<svg x="31" y="42">
<path d="M9.06641 26.4102C9.29557 26.4102 9.48177 26.4889 9.625 26.6465C9.78255 26.7897 9.86133 26.9759 9.86133 27.2051C9.86133 27.4199 9.78255 27.6061 9.625 27.7637C9.48177 27.9212 9.29557 28 9.06641 28H2.81445C2.49935 28 2.23438 27.8926 2.01953 27.6777C1.80469 27.4629 1.69727 27.1979 1.69727 26.8828V16.4414C1.69727 16.2266 1.77604 16.0404 1.93359 15.8828C2.09115 15.7109 2.27734 15.625 2.49219 15.625C2.70703 15.625 2.89323 15.7038 3.05078 15.8613C3.22266 16.0189 3.30859 16.2122 3.30859 16.4414V26.4102H9.06641ZM15.4688 18.8477C16.8294 18.8477 17.9251 19.2773 18.7559 20.1367C19.5866 21.0104 19.9876 22.1348 19.959 23.5098C19.959 24.8991 19.5579 26.0234 18.7559 26.8828C17.9251 27.7422 16.8294 28.1719 15.4688 28.1719C14.0938 28.1719 13.0052 27.7422 12.2031 26.8828C11.3724 26.0234 10.957 24.8991 10.957 23.5098C10.957 22.1061 11.3724 20.9818 12.2031 20.1367C13.0052 19.2773 14.0938 18.8477 15.4688 18.8477ZM13.4922 26.002C13.7786 26.2454 14.0938 26.4245 14.4375 26.5391C14.7956 26.6536 15.1393 26.7109 15.4688 26.7109C15.7982 26.7109 16.1348 26.6536 16.4785 26.5391C16.8223 26.4245 17.1374 26.2383 17.4238 25.9805C18.054 25.4076 18.3691 24.5768 18.3691 23.4883C18.3691 22.4284 18.054 21.6048 17.4238 21.0176C16.8939 20.5306 16.2422 20.2943 15.4688 20.3086C14.194 20.3086 13.3132 20.8815 12.8262 22.0273C12.6543 22.4427 12.5684 22.9368 12.5684 23.5098C12.5684 24.0827 12.6543 24.5768 12.8262 24.9922C12.998 25.4076 13.2201 25.7441 13.4922 26.002ZM22.5156 19.4707C23.5039 19.041 24.528 18.8333 25.5879 18.8477C26.7767 18.8477 27.7005 19.2129 28.3594 19.9434C28.9466 20.5736 29.2474 21.3613 29.2617 22.3066V27.291C29.2617 27.5059 29.1758 27.6921 29.0039 27.8496C28.8464 28.0072 28.653 28.0859 28.4238 28.0859C28.209 28.0859 28.0228 28.0072 27.8652 27.8496C27.7077 27.6921 27.6289 27.5059 27.6289 27.291V26.8398C27.3138 27.1693 26.8913 27.4772 26.3613 27.7637C25.8314 28.0358 25.1582 28.1719 24.3418 28.1719C23.5254 28.1719 22.8451 27.9355 22.3008 27.4629C21.7422 26.9759 21.4629 26.3385 21.4629 25.5508C21.4629 24.6771 21.7923 23.9896 22.4512 23.4883C23.1673 22.944 24.1842 22.679 25.502 22.6934H27.6289V22.543C27.6289 21.7552 27.4355 21.1966 27.0488 20.8672C26.6764 20.5378 26.0892 20.373 25.2871 20.373C24.6139 20.373 23.8333 20.5091 22.9453 20.7812C22.8594 20.8099 22.752 20.8242 22.623 20.8242C22.5085 20.8242 22.3867 20.7669 22.2578 20.6523C22.1289 20.5234 22.0573 20.3301 22.043 20.0723C22.043 19.8001 22.2005 19.5996 22.5156 19.4707ZM23.0742 25.3574C23.0742 26.3027 23.6973 26.7682 24.9434 26.7539C25.4876 26.7539 25.9961 26.625 26.4688 26.3672C26.9557 26.0951 27.3424 25.7943 27.6289 25.4648V23.9824H25.7383C24.9076 23.9824 24.2559 24.0898 23.7832 24.3047C23.3105 24.5052 23.0742 24.8561 23.0742 25.3574ZM38.6719 26.8398C37.7982 27.7279 36.7956 28.1719 35.6641 28.1719C34.5469 28.1719 33.5729 27.778 32.7422 26.9902C31.8542 26.1022 31.403 24.9421 31.3887 23.5098C31.3887 22.1061 31.8398 20.9531 32.7422 20.0508C33.5586 19.2344 34.5326 18.8333 35.6641 18.8477C36.7956 18.8477 37.7982 19.2917 38.6719 20.1797V15.8613C38.6719 15.6322 38.7435 15.446 38.8867 15.3027C39.0443 15.1452 39.2376 15.0664 39.4668 15.0664C39.696 15.0664 39.8822 15.1452 40.0254 15.3027C40.1829 15.446 40.2617 15.6322 40.2617 15.8613V27.291C40.2617 27.5059 40.1829 27.6921 40.0254 27.8496C39.8822 28.0072 39.696 28.0859 39.4668 28.0859C39.2376 28.0859 39.0443 28.0072 38.8867 27.8496C38.7435 27.6921 38.6719 27.5059 38.6719 27.291V26.8398ZM38.6719 21.6621C37.8698 20.7741 36.9388 20.3372 35.8789 20.3516C34.5326 20.3516 33.6517 20.946 33.2363 22.1348C33.0931 22.5358 33.0143 22.9941 33 23.5098C33 24.5124 33.2721 25.3073 33.8164 25.8945C34.3177 26.4245 35.0052 26.6823 35.8789 26.668C36.9388 26.668 37.8698 26.2311 38.6719 25.3574V21.6621ZM43.0977 19.75C43.0977 19.5065 43.1764 19.3132 43.334 19.1699C43.4915 19.0124 43.6849 18.9336 43.9141 18.9336C44.1432 18.9336 44.3294 19.0124 44.4727 19.1699C44.6159 19.3132 44.6875 19.5065 44.6875 19.75V27.291C44.6875 27.5059 44.6159 27.6921 44.4727 27.8496C44.3294 28.0072 44.1432 28.0859 43.9141 28.0859C43.6849 28.0859 43.4915 28.0072 43.334 27.8496C43.1764 27.6921 43.0977 27.5059 43.0977 27.291V19.75ZM44.8594 16.291C44.8594 16.5488 44.7734 16.7637 44.6016 16.9355C44.4297 17.1074 44.2148 17.1934 43.957 17.1934H43.8496C43.5918 17.1934 43.377 17.1074 43.2051 16.9355C43.0475 16.7637 42.9688 16.5488 42.9688 16.291V16.2266C42.9688 15.9688 43.0547 15.7539 43.2266 15.582C43.3984 15.4102 43.6061 15.3242 43.8496 15.3242H43.957C44.2148 15.3242 44.4297 15.4102 44.6016 15.582C44.7734 15.7539 44.8594 15.9688 44.8594 16.2266V16.291ZM52.0352 20.3301C51.0039 20.3301 50.0371 20.8958 49.1348 22.0273V27.291C49.1348 27.5059 49.056 27.6921 48.8984 27.8496C48.7409 28.0072 48.5547 28.0859 48.3398 28.0859C48.125 28.0859 47.9388 28.0072 47.7812 27.8496C47.6237 27.6921 47.5449 27.5059 47.5449 27.291V19.75C47.5449 19.5208 47.6165 19.3275 47.7598 19.1699C47.9173 19.0124 48.1107 18.9336 48.3398 18.9336C48.5547 18.9336 48.7409 19.0124 48.8984 19.1699C49.056 19.3132 49.1348 19.5065 49.1348 19.75V20.4805C49.6074 19.9935 50.0156 19.6426 50.3594 19.4277C51.0182 19.041 51.6484 18.8477 52.25 18.8477C52.8659 18.8477 53.3672 18.9408 53.7539 19.127C54.1406 19.2988 54.4701 19.5495 54.7422 19.8789C55.2865 20.5234 55.5586 21.3255 55.5586 22.2852V27.291C55.5586 27.5059 55.4798 27.6921 55.3223 27.8496C55.1647 28.0072 54.9785 28.0859 54.7637 28.0859C54.5488 28.0859 54.3626 28.0072 54.2051 27.8496C54.0475 27.6921 53.9688 27.5059 53.9688 27.291V22.457C53.9688 21.7982 53.8184 21.2826 53.5176 20.9102C53.2168 20.5234 52.7227 20.3301 52.0352 20.3301ZM64.9688 20.1797V19.75C64.9688 19.5352 65.0404 19.349 65.1836 19.1914C65.3411 19.0195 65.5273 18.9336 65.7422 18.9336C65.957 18.9336 66.1432 19.0124 66.3008 19.1699C66.4727 19.3275 66.5586 19.5208 66.5586 19.75V27.6133C66.5586 29.1029 66.2005 30.2415 65.4844 31.0293C64.7682 31.8314 63.7513 32.2324 62.4336 32.2324C61.0299 32.2324 59.7695 31.9245 58.6523 31.3086C58.4518 31.1797 58.3516 31.0007 58.3516 30.7715C58.3516 30.5423 58.416 30.349 58.5449 30.1914C58.6882 30.0482 58.8314 29.9766 58.9746 29.9766C59.1178 29.9766 59.2467 29.998 59.3613 30.041C60.2493 30.485 61.2161 30.707 62.2617 30.707C64.0664 30.707 64.9688 29.7546 64.9688 27.8496V26.668C64.138 27.556 63.1354 28 61.9609 28C60.8438 28 59.8841 27.6204 59.082 26.8613C58.151 26.002 57.6855 24.8561 57.6855 23.4238C57.6855 21.9772 58.151 20.8242 59.082 19.9648C59.8841 19.2057 60.8581 18.8333 62.0039 18.8477C63.1497 18.8477 64.138 19.2917 64.9688 20.1797ZM64.9688 21.5977C64.6393 21.2539 64.2598 20.9531 63.8301 20.6953C63.4147 20.4375 62.9492 20.3086 62.4336 20.3086C61.918 20.3086 61.474 20.373 61.1016 20.502C60.7435 20.6309 60.4284 20.8242 60.1562 21.082C59.5833 21.6263 59.2969 22.4069 59.2969 23.4238C59.2969 24.9421 59.8984 25.916 61.1016 26.3457C61.474 26.4746 61.918 26.5391 62.4336 26.5391C63.293 26.5391 64.138 26.1022 64.9688 25.2285V21.5977Z" fill="#168CD0"/>
</svg>



</svg>
