<svg width="77" height="50" viewBox="0 0 77 50" fill="none" xmlns="http://www.w3.org/2000/svg">
<path d="M76 42.4694L54.847 27L76 11.5306V42.4694Z" fill="#C8EDFF" stroke="#AED6E9"/>
<circle cx="25" cy="25" r="24.5" stroke="#AED6E9"/>
<path d="M25.5 22.9375C20.9168 22.9375 17.1875 19.2082 17.1875 14.625C17.1875 10.0418 20.9168 6.3125 25.5 6.3125C30.0832 6.3125 33.8125 10.0418 33.8125 14.625C33.8125 19.2082 30.0832 22.9375 25.5 22.9375Z" fill="#FFEEA3"/>
<path d="M25.5 6.75C29.8426 6.75 33.375 10.2824 33.375 14.625C33.375 18.9676 29.8426 22.5 25.5 22.5C21.1574 22.5 17.625 18.9676 17.625 14.625C17.625 10.2824 21.1574 6.75 25.5 6.75ZM25.5 5.875C20.6674 5.875 16.75 9.79238 16.75 14.625C16.75 19.4576 20.6674 23.375 25.5 23.375C30.3326 23.375 34.25 19.4576 34.25 14.625C34.25 9.79238 30.3326 5.875 25.5 5.875Z" fill="#BA9B48"/>
<path d="M10.1875 38.6875V36.6759C10.1875 30.0189 19.9499 27.4971 20.7059 27.3125H30.295C31.0501 27.4971 40.8125 30.018 40.8125 36.6759V38.6875H10.1875Z" fill="#C2E8FF"/>
<path d="M30.2416 27.75C31.2505 28.0029 40.375 30.4678 40.375 36.6759V38.25H10.625V36.6759C10.625 30.4678 19.7495 28.0029 20.7584 27.75H30.2416ZM30.3458 26.875H20.6542C20.6542 26.875 9.75 29.3486 9.75 36.6759C9.75 36.6759 9.75 37.7294 9.75 39.125H41.25C41.25 37.7294 41.25 36.6759 41.25 36.6759C41.25 29.3486 30.3458 26.875 30.3458 26.875Z" fill="#7496C4"/>
</svg>
