<svg width="100" height="100" viewBox="0 0 100 100" fill="none" xmlns="http://www.w3.org/2000/svg">
<path d="M60.7925 66.6463L66.6849 60.7536L91.7287 85.7966L85.8363 91.6892L60.7925 66.6463Z" fill="#21A1D9"/>
<path d="M41.6667 8.33333C32.8261 8.33333 24.3476 11.8452 18.0964 18.0964C11.8452 24.3476 8.33333 32.8261 8.33333 41.6667C8.33333 50.5072 11.8452 58.9857 18.0964 65.2369C24.3476 71.4881 32.8261 75 41.6667 75C50.5072 75 58.9857 71.4881 65.2369 65.2369C71.4881 58.9857 75 50.5072 75 41.6667C75 32.8261 71.4881 24.3476 65.2369 18.0964C58.9857 11.8452 50.5072 8.33333 41.6667 8.33333Z" fill="#21A1D9"/>
<path d="M67.6163 73.627L73.5087 67.7344L91.6287 85.8537L85.7362 91.7463L67.6163 73.627Z" fill="#007BB0"/>
<path d="M41.6667 14.5833C34.4837 14.5833 27.595 17.4367 22.5159 22.5159C17.4367 27.595 14.5833 34.4837 14.5833 41.6667C14.5833 48.8496 17.4367 55.7384 22.5159 60.8175C27.595 65.8966 34.4837 68.75 41.6667 68.75C48.8496 68.75 55.7384 65.8966 60.8175 60.8175C65.8966 55.7384 68.75 48.8496 68.75 41.6667C68.75 34.4837 65.8966 27.595 60.8175 22.5159C55.7384 17.4367 48.8496 14.5833 41.6667 14.5833Z" fill="#C8EEFF"/>
<path d="M56.0417 29.5833C52.5 25.4167 47.2917 22.9167 41.6667 22.9167C36.0417 22.9167 30.8333 25.4167 27.2917 29.5833C26.4583 30.4167 26.6667 31.875 27.5 32.5C28.3333 33.3333 29.7917 33.125 30.4167 32.2917C33.3333 28.9583 37.2917 27.0833 41.6667 27.0833C46.0417 27.0833 50 28.9583 52.9167 32.2917C53.3333 32.7083 53.9583 33.125 54.5833 33.125C55 33.125 55.625 32.9167 55.8333 32.7083C56.6667 31.875 56.6667 30.4167 56.0417 29.5833Z" fill="white"/>
</svg>
