<?xml version="1.0" encoding="utf-8"?>
<!DOCTYPE svg PUBLIC "-//W3C//DTD SVG 1.1//EN" "http://www.w3.org/Graphics/SVG/1.1/DTD/svg11.dtd">
<svg version="1.1" xmlns="http://www.w3.org/2000/svg" xmlns:xlink="http://www.w3.org/1999/xlink" x="0px" y="0px" viewBox="0 0 256 256" enable-background="new 0 0 256 256" xml:space="preserve">
<g><g><g><path fill="#000000" d="M119.1,10.1c-0.9,0.1-3.6,0.4-6,0.7c-17.3,2-35.9,8.9-50.8,18.9c-28.6,19.2-46.9,48.9-51.7,83.5c-0.8,5.8-0.8,23.8,0,29.5c3.7,26.9,15.1,50,33.8,68.7c33.5,33.5,82.8,43.7,127.3,26.3c25.6-10,48.7-31,61.3-55.9c19.2-37.6,16.9-83.4-6.1-118.3c-19-28.9-48.4-47.6-82.5-52.7C139.9,10.2,122.6,9.6,119.1,10.1z M139.5,13.5c26,2.5,51,14.4,69.7,33.2c9.1,9.1,15.8,18.5,21.6,30.3c5.7,11.5,8.5,20.2,10.7,33c0.9,4.8,1,7.7,1,17.5c0,13.2-0.5,17.9-3.2,28.8c-5,19.8-15.6,38.3-30.2,53c-11.6,11.6-26.8,21.3-42.1,26.9c-5.7,2.1-15.7,4.6-22.5,5.7c-8.1,1.2-26.8,1.2-34.6-0.2c-7.3-1.2-15.3-3.3-21.1-5.4c-6.4-2.4-18.5-8.4-23.9-12c-26.1-17.4-43.9-43.7-49.8-73.9c-4.2-21.4-2.2-44.4,5.8-64.4c14.4-36.4,46.4-63.1,84.7-70.7c3.3-0.6,7.7-1.3,9.8-1.6C121.1,13,134,12.9,139.5,13.5z"/><path fill="#000000" d="M132.1,48.9c-22.1,2.1-39,18.8-41.6,41c-0.9,7.2,0.4,15.2,3.5,23l1.3,3.2l-3.1,3.1c-3,3-3.1,3.2-2.9,4.9l0.3,1.8l-24,24c-16.2,16.1-24.3,24.6-24.9,25.8c-1.3,2.9-1.2,6.4,0.5,9.3c3.2,5.7,9.4,8,14.5,5.4c0.7-0.4,12.3-11.6,25.7-24.9c23-22.9,24.3-24.2,25.3-23.6l1,0.6v24c0,13.2,0.2,24.3,0.4,24.6c0.3,0.5,9.5,0.6,41.8,0.6l41.4,0l7.2-7.4l7.2-7.3l0-55.9c0-30.8-0.1-56.1-0.3-56.4c-0.1-0.2-8-0.4-17.4-0.4h-17.2l-1.8-1.9C159.6,52.9,145,47.6,132.1,48.9z M143.3,52.5c8.6,1.5,15.8,5.2,22.3,11.4c8.4,8,12.5,17.2,13,28.9c0.2,4.6,0,6.6-0.7,10.2c-3.5,16.9-16.4,29.8-33.2,33.3c-5.8,1.2-14.7,1-19.9-0.6c-7.6-2.2-9.2-3.2-18.3-12.5c-8.2-8.3-8.4-8.6-9.8-12.2c-2.7-7.1-3-9.1-3-16.6c0-5.6,0.2-7.6,1.1-10.6c4.4-16.2,17.5-28.4,33.9-31.4C133,51.6,138.6,51.6,143.3,52.5z M202.6,120.9l-0.1,53.9l-6.7,0.2l-6.7,0.2l-0.1,6.8l-0.1,6.8h-39h-39v-24.4v-24.4l2.3-2.2l2.2-2.2l4.3,1.6c6.5,2.4,9,2.9,16.6,2.8c6,0,7.2-0.2,11.3-1.4l4.6-1.3l20.2-0.2c14.2-0.1,20.3-0.4,20.7-0.7c0.3-0.3,0.5-0.9,0.4-1.4c-0.1-0.8-1-0.9-16.9-1l-16.8-0.1l3.2-2.3c1.8-1.2,4.2-3.3,5.5-4.6l2.3-2.4h3.3c2.5,0,3.4-0.2,3.6-0.7c0.5-1.4-0.2-2.1-2.3-2.1c-1.1,0-2-0.1-2-0.3c0-0.1,0.6-1.1,1.3-2.2c0.7-1.1,1.8-3,2.5-4.3l1.2-2.4l7.5-0.1l7.5-0.1v-1.2v-1.2l-6.8-0.1c-3.8,0-6.8-0.3-6.8-0.5c0-0.2,0.5-2.3,1-4.5c0.7-3,1-5.5,1-10.2l0-6.1l5.8-0.1c5.3-0.1,5.8-0.2,5.9-1c0.3-1.7-1.1-2.1-6.9-2.1H181l-0.5-2c-0.9-3.6-3.3-9.3-5.4-12.7c-1.1-1.8-2-3.5-2-3.6s6.6-0.2,14.8-0.2h14.8L202.6,120.9z M105.2,126.2l7.5,7.5l-2.5,2.5l-2.5,2.5l-7.6-7.6l-7.6-7.6l2.4-2.4c1.3-1.3,2.5-2.4,2.7-2.4S101,122.1,105.2,126.2z M95.4,131.2l3.2,3.2l-23.5,23.5c-25.3,25.3-25.3,25.3-29.4,24.8c-1.1-0.1-2.1-0.5-2.4-0.7c-0.6-0.6-0.6-3.8,0.1-5.2c0.6-1,48-48.8,48.5-48.8C92,127.9,93.6,129.4,95.4,131.2z M79,163.3c-17.4,17.4-24.7,24.4-25.8,24.7c-1.8,0.6-4.3,0.3-6-0.8l-1.2-0.8l2.9-0.8c1.6-0.4,3.6-1.3,4.6-2c1-0.7,12-11.5,24.6-24.1l22.8-22.8l1.2,1.2l1.2,1.2L79,163.3z M200.4,177.9c0,0-1.8,2-4.2,4.2l-4.2,4.2V182v-4.2h4.2C198.5,177.8,200.4,177.8,200.4,177.9z"/><path fill="#000000" d="M131.2,62c-3.8,0.6-9.5,2.7-12.7,4.8C103.9,76.1,99,94.7,107,110.2c2.4,4.5,8.8,11,13.2,13.2c10,5.1,20.3,5.4,30,0.6c6.7-3.3,11.6-8,14.8-14.1c5.6-11,5-23.2-1.6-33.3c-5.3-8.1-13.6-13.3-23.3-14.6C136.2,61.4,135.3,61.4,131.2,62z M142.1,65.4c8.8,1.8,16.2,7.3,20.4,15.4c0.7,1.4,1.5,3,1.7,3.6l0.3,1.1l-22.7,0.1c-20.3,0.1-22.8,0.2-23.2,0.9c-0.3,0.4-0.3,1.1-0.2,1.5c0.3,0.6,2.4,0.7,23.6,0.7h23.3l0.3,1c1.1,4-0.3,13.2-2.7,17.9l-1.2,2.4L140,110l-21.6,0.1v1.2v1.2l20.4,0.1c11.7,0,20.4,0.3,20.4,0.5c0,1.1-6.5,6.2-9.9,7.9c-5.5,2.7-8.7,3.4-14.8,3.1c-9.1-0.4-16.9-4.4-22.2-11.3l-1.6-2.1V94.6V78.4l1.9-2.4C119.4,67.3,131,63.1,142.1,65.4z M107.6,94.8c0,8.9-0.6,9.7-1.2,1.7c-0.2-3.5,0.5-10.1,1.1-10.1C107.5,86.4,107.6,90.2,107.6,94.8z"/><path fill="#000000" d="M118.4,98.6c-0.2,0.4-0.2,1,0,1.4c0.2,0.6,1.9,0.7,12.8,0.6l12.6-0.1v-1.2v-1.2L131.2,98C120.3,97.9,118.6,98,118.4,98.6z"/><path fill="#000000" d="M118.4,146.7c-0.1,0.4-0.1,1.1,0.2,1.5c0.4,0.6,4,0.7,37.2,0.9c39.6,0.1,38.3,0.2,37.5-2.2c-0.3-0.9-0.4-0.9-37.4-0.9C121.8,145.9,118.6,146,118.4,146.7z"/><path fill="#000000" d="M118.5,158.3c-0.7,0.7-0.3,2.4,0.7,2.7c0.6,0.1,10.8,0.2,22.7,0.1c19.6-0.1,21.7-0.2,22.1-0.9c0.4-0.6,0.3-1-0.1-1.5c-0.6-0.6-3.1-0.7-22.9-0.7C128.8,157.9,118.7,158.1,118.5,158.3z"/><path fill="#000000" d="M66.6,81.4c-0.3,0.3-0.6,1.1-0.6,1.7c0,3.4-3.4,7.2-6.8,7.8c-2.5,0.4-3.5,1-3.3,2.1c0.1,0.8,0.6,1.1,2.1,1.3c3.9,0.6,7.2,3.5,7.8,6.7c0.5,3,0.7,3.4,1.8,3.4c0.9,0,1.2-0.3,1.4-1.3c1.1-5.1,3-7.5,6.9-8.4c1.3-0.3,2.6-0.6,2.9-0.7c0.8-0.2,0.7-1.9-0.2-2.4c-0.5-0.2-1.6-0.6-2.6-0.7c-3.4-0.5-6.8-4.3-6.8-7.6c0-1.3-0.7-2.4-1.6-2.4C67.4,80.9,66.9,81.1,66.6,81.4z M69.7,94.7l-2.1,2.1l-2.1-2.1l-2.1-2.1l2.1-1.9l2.1-1.9l2.1,1.9l2.1,1.9L69.7,94.7z"/></g></g></g>
</svg>