<svg width="60" height="60" viewBox="0 0 60 60" fill="none" xmlns="http://www.w3.org/2000/svg">
<path d="M29.25 20.25V6.75V20.25Z" fill="#C2E8FF"/>
<path d="M29.25 20.25V6.75" stroke="#168CD0" stroke-width="2.5" stroke-miterlimit="10"/>
<path d="M29.25 2.25C28.0565 2.25 26.9119 2.72411 26.068 3.56802C25.2241 4.41193 24.75 5.55653 24.75 6.75C24.75 7.94347 25.2241 9.08807 26.068 9.93198C26.9119 10.7759 28.0565 11.25 29.25 11.25C30.4435 11.25 31.5881 10.7759 32.432 9.93198C33.2759 9.08807 33.75 7.94347 33.75 6.75C33.75 5.55653 33.2759 4.41193 32.432 3.56802C31.5881 2.72411 30.4435 2.25 29.25 2.25Z" fill="#C2E8FF"/>
<path d="M29.25 3C31.3185 3 33 4.683 33 6.75C33 8.817 31.3185 10.5 29.25 10.5C27.1815 10.5 25.5 8.817 25.5 6.75C25.5 4.683 27.1815 3 29.25 3ZM29.25 1.5C26.3505 1.5 24 3.8505 24 6.75C24 9.6495 26.3505 12 29.25 12C32.1495 12 34.5 9.6495 34.5 6.75C34.5 3.8505 32.1495 1.5 29.25 1.5Z" fill="#168CD0"/>
<path d="M28.5 57.75C22.044 57.75 6.75 55.713 6.75 52.5V40.2915C6.75 28.6155 16.7115 18.75 28.5 18.75H30C41.7885 18.75 51.75 28.6155 51.75 40.2915V52.5C51.75 55.713 36.456 57.75 30 57.75H28.5Z" fill="#C2E8FF"/>
<path d="M30 19.5C41.3835 19.5 51 29.022 51 40.2915V52.5C51 52.5165 50.6415 54.204 42.6435 55.6935C37.803 56.595 32.337 57 30 57H28.5C26.163 57 20.697 56.595 15.8565 55.6935C7.8585 54.204 7.5 52.5165 7.5 52.5V40.2915C7.5 29.022 17.1165 19.5 28.5 19.5H30ZM30 18H28.5C16.269 18 6 28.0605 6 40.2915V52.5C6 56.9475 24.0525 58.5 28.5 58.5H30C34.4475 58.5 52.5 56.9475 52.5 52.5V40.2915C52.5 28.0605 42.231 18 30 18Z" fill="#168CD0"/>
<path d="M18.75 45.75C15.441 45.75 12.75 43.059 12.75 39.75C12.75 36.441 15.441 33.75 18.75 33.75H39.75C43.059 33.75 45.75 36.441 45.75 39.75C45.75 43.059 43.059 45.75 39.75 45.75H18.75Z" fill="white"/>
<path d="M39.75 34.5C42.645 34.5 45 36.855 45 39.75C45 42.645 42.645 45 39.75 45H18.75C15.855 45 13.5 42.645 13.5 39.75C13.5 36.855 15.855 34.5 18.75 34.5H39.75ZM39.75 33H18.75C15.0375 33 12 36.0375 12 39.75C12 43.4625 15.0375 46.5 18.75 46.5H39.75C43.4625 46.5 46.5 43.4625 46.5 39.75C46.5 36.0375 43.4625 33 39.75 33Z" fill="#168CD0"/>
<path d="M18.75 38.25C18.3522 38.25 17.9706 38.408 17.6893 38.6893C17.408 38.9706 17.25 39.3522 17.25 39.75C17.25 40.1478 17.408 40.5294 17.6893 40.8107C17.9706 41.092 18.3522 41.25 18.75 41.25C19.1478 41.25 19.5294 41.092 19.8107 40.8107C20.092 40.5294 20.25 40.1478 20.25 39.75C20.25 39.3522 20.092 38.9706 19.8107 38.6893C19.5294 38.408 19.1478 38.25 18.75 38.25Z" fill="#8BB7F0"/>
<path d="M18.75 39C19.164 39 19.5 39.336 19.5 39.75C19.5 40.164 19.164 40.5 18.75 40.5C18.336 40.5 18 40.164 18 39.75C18 39.336 18.336 39 18.75 39ZM18.75 37.5C17.508 37.5 16.5 38.508 16.5 39.75C16.5 40.992 17.508 42 18.75 42C19.992 42 21 40.992 21 39.75C21 38.508 19.992 37.5 18.75 37.5Z" fill="#4E7AB5"/>
<path d="M39.75 38.25C39.3522 38.25 38.9706 38.408 38.6893 38.6893C38.408 38.9706 38.25 39.3522 38.25 39.75C38.25 40.1478 38.408 40.5294 38.6893 40.8107C38.9706 41.092 39.3522 41.25 39.75 41.25C40.1478 41.25 40.5294 41.092 40.8107 40.8107C41.092 40.5294 41.25 40.1478 41.25 39.75C41.25 39.3522 41.092 38.9706 40.8107 38.6893C40.5294 38.408 40.1478 38.25 39.75 38.25Z" fill="#8BB7F0"/>
<path d="M39.75 39C40.164 39 40.5 39.336 40.5 39.75C40.5 40.164 40.164 40.5 39.75 40.5C39.336 40.5 39 40.164 39 39.75C39 39.336 39.336 39 39.75 39ZM39.75 37.5C38.508 37.5 37.5 38.508 37.5 39.75C37.5 40.992 38.508 42 39.75 42C40.992 42 42 40.992 42 39.75C42 38.508 40.992 37.5 39.75 37.5Z" fill="#4E7AB5"/>
<path d="M53.25 48.75C52.422 48.75 51.75 48.0765 51.75 47.25V27.75C51.75 26.9235 52.422 26.25 53.25 26.25C54.078 26.25 54.75 26.9235 54.75 27.75V47.25C54.75 48.0765 54.078 48.75 53.25 48.75Z" fill="#C2E8FF"/>
<path d="M53.25 27C53.6565 27 54 27.3435 54 27.75V47.25C54 47.6565 53.6565 48 53.25 48C52.8435 48 52.5 47.6565 52.5 47.25V27.75C52.5 27.3435 52.8435 27 53.25 27ZM53.25 25.5C52.0125 25.5 51 26.5125 51 27.75V47.25C51 48.4875 52.0125 49.5 53.25 49.5C54.4875 49.5 55.5 48.4875 55.5 47.25V27.75C55.5 26.5125 54.4875 25.5 53.25 25.5Z" fill="#168CD0"/>
<path d="M5.25 48.75C4.422 48.75 3.75 48.0765 3.75 47.25V27.75C3.75 26.9235 4.422 26.25 5.25 26.25C6.078 26.25 6.75 26.9235 6.75 27.75V47.25C6.75 48.0765 6.078 48.75 5.25 48.75Z" fill="#C2E8FF"/>
<path d="M5.25 27C5.6565 27 6 27.3435 6 27.75V47.25C6 47.6565 5.6565 48 5.25 48C4.8435 48 4.5 47.6565 4.5 47.25V27.75C4.5 27.3435 4.8435 27 5.25 27ZM5.25 25.5C4.0125 25.5 3 26.5125 3 27.75V47.25C3 48.4875 4.0125 49.5 5.25 49.5C6.4875 49.5 7.5 48.4875 7.5 47.25V27.75C7.5 26.5125 6.4875 25.5 5.25 25.5Z" fill="#168CD0"/>
</svg>
