<svg width="100" height="100" viewBox="0 0 100 100" fill="none" xmlns="http://www.w3.org/2000/svg">

<path d="M33.625 4C32.6719 4.17969 31.9844 5.02344 32 6V22C32 23.1016 32.8984 24 34 24H48V26.5625C46.8047 27.2578 46 28.5234 46 30H32.625C29.8594 30 27.4453 31.4375 26 33.5625C24.9375 32.6016 23.5312 32 22 32C18.7109 32 16 34.7109 16 38C16 39.8828 16.875 41.5859 18.25 42.6875L12.5 60.25C9.9375 60.9375 8 63.2344 8 66C7.99219 66.7188 8.36719 67.3906 8.99219 67.7578C9.61719 68.1172 10.3828 68.1172 11.0078 67.7578C11.6328 67.3906 12.0078 66.7188 12 66C12 64.8672 12.8672 64 14 64C15.1328 64 16 64.8672 16 66C15.9922 66.7188 16.3672 67.3906 16.9922 67.7578C17.6172 68.1172 18.3828 68.1172 19.0078 67.7578C19.6328 67.3906 20.0078 66.7188 20 66C20 63.6484 18.6172 61.6094 16.625 60.625L22.0625 44C23.1562 43.9844 24.1797 43.6562 25.0625 43.125L27.5 68.75C27.8906 72.8359 31.3281 76 35.4375 76H40V90C40 93.2891 42.7109 96 46 96H56C59.2891 96 62 93.2891 62 90V76H66.25C70.5 76 74.0469 72.6172 74.25 68.375L75.4375 43.375C76.2031 43.7422 77.0391 43.9922 77.9375 44L83.375 60.625C81.3828 61.6094 80 63.6484 80 66C79.9922 66.7188 80.3672 67.3906 80.9922 67.7578C81.6172 68.1172 82.3828 68.1172 83.0078 67.7578C83.6328 67.3906 84.0078 66.7188 84 66C84 64.8672 84.8672 64 86 64C87.1328 64 88 64.8672 88 66C87.9922 66.7188 88.3672 67.3906 88.9922 67.7578C89.6172 68.1172 90.3828 68.1172 91.0078 67.7578C91.6328 67.3906 92.0078 66.7188 92 66C92 63.2344 90.0625 60.9375 87.5 60.25L81.75 42.6875C83.125 41.5859 84 39.8828 84 38C84 34.7109 81.2891 32 78 32C76.5625 32 75.2266 32.5156 74.1875 33.375C72.7344 31.3516 70.3594 30 67.6875 30H54C54 28.5234 53.1953 27.2578 52 26.5625V24H66C67.1016 24 68 23.1016 68 22V6C68 4.89844 67.1016 4 66 4H34C33.9375 4 33.875 4 33.8125 4C33.75 4 33.6875 4 33.625 4ZM36 8H64V20H36V8ZM44 12C42.8984 12 42 12.8984 42 14C42 15.1016 42.8984 16 44 16C45.1016 16 46 15.1016 46 14C46 12.8984 45.1016 12 44 12ZM56 12C54.8984 12 54 12.8984 54 14C54 15.1016 54.8984 16 56 16C57.1016 16 58 15.1016 58 14C58 12.8984 57.1016 12 56 12ZM32.625 34H67.6875C70 34 71.7969 35.875 71.6875 38.1875L70.25 68.1875C70.1484 70.3359 68.4062 72 66.25 72H35.4375C33.3594 72 31.6953 70.4453 31.5 68.375L28.625 38.375C28.3984 35.9922 30.2344 34 32.625 34ZM22 36C23.125 36 24 36.875 24 38C24 39.125 23.125 40 22 40C21.7578 40 21.5234 39.9453 21.3125 39.875C21.2734 39.875 21.2266 39.875 21.1875 39.875C20.4687 39.5781 20 38.8438 20 38C20 36.875 20.875 36 22 36ZM78 36C79.125 36 80 36.875 80 38C80 38.7969 79.5859 39.4844 78.9375 39.8125C78.8125 39.8438 78.6797 39.8828 78.5625 39.9375C78.3906 39.9844 78.1953 40 78 40C76.875 40 76 39.125 76 38C76 36.875 76.875 36 78 36ZM44 76H58V78H54V82H58V86H54V90H58C58 91.1328 57.1328 92 56 92H46C44.8672 92 44 91.1328 44 90H48V86H44V82H48V78H44V76Z" stroke="transparent" stroke-width="2" fill="#199BE2" />
</svg>
