<?xml version="1.0" encoding="UTF-8" standalone="no"?>
<!-- Created with Inkscape (http://www.inkscape.org/) -->

<svg
   version="1.1"
   id="svg2"
   width="2933.3333"
   height="2933.3333"
   viewBox="0 0 2933.3333 2933.3333"
   sodipodi:docname="Robot.eps"
   xmlns:inkscape="http://www.inkscape.org/namespaces/inkscape"
   xmlns:sodipodi="http://sodipodi.sourceforge.net/DTD/sodipodi-0.dtd"
   xmlns="http://www.w3.org/2000/svg"
   xmlns:svg="http://www.w3.org/2000/svg">
  <defs
     id="defs6" />
  <sodipodi:namedview
     id="namedview4"
     pagecolor="#ffffff"
     bordercolor="#000000"
     borderopacity="0.25"
     inkscape:showpageshadow="2"
     inkscape:pageopacity="0.0"
     inkscape:pagecheckerboard="0"
     inkscape:deskcolor="#d1d1d1" />
  <g
     id="g8"
     inkscape:groupmode="layer"
     inkscape:label="ink_ext_XXXXXX"
     transform="matrix(1.3333333,0,0,-1.3333333,0,2933.3333)">
    <g
       id="g10"
       transform="scale(0.1)">
      <path
         d="M 22000,0 H 0 V 22000 H 22000 V 0"
         style="fill:#ffffff;fill-opacity:0;fill-rule:nonzero;stroke:none"
         id="path12" />
      <path
         d="m 14143.9,10932 c 30.7,-419.6 329.4,-452 663.8,-1247.8 427.4,-1016.8 532.4,-2004.6 761.7,-3091 286,-1355.5 1088.1,-1451.9 1448,-1378.1 648.4,133.3 947.2,908.8 771.2,1742.6 -649.4,3076.9 -1880.2,4532.2 -3068.9,4521 -221.3,-2.1 -605.7,-137.9 -575.8,-546.7"
         style="fill:#dee4eb;fill-opacity:1;fill-rule:nonzero;stroke:none"
         id="path14" />
      <path
         d="m 17017.4,5215.1 c -120.2,-24.6 -289.7,-30.3 -472.7,23.6 585.3,184 848.1,925.1 680.6,1719 -586.6,2778.9 -1647.4,4235.2 -2722.9,4482.8 76.7,26 153.8,37.6 217.4,38.2 1188.6,11.2 2419.4,-1444.1 3068.8,-4521 176,-833.8 -122.8,-1609.3 -771.2,-1742.6"
         style="fill:#c7d0dc;fill-opacity:1;fill-rule:nonzero;stroke:none"
         id="path16" />
      <path
         d="m 7856.18,10919.7 c -30.71,-419.5 -329.46,-452 -663.94,-1247.8 -356.7,-848.7 -488.83,-1677.2 -656.21,-2559.8 -33.04,-174.8 -67.61,-351.6 -105.48,-531.2 C 6144.56,5225.4 5342.5,5129 4982.61,5202.9 c -648.39,133.2 -947.23,908.7 -771.24,1742.6 579.33,2744.7 1621.31,4199.1 2683.29,4473.1 128.46,33.1 257.3,49.1 385.57,47.8 221.38,-2 605.8,-137.9 575.95,-546.7"
         style="fill:#dee4eb;fill-opacity:1;fill-rule:nonzero;stroke:none"
         id="path18" />
      <path
         d="m 7856.18,10919.7 c -30.71,-419.5 -329.46,-452 -663.94,-1247.8 -356.7,-848.7 -488.83,-1677.2 -656.21,-2559.8 -41.92,141.7 -80.36,287.5 -115.23,437.3 -14.59,61.9 -28.4,124.5 -41.44,187.8 -129.33,620.6 -199.06,1307.5 -199.06,2057.7 0,637.4 254.6,1187.3 714.36,1623.7 128.46,33.1 257.3,49.1 385.57,47.8 221.38,-2 605.8,-137.9 575.95,-546.7"
         style="fill:#c7d0dc;fill-opacity:1;fill-rule:nonzero;stroke:none"
         id="path20" />
      <path
         d="m 15426.8,9794.9 c 0,-750.2 -69.7,-1437.1 -199.1,-2057.7 -13,-63.3 -26.8,-125.9 -41.4,-187.8 -591.2,-2540 -2207.7,-3915.3 -4109,-3915.3 -1901.35,0 -3517.86,1375.3 -4109.11,3915.3 -14.54,61.9 -28.35,124.5 -41.35,187.8 -129.4,620.6 -199.11,1307.5 -199.11,2057.7 0,1668.8 1745.38,2738.4 4349.57,2738.4 2604.1,0 4349.5,-1069.6 4349.5,-2738.4"
         style="fill:#dee4eb;fill-opacity:1;fill-rule:nonzero;stroke:none"
         id="path22" />
      <path
         d="m 15426.8,9794.9 c 0,-750.2 -69.7,-1437.1 -199.1,-2057.7 -13,-63.3 -26.8,-125.9 -41.3,-187.8 -591.3,-2540 -2207.8,-3915.3 -4109.1,-3915.3 -1432.9,0 -2704.09,781.1 -3496.39,2253.2 546.2,-442.7 1152.28,-795.4 1813.81,-988.5 1064.88,-311 2286.58,-158.7 3141.58,580.1 483.9,418.2 817.5,987.2 1038.8,1609.7 21.4,59.8 41.5,120.1 60.9,180.8 99.5,314.5 172.3,639.9 222.8,964.3 94.2,604.7 121,1231.8 -26,1824.6 -147.1,592.7 -484.7,1150.5 -988.9,1453.7 -317.4,190.9 -681.9,272.9 -1041.4,341.3 -1018.7,193.8 -2052.53,298.8 -3087.56,313.8 659.5,237.6 1459.26,366.1 2362.36,366.1 2604.2,0 4349.5,-1069.5 4349.5,-2738.3"
         style="fill:#c7d0dc;fill-opacity:1;fill-rule:nonzero;stroke:none"
         id="path24" />
      <path
         d="m 9307.87,13050.9 v -1045.1 c 0,-554.1 792.23,-1003.3 1769.43,-1003.3 977.2,0 1769.4,449.2 1769.4,1003.3 v 1045.1 H 9307.87"
         style="fill:#cbd3db;fill-opacity:1;fill-rule:nonzero;stroke:none"
         id="path26" />
      <path
         d="m 12846.7,13050.9 v -905.2 c -494.5,-232.3 -1057,-328.9 -1769.4,-328.9 -636.3,0 -1274.98,77.3 -1769.41,310.2 v 923.9 h 3538.81"
         style="fill:#abb7c6;fill-opacity:1;fill-rule:nonzero;stroke:none"
         id="path28" />
      <path
         d="m 12952,19032.9 c 0,-747.3 -839.3,-1353 -1874.7,-1353 -1035.4,0 -1874.8,605.7 -1874.8,1353 0,747.3 0,1353 1874.8,1353 1874.7,0 1874.7,-605.7 1874.7,-1353"
         style="fill:#cbd3db;fill-opacity:1;fill-rule:nonzero;stroke:none"
         id="path30" />
      <path
         d="m 5846.42,14644.9 c 0,-638.5 349.52,-1226 911.13,-1529.8 713.9,-386.1 1982.68,-744 4233.45,-744 2250.7,0 3519.5,357.9 4233.4,744 561.6,303.8 911.2,891.3 911.2,1529.8 v 2799.5 c 0,638.5 -349.6,1226 -911.2,1529.7 -713.9,386.1 -1982.7,744 -4233.4,744 -2250.77,0 -3519.55,-357.9 -4233.45,-744 -561.61,-303.7 -911.13,-891.2 -911.13,-1529.7 v -2799.5"
         style="fill:#dee4eb;fill-opacity:1;fill-rule:nonzero;stroke:none"
         id="path32" />
      <path
         d="m 16109.5,17479.3 v -2799.6 c 0,-638.5 -349.6,-1226 -911.1,-1529.8 -713.9,-386 -1982.8,-743.9 -4233.5,-743.9 -2250.73,0 -3519.5,357.9 -4233.48,743.9 -283.58,153.4 -513.07,379.1 -670.79,647.4 926.75,-565.8 2085.8,-725.2 3188.24,-738.1 775.33,-9 1569.33,45.8 2281.83,352 1293.9,556 2152.4,1945.8 2170.9,3354.1 12.2,921.9 -311.6,2121 -892.3,2891.8 1149.1,-131.9 1899.6,-383.3 2389.1,-648.1 561.5,-303.8 911.1,-891.3 911.1,-1529.7"
         style="fill:#c7d0dc;fill-opacity:1;fill-rule:nonzero;stroke:none"
         id="path34" />
      <path
         d="m 11077.3,12877.7 c -2248.19,0 -3402.24,368.9 -3974.48,678.4 -385.96,208.8 -625.72,611.5 -625.72,1050.9 v 2147.8 c 0,439.4 239.76,842.1 625.72,1050.9 572.25,309.5 1726.31,678.4 3974.48,678.4 2248.1,0 3402.2,-368.9 3974.4,-678.4 386,-208.8 625.7,-611.5 625.7,-1050.9 V 14607 c 0,-439.4 -239.7,-842.1 -625.7,-1050.8 -572.2,-309.6 -1726.3,-678.5 -3974.4,-678.5"
         style="fill:#23445e;fill-opacity:1;fill-rule:nonzero;stroke:none"
         id="path36" />
      <path
         d="m 15677.4,16754.8 v -2147.7 c 0,-439.5 -239.7,-842.2 -625.7,-1050.9 -572.2,-309.6 -1726.3,-678.4 -3974.4,-678.4 -2248.2,0 -3402.22,368.8 -3974.5,678.4 -371.09,200.7 -607.05,580.7 -624.63,1000.3 1341.11,-829.9 3272.86,-1194.3 4791.83,-1049 719.4,68.8 1474.8,283.5 1934.4,827.5 239.6,283.6 378.4,635.9 443.4,999.7 15.4,85.7 26.6,172 34,258.2 25.2,289.3 11,579.5 -18.9,868.9 -16.9,163.1 -38.7,325.9 -61.3,488.1 -52.8,377.1 -111.3,758.7 -265.3,1108.6 -44.4,100.9 -97.7,199.4 -159.9,291.9 934.7,-135.3 1518.3,-351.6 1875.3,-544.8 386,-208.7 625.7,-611.4 625.7,-1050.8"
         style="fill:#193242;fill-opacity:1;fill-rule:nonzero;stroke:none"
         id="path38" />
      <path
         d="m 9751.3,15616.1 c 0,-504.6 -409.04,-253.5 -913.62,-253.5 -504.58,0 -913.62,-251.1 -913.62,253.5 0,504.6 409.04,913.6 913.62,913.6 504.58,0 913.62,-409 913.62,-913.6"
         style="fill:#7fd5dc;fill-opacity:1;fill-rule:nonzero;stroke:none"
         id="path40" />
      <path
         d="m 13681.8,15592.9 c -7.4,-86.2 -18.6,-172.5 -34,-258.2 -102.6,14.4 -214.2,27.9 -331,27.9 -504.5,0 -913.6,-251.1 -913.6,253.5 0,504.6 409.1,913.6 913.6,913.6 122.5,0 239.4,-24.1 346.1,-67.9 29.9,-289.4 44.1,-579.6 18.9,-868.9"
         style="fill:#7fd5dc;fill-opacity:1;fill-rule:nonzero;stroke:none"
         id="path42" />
      <path
         d="m 14230.5,15616.1 c 0,-387.8 -241.7,-329.3 -582.7,-281.4 15.4,85.7 26.6,172 34,258.2 25.2,289.3 11,579.5 -18.9,868.9 332.9,-136.3 567.6,-463.6 567.6,-845.7"
         style="fill:#67ccc7;fill-opacity:1;fill-rule:nonzero;stroke:none"
         id="path44" />
      <path
         d="m 11637.1,14480.4 c 0,-154.6 -62.7,-294.5 -164,-395.8 -101.3,-101.3 -241.2,-164 -395.8,-164 -309.2,0 -559.8,250.6 -559.8,559.8 0,22 8.9,42.1 23.4,56.5 14.5,14.5 34.5,23.5 56.5,23.5 h 959.7 c 44.1,0 80,-35.9 80,-80"
         style="fill:#7fd5dc;fill-opacity:1;fill-rule:nonzero;stroke:none"
         id="path46" />
      <path
         d="m 7308.39,18499.2 c 36.82,16.2 74.11,31.2 111.85,45.1 -13.72,-5 -27.44,-10 -41.17,-15.1 206.27,75.3 419.15,134.5 633.16,183.1 231.68,52.6 466.27,91.4 701.63,123.3 155.2,21 310.8,39 466.54,55.4 22.23,4.2 41.86,13.3 58.91,27.4 18.97,11 34.24,26.1 45.83,45.2 13.3,18.8 21.01,39.4 23.14,61.8 6.14,22.2 6.25,44.7 0.33,67.5 -11.2,41.5 -34.56,82.1 -72.59,104.7 -13.16,6.3 -26.32,12.7 -39.48,19 -29.52,9.5 -59.44,11 -89.76,4.5 -146.86,-15.5 -293.59,-32.4 -439.97,-51.9 -129.58,-17.3 -258.9,-36.5 -387.68,-59 -118.62,-20.7 -236.77,-44.1 -354.12,-71 -111.43,-25.6 -222.12,-54.4 -331.81,-86.6 -130.48,-38.4 -261.12,-79.9 -387.26,-130.8 -17.95,-7.3 -35.78,-14.8 -53.51,-22.6 -20.2,-9.6 -36.71,-23.3 -49.53,-41.1 -15.73,-15.6 -26.75,-34.2 -33.06,-55.9 -8.15,-22.1 -10.26,-44.5 -6.35,-67.2 -0.1,-22.5 5.54,-43.8 16.92,-63.7 21.45,-37.2 54.49,-70.7 97.05,-82.6 14.86,-2.8 29.72,-5.5 44.58,-8.3 30.47,-1.4 59.26,4.9 86.35,18.8 v 0"
         style="fill:#ffffff;fill-opacity:1;fill-rule:nonzero;stroke:none"
         id="path48" />
      <path
         d="m 6723.89,18079.7 c 37.95,42.9 78.22,83.5 120.47,122.1 17.22,14.5 29.76,32 37.6,52.6 11.57,19.6 17.49,41 17.77,64.3 2.03,23.2 -1.75,45.2 -11.32,65.8 -5.77,21.3 -16.51,39.9 -32.21,56.1 -10.95,9.3 -21.91,18.7 -32.86,28.1 -25.57,16.5 -53.59,25.6 -84.06,27.2 -15.06,-1.2 -30.12,-2.5 -45.18,-3.8 -29,-6.6 -54.55,-19.8 -76.65,-39.7 -42.25,-38.6 -82.53,-79.3 -120.47,-122.1 -17.22,-14.5 -29.76,-32 -37.6,-52.6 -11.57,-19.6 -17.49,-41 -17.77,-64.3 -2.02,-23.2 1.75,-45.1 11.32,-65.8 5.77,-21.2 16.51,-39.9 32.21,-56 10.96,-9.4 21.91,-18.8 32.86,-28.1 25.58,-16.6 53.6,-25.7 84.07,-27.3 15.05,1.3 30.11,2.5 45.17,3.8 29,6.6 54.55,19.9 76.65,39.7 v 0"
         style="fill:#ffffff;fill-opacity:1;fill-rule:nonzero;stroke:none"
         id="path50" />
      <path
         d="m 13636,7269.4 c 614.1,138.7 1198.3,328.4 1591.7,467.8 -13,-63.3 -26.8,-125.9 -41.3,-187.8 -415.9,-144.5 -1003,-329.6 -1611.3,-460.8 l 60.9,180.8"
         style="fill:#4dbab8;fill-opacity:1;fill-rule:nonzero;stroke:none"
         id="path52" />
      <path
         d="m 16043.8,14607 278.9,43 c 450.1,69.3 782.3,456.6 782.3,912 v 889.6 c 0,455.4 -332.2,842.7 -782.3,912 l -278.9,43 V 14607"
         style="fill:#abb7c6;fill-opacity:1;fill-rule:nonzero;stroke:none"
         id="path54" />
      <path
         d="m 5956.2,14607 -278.89,43 c -450.11,69.3 -782.36,456.6 -782.36,912 v 889.6 c 0,455.4 332.25,842.7 782.36,912 l 278.89,43 V 14607"
         style="fill:#cbd3db;fill-opacity:1;fill-rule:nonzero;stroke:none"
         id="path56" />
      <path
         d="m 13636,7269.4 c -19.4,-60.7 -39.5,-121 -60.9,-180.8 -133.3,-28.9 -267.7,-55.1 -401.5,-77.7 v -489.2 l -63.6,-14.6 c -9.2,-2.1 -932.1,-209.7 -2032.7,-209.7 -1100.64,0 -2023.53,207.6 -2032.81,209.7 l -63.55,14.6 v 489.2 c -744.3,125.8 -1505.7,362.3 -2012.78,538.5 -14.49,61.9 -28.3,124.5 -41.34,187.8 511.53,-181.2 1345.85,-447.7 2148.78,-576.1 l 68.86,-10.9 v -497 c 224.57,-45.7 1015.74,-192.3 1932.84,-192.3 918,0 1708.4,146.5 1932.8,192.3 v 497 l 68.8,10.9 c 185.5,29.7 372.7,66.7 557.1,108.3"
         style="fill:#67ccc7;fill-opacity:1;fill-rule:nonzero;stroke:none"
         id="path58" />
      <path
         d="m 17533.2,5677.9 c -131.2,-200.2 -315.8,-329.8 -533.9,-374.6 -107.7,-22.1 -390,-52.7 -684.3,140.1 -316.5,207.4 -537.7,600.5 -657.5,1168.4 -57.2,270.9 -107.1,538.4 -155.4,797.2 -41.3,221.2 -80.5,430.6 -123.8,642.7 91.9,546.5 138.5,1131.1 138.5,1743.2 0,321.1 -62.7,627.2 -186.4,910 -106.7,243.7 -259,470.6 -453.3,676.1 528.6,-56 1046.3,-418.1 1506.2,-1057.3 271.1,-376.8 518.5,-845.5 735.3,-1393.1 229.7,-580 425.5,-1250 582,-1991.5 102,-483.5 41,-943.2 -167.4,-1261.2 z m -2434.5,1891.9 c -142.8,-613.7 -349.9,-1172.4 -615.5,-1660.7 -255.8,-470.3 -565.7,-875.3 -921.2,-1203.7 -694.7,-642 -1553.9,-981.3 -2484.7,-981.3 -930.8,0 -1790.03,339.3 -2484.76,981.3 -355.47,328.4 -665.4,733.4 -921.19,1203.7 -265.57,488.3 -472.67,1047 -615.56,1660.8 -14.57,62.3 -28.3,124.7 -40.87,185.7 -130.83,627.3 -197.17,1313.4 -197.17,2039.3 0,591.9 223.66,1109.3 664.74,1537.7 411.1,399.2 1009.48,707.3 1735.4,894.6 v -221.4 c 0,-301.8 200.25,-581.6 563.86,-787.7 347.55,-197.1 807.65,-305.6 1295.55,-305.6 487.9,0 948,108.5 1295.5,305.6 363.6,206.1 563.9,485.9 563.9,787.7 v 221.4 c 725.9,-187.3 1324.3,-495.4 1735.4,-894.6 441,-428.4 664.7,-945.8 664.7,-1537.7 0,-725.9 -66.3,-1412 -197.2,-2039.5 -12.6,-61.3 -26.4,-123.7 -40.9,-185.6 z M 6497.6,7395.3 c -16.5,-88.4 -33.07,-177.1 -50.01,-266.5 -38.43,-203.3 -71.83,-371.5 -105.09,-529.3 -119.81,-567.9 -341.03,-960.9 -657.53,-1168.3 -294.27,-192.9 -576.53,-162.2 -684.25,-140.1 -218.08,44.8 -402.72,174.3 -533.96,374.6 -208.39,318 -269.38,777.7 -167.33,1261.2 275.37,1304.6 661.88,2359 1148.78,3133.7 437.63,696.4 945.57,1135.8 1468.92,1270.8 118.13,30.5 237.74,45.4 355.93,45 -192.29,-204.2 -343.04,-429.7 -448.87,-671.5 -123.71,-282.8 -186.44,-588.9 -186.44,-910 0,-459.1 26.19,-902.8 78.02,-1326.4 -83.76,-353.7 -149.12,-703.4 -218.17,-1073.2 z m 302.76,5799 c -532.9,288.2 -863.94,844 -863.94,1450.6 v 2799.5 c 0,606.5 331.04,1162.3 863.94,1450.5 397.95,215.3 907.77,386.1 1515.27,507.8 747.02,149.6 1647.13,225.4 2675.37,225.4 1028.2,0 1928.3,-75.8 2675.3,-225.4 607.5,-121.7 1117.4,-292.5 1515.3,-507.8 532.9,-288.2 864,-844 864,-1450.5 v -2799.5 c 0,-606.6 -331.1,-1162.4 -864,-1450.6 -397.9,-215.3 -907.8,-386.1 -1515.3,-507.7 -747,-149.6 -1647.1,-225.5 -2675.3,-225.5 -1028.24,0 -1928.35,75.9 -2675.37,225.5 -607.5,121.6 -1117.32,292.4 -1515.27,507.7 z m -1614.74,1825.5 c -129.43,150.9 -200.71,343.4 -200.71,542.2 v 889.6 c 0,198.7 71.28,391.3 200.71,542.2 129.42,150.9 308.89,250.6 505.31,280.9 l 65.49,10 v -2555.8 l -65.46,10.1 c -196.46,30.2 -375.92,129.9 -505.34,280.8 z m 4557.21,5075.9 c 281.77,134.8 718.27,200.2 1334.47,200.2 1232.5,0 1585.7,-264.1 1708.8,-577.7 -544.2,59.8 -1144.6,89.9 -1795.1,89.9 -579.4,0 -1118.9,-23.9 -1614.41,-71.4 68.24,158.9 185.01,272.4 366.24,359 z m 7071.57,-3101.9 c 129.4,-150.9 200.7,-343.5 200.7,-542.2 V 15562 c 0,-198.8 -71.3,-391.3 -200.7,-542.2 -129.4,-150.9 -308.9,-250.6 -505.4,-280.8 l -83.4,-12.9 v 2561.4 l 83.4,-12.8 c 196.5,-30.3 376,-130 505.4,-280.9 z M 9397.89,12350.5 c 489.67,-46.1 1022.01,-69.4 1593.11,-69.4 638.8,0 1229.3,29.1 1765.7,86.8 v -362.1 c 0,-234.2 -167.9,-458.3 -472.7,-631.1 -320.9,-182 -749.4,-282.2 -1206.7,-282.2 -457.3,0 -885.9,100.2 -1206.76,282.2 -304.8,172.8 -472.65,396.9 -472.65,631.1 z M 17876.7,6976.3 c -158.6,751.4 -357.4,1431.2 -590.7,2020.6 -222.3,561.4 -476.9,1043.1 -756.6,1431.9 -536.7,746.1 -1157.4,1139.9 -1795.8,1139.9 -4.9,0 -9.8,0 -14.6,0 -12,-0.1 -24.4,-0.6 -36.9,-1.4 -422.2,366.3 -998.1,650.4 -1681.4,829.2 246.2,31.5 480.1,69.4 701,113.6 625.1,125.2 1151.8,302.1 1565.5,525.8 561.3,303.6 920.5,874.8 955.3,1507.6 l 113.9,17.6 c 238.9,36.7 457.2,158 614.6,341.5 157.4,183.5 244.1,417.7 244.1,659.4 v 889.6 c 0,241.7 -86.7,475.9 -244.1,659.4 -157.4,183.4 -375.6,304.8 -614.6,341.6 l -111.3,17.1 c -9.1,662.8 -374.2,1267.9 -957.9,1583.6 -413.7,223.7 -940.4,400.7 -1565.5,525.9 -226,45.2 -465.7,83.7 -718.2,115.7 -73.6,254.1 -227.7,432.1 -480.9,556.8 -306.5,150.9 -772.7,224.2 -1425.3,224.2 -643.7,0 -1105.61,-71.2 -1412.12,-217.8 -254.3,-121.6 -410.61,-294.8 -487.76,-542 -318.89,-35.5 -618.4,-81.1 -897.14,-136.9 -625.09,-125.2 -1151.82,-302.2 -1565.54,-525.9 -584.49,-316.1 -949.82,-922.5 -957.94,-1586.4 l -93.24,-14.3 c -238.91,-36.8 -457.17,-158.2 -614.57,-341.6 -157.4,-183.5 -244.08,-417.7 -244.08,-659.4 V 15562 c 0,-241.7 86.68,-475.9 244.08,-659.4 157.41,-183.5 375.67,-304.8 614.57,-341.5 l 95.75,-14.8 c 33.94,-633.9 393.31,-1206.3 955.43,-1510.4 413.72,-223.7 940.45,-400.6 1565.54,-525.8 255.94,-51.3 529.4,-94 819.28,-128.1 -677.63,-184.4 -1246.69,-473.5 -1660.7,-844.2 -53.31,11.8 -107.05,18.2 -157.75,18.6 -135.69,1.4 -273.42,-15.7 -408.94,-50.7 C 6303.46,11359 5758.36,10892.4 5295.81,10156.4 4797.58,9363.6 4403.09,8289.6 4123.31,6964 c -111.87,-530 -41.56,-1039.2 192.9,-1397 158.07,-241.2 382.25,-397.6 648.3,-452.2 45.36,-9.4 116.37,-19.9 204.58,-19.9 163.8,0 386.83,36.5 614.53,185.7 357.73,234.4 605.01,665.7 735,1281.8 33.54,159 67.17,328.4 105.83,532.9 16.97,89.5 33.57,178.4 50.09,266.9 38.61,206.8 76.13,407.2 116.21,605.2 14.9,-83.7 30.86,-166.6 47.92,-248.4 12.84,-62.3 26.93,-126.3 41.83,-190 146.54,-629.5 359.42,-1203.4 632.72,-1705.9 265.2,-487.6 587.23,-908.1 957.16,-1250 728.57,-673.2 1630.02,-1029 2606.92,-1029 976.8,0 1878.3,355.8 2606.9,1029 369.9,341.9 691.9,762.4 957.1,1250 273.3,502.5 486.2,1076.4 632.7,1705.8 4.2,18 8.2,36.1 12.3,54.2 12.9,-68.2 25.7,-137 38.8,-207.2 48.5,-259.7 98.7,-528.3 156.3,-801.3 130,-616.1 377.3,-1047.3 735,-1281.7 227.7,-149.2 450.7,-185.8 614.5,-185.8 88.2,0 159.2,10.6 204.6,19.9 266,54.7 490.2,211.1 648.3,452.3 234.5,357.8 304.8,867 192.9,1397"
         style="fill:#141a2f;fill-opacity:1;fill-rule:nonzero;stroke:none"
         id="path60" />
      <path
         d="m 6567.1,14607 v 2147.8 c 0,406.3 221.68,778.7 578.54,971.7 563.11,304.6 1702.31,667.6 3931.66,667.6 2229.3,0 3368.5,-363 3931.6,-667.6 356.9,-193 578.5,-565.4 578.5,-971.7 V 14607 c 0,-406.3 -221.6,-778.7 -578.5,-971.7 -563.1,-304.5 -1702.3,-667.6 -3931.6,-667.6 -2229.38,0 -3368.57,363.1 -3931.66,667.6 -356.86,193 -578.54,565.4 -578.54,971.7 z m 8527.4,-1130 c 415.1,224.5 672.9,657.5 672.9,1130 v 2147.8 c 0,472.5 -257.8,905.5 -672.9,1130 -1053.3,569.7 -2766,689.3 -4017.2,689.3 -1251.29,0 -2963.96,-119.6 -4017.29,-689.3 -415.07,-224.5 -672.91,-657.5 -672.91,-1130 V 14607 c 0,-472.5 257.84,-905.6 672.91,-1130 1053.29,-569.7 2765.98,-689.3 4017.29,-689.3 1251.2,0 2963.9,119.6 4017.2,689.3"
         style="fill:#141a2f;fill-opacity:1;fill-rule:nonzero;stroke:none"
         id="path62" />
      <path
         d="m 7523.3,9798.2 c -4.7,162.3 -2.82,325.9 18.49,487.1 -1.73,-12.9 -3.45,-25.7 -5.18,-38.6 7.98,59.4 18.64,118.5 35.18,176.1 14.3,49.8 32.2,98.6 52.31,146.3 -4.87,-11.6 -9.73,-23.1 -14.6,-34.7 49.83,117.4 115.49,227.5 193.36,328.3 -7.55,-9.7 -15.1,-19.5 -22.65,-29.3 69.84,90.1 149.06,172.7 235.34,247.2 25.47,22 51.56,43.2 78.16,63.8 -9.77,-7.5 -19.55,-15.1 -29.32,-22.6 111.35,85.9 231.84,159.6 358.25,221.2 36.99,18 74.49,34.9 112.4,51 -11.53,-4.9 -23.07,-9.8 -34.61,-14.7 68.24,28.7 137.78,54.1 208.36,76.4 35.58,11.2 67.49,34 86.58,66.6 18.17,31 25.87,76.8 14.61,111.6 -11.35,35.1 -33.07,68.9 -66.58,86.6 -33.78,17.8 -74.17,26.4 -111.64,14.6 -165.73,-52.3 -327.79,-121 -478.87,-207.1 -141.74,-80.7 -275.49,-178.3 -394.74,-289.7 -113.66,-106.1 -214.63,-228.2 -296.57,-360.4 -36.77,-59.4 -69.39,-121.3 -97.19,-185.3 -32.89,-75.8 -63.41,-152.9 -82.66,-233.4 -22.74,-95.1 -34.34,-193.4 -41.75,-290.8 -7.48,-98.2 -9.32,-196.8 -8.05,-295.2 0.33,-25 0.88,-50 1.61,-75 1.09,-37.9 15.4,-75.5 42.43,-102.5 25.13,-25.1 66.36,-44 102.45,-42.4 37.47,1.6 76.33,14 102.44,42.4 25.59,27.9 43.56,63.6 42.44,102.5 v 0"
         style="fill:#ffffff;fill-opacity:1;fill-rule:nonzero;stroke:none"
         id="path64" />
      <path
         d="m 7581.2,9150.6 c -5.42,34.2 -10.38,68.4 -14.99,102.6 1.73,-12.8 3.45,-25.7 5.18,-38.5 -0.61,4.5 -1.22,9.1 -1.81,13.6 0.75,19.9 -3.41,38.5 -12.48,55.8 -5.85,18 -15.83,33.5 -29.96,46.6 -13.12,14.2 -28.66,24.1 -46.63,30 -17.26,9.1 -35.87,13.2 -55.82,12.5 -12.83,-1.8 -25.67,-3.5 -38.51,-5.2 -24.54,-6.9 -45.85,-19.3 -63.93,-37.3 -7.55,-9.7 -15.1,-19.5 -22.66,-29.3 -13.1,-22.6 -19.7,-47 -19.78,-73.1 6.82,-51.7 13.8,-103.3 21.98,-154.7 4.48,-18.9 13.13,-35.3 25.93,-49.3 10.22,-15.7 23.77,-28.2 40.65,-37.3 16.63,-10.6 34.59,-16.3 53.87,-17.2 19.25,-4.3 38.51,-3.4 57.77,2.6 11.54,4.9 23.07,9.7 34.61,14.6 21.77,12.9 39.09,30.2 51.98,52 4.86,11.5 9.73,23.1 14.6,34.6 6.9,25.7 6.9,51.4 0,77 v 0"
         style="fill:#ffffff;fill-opacity:1;fill-rule:nonzero;stroke:none"
         id="path66" />
      <path
         d="m 13255,2054 c 0,-243 -1009.6,-440 -2255,-440 -1245.4,0 -2255,197 -2255,440 0,243.1 1009.6,440 2255,440 1245.4,0 2255,-196.9 2255,-440"
         style="fill:#dee4eb;fill-opacity:1;fill-rule:nonzero;stroke:none"
         id="path68" />
    </g>
  </g>
</svg>
