<svg width="24" height="24" viewBox="0 0 24 24" fill="none" xmlns="http://www.w3.org/2000/svg">
<rect width="24" height="24" fill="white"/>
<path d="M12 2.39999C6.69839 2.39999 2.39999 6.69839 2.39999 12C2.39999 17.3016 6.69839 21.6 12 21.6C17.3016 21.6 21.6 17.3016 21.6 12C21.6 6.69839 17.3016 2.39999 12 2.39999ZM13.1312 12C13.1312 12 15.6424 14.5112 15.7656 14.6344C16.0784 14.9472 16.0784 15.4536 15.7656 15.7656C15.4528 16.0784 14.9464 16.0784 14.6344 15.7656C14.5112 15.6432 12 13.1312 12 13.1312C12 13.1312 9.48879 15.6424 9.36559 15.7656C9.05279 16.0784 8.54639 16.0784 8.23439 15.7656C7.92159 15.4528 7.92159 14.9464 8.23439 14.6344C8.35679 14.5112 10.8688 12 10.8688 12C10.8688 12 8.35759 9.48879 8.23439 9.36559C7.92159 9.05279 7.92159 8.54639 8.23439 8.23439C8.54719 7.92159 9.05359 7.92159 9.36559 8.23439C9.48879 8.35679 12 10.8688 12 10.8688C12 10.8688 14.5112 8.35759 14.6344 8.23439C14.9472 7.92159 15.4536 7.92159 15.7656 8.23439C16.0784 8.54719 16.0784 9.05359 15.7656 9.36559C15.6432 9.48879 13.1312 12 13.1312 12Z" fill="#FF5B5B"/>
</svg>
