<svg width="100" height="100" viewBox="0 0 100 100" fill="none" xmlns="http://www.w3.org/2000/svg">
<path d="M39.665 78C38.616 78 37.731 77.639 37.037 76.927C36.348 76.219 36 75.408 36 74.517C36 74.004 36.126 73.518 36.376 73.068L57.227 23.819C57.762 22.638 58.789 22 60.13 22C61.033 22 61.892 22.306 62.683 22.908C63.545 23.568 64 24.481 64 25.551C64 26.089 63.903 26.585 63.71 27.024L42.91 76.115C42.623 76.747 42.161 77.222 41.528 77.552C40.949 77.85 40.323 78 39.665 78Z" fill="#C8EEFF"/>
<path d="M70.845 66C69.948 66 69.082 65.632 68.271 64.905C67.482 64.198 67.032 63.237 67.002 62.198C66.958 60.643 67.657 59.869 68.282 59.489L80.377 50.002L68.232 40.532C67.713 40.207 67 39.45 67 38.002C67 36.829 67.427 35.852 68.27 35.096C69.083 34.368 69.949 34 70.845 34C71.477 34 71.991 34.153 72.373 34.456L88.281 46.777C88.831 47.176 89.273 47.696 89.567 48.302C89.854 48.901 90 49.481 90 50.029C90 50.581 89.854 51.162 89.567 51.756C89.262 52.386 88.803 52.897 88.203 53.277L72.364 65.551C71.991 65.847 71.477 66 70.845 66Z" fill="#C8EEFF"/>
<path d="M29.155 66C28.523 66 28.009 65.847 27.627 65.544L11.719 53.223C11.197 52.897 10.738 52.386 10.433 51.758C10.146 51.162 10 50.581 10 50.029C10 49.481 10.146 48.901 10.432 48.305C10.728 47.696 11.169 47.176 11.745 46.758L27.637 34.448C28.009 34.153 28.523 34 29.155 34C30.051 34 30.916 34.368 31.729 35.096C32.573 35.852 33 36.829 33 38.002C33 39.45 32.287 40.207 31.689 40.587L19.622 50.002L31.717 59.489C32.342 59.869 33.041 60.643 32.997 62.198C32.967 63.237 32.517 64.198 31.728 64.905C30.918 65.632 30.052 66 29.155 66Z" fill="#C8EEFF"/>
<path d="M71.5 63.145C71.35 63.145 71.202 63.078 71.103 62.95C70.935 62.731 70.976 62.417 71.195 62.249L79.195 56.104C79.415 55.937 79.729 55.978 79.896 56.196C80.064 56.415 80.023 56.729 79.804 56.897L71.804 63.042C71.714 63.11 71.606 63.145 71.5 63.145Z" fill="#007BB0"/>
<path d="M81.314 55.607C81.164 55.607 81.016 55.54 80.917 55.412C80.749 55.193 80.79 54.879 81.009 54.711L81.967 53.975C82.187 53.808 82.5 53.849 82.668 54.067C82.836 54.286 82.795 54.6 82.576 54.768L81.618 55.504C81.527 55.573 81.42 55.607 81.314 55.607Z" fill="#007BB0"/>
<path d="M27.1 38.931C26.95 38.931 26.801 38.864 26.703 38.736C26.535 38.517 26.576 38.203 26.795 38.035L28.195 36.96C28.415 36.793 28.729 36.834 28.896 37.052C29.064 37.271 29.023 37.585 28.804 37.753L27.404 38.828C27.313 38.896 27.206 38.931 27.1 38.931Z" fill="#007BB0"/>
<path d="M17.729 46.129C17.579 46.129 17.431 46.062 17.332 45.934C17.164 45.715 17.205 45.401 17.424 45.233L25.073 39.358C25.293 39.191 25.607 39.232 25.774 39.45C25.942 39.669 25.901 39.983 25.682 40.151L18.033 46.026C17.942 46.095 17.835 46.129 17.729 46.129Z" fill="#007BB0"/>
<path d="M39.665 79C38.355 79 37.199 78.524 36.321 77.625C35.444 76.724 35 75.678 35 74.517C35 73.852 35.16 73.218 35.475 72.632L56.307 23.429C57.008 21.877 58.398 21 60.13 21C61.256 21 62.319 21.374 63.289 22.112C64.393 22.958 65 24.179 65 25.551C65 26.23 64.874 26.861 64.626 27.425L43.831 76.505C43.443 77.361 42.827 78.004 41.989 78.44C41.264 78.812 40.484 79 39.665 79ZM60.13 23C59.178 23 58.508 23.414 58.139 24.23L37.297 73.457C37.283 73.49 37.268 73.521 37.25 73.553C37.082 73.856 37 74.172 37 74.517C37 75.148 37.247 75.708 37.753 76.23C38.259 76.748 38.885 77 39.665 77C40.162 77 40.635 76.887 41.07 76.663C41.503 76.437 41.808 76.123 41.999 75.702L62.79 26.633C62.932 26.312 63 25.951 63 25.551C63 24.794 62.689 24.172 62.075 23.702C61.464 23.237 60.809 23 60.13 23Z" fill="#007BB0"/>
<path d="M70.845 67C69.694 67 68.604 66.546 67.604 65.65C66.609 64.757 66.041 63.542 66.003 62.226C65.943 60.125 67.021 59.104 67.709 58.668L78.755 50.003L67.655 41.349C67.12 41 66 40.026 66 38.002C66 36.554 66.554 35.291 67.603 34.352C68.605 33.454 69.696 33 70.845 33C71.708 33 72.431 33.227 72.994 33.672L88.893 45.986C89.552 46.464 90.104 47.121 90.466 47.866C90.821 48.604 91 49.331 91 50.029C91 50.733 90.821 51.461 90.468 52.191C90.08 52.991 89.499 53.639 88.738 54.121L72.977 66.341C72.428 66.776 71.708 67 70.845 67ZM70.845 35C70.203 35 69.561 35.283 68.937 35.841C68.307 36.406 68 37.113 68 38.002C68 39.051 68.478 39.506 68.763 39.685C68.792 39.704 68.82 39.723 68.847 39.744L80.992 49.214C81.235 49.403 81.377 49.693 81.377 50.002C81.377 50.31 81.236 50.6 80.994 50.79L68.899 60.277C68.868 60.301 68.835 60.324 68.801 60.344C68.238 60.687 67.976 61.283 68.001 62.17C68.023 62.932 68.355 63.639 68.938 64.161C69.56 64.718 70.202 65 70.845 65C71.241 65 71.551 64.919 71.743 64.767L87.59 52.487C88.109 52.153 88.445 51.779 88.667 51.321C88.888 50.863 89 50.43 89 50.029C89 49.633 88.888 49.197 88.666 48.735C88.446 48.282 88.118 47.894 87.694 47.587L71.761 35.247C71.551 35.081 71.246 35 70.845 35Z" fill="#007BB0"/>
<path d="M29.155 67C28.292 67 27.569 66.773 27.006 66.328L11.144 54.042C10.474 53.61 9.903 52.956 9.533 52.194C9.179 51.461 9 50.732 9 50.029C9 49.331 9.178 48.605 9.53 47.873C9.9 47.111 10.446 46.466 11.156 45.95L27.023 33.658C27.572 33.224 28.292 33 29.155 33C30.304 33 31.395 33.454 32.396 34.351C33.445 35.291 34 36.554 34 38.002C34 39.486 33.37 40.704 32.226 41.431L21.245 50.004L32.292 58.669C32.98 59.105 34.057 60.126 33.998 62.227C33.96 63.542 33.392 64.758 32.397 65.65C31.396 66.546 30.306 67 29.155 67ZM29.155 35C28.759 35 28.449 35.081 28.257 35.233L12.357 47.549C11.891 47.888 11.555 48.282 11.332 48.741C11.112 49.198 11 49.633 11 50.029C11 50.428 11.112 50.864 11.333 51.323C11.548 51.766 11.874 52.14 12.249 52.374C12.277 52.393 12.305 52.411 12.332 52.432L28.24 64.753C28.449 64.919 28.754 65 29.155 65C29.798 65 30.44 64.718 31.061 64.16C31.644 63.639 31.976 62.931 31.998 62.17C32.023 61.283 31.761 60.687 31.198 60.344C31.164 60.323 31.132 60.301 31.1 60.277L19.005 50.79C18.763 50.6 18.622 50.31 18.622 50.002C18.622 49.694 18.765 49.403 19.007 49.215L31.074 39.8C31.715 39.386 32 38.8 32 38.002C32 37.113 31.693 36.406 31.062 35.841C30.439 35.283 29.797 35 29.155 35Z" fill="#007BB0"/>
</svg>
