<svg width="100" height="100" viewBox="0 0 100 100" fill="none" xmlns="http://www.w3.org/2000/svg">
<path d="M17.1875 6.40625H82.8125C87.9687 6.40625 92.1875 10.625 92.1875 15.7813V81.4062C92.1875 86.5625 87.9687 90.7812 82.8125 90.7812H17.1875C12.0313 90.7812 7.8125 86.5625 7.8125 81.4062V15.7813C7.8125 10.4688 12.0313 6.40625 17.1875 6.40625Z" fill="#85CBF8"/>
<path d="M14.0625 7.8125H85.9375C89.375 7.8125 92.1875 10.625 92.1875 14.0625C92.1875 16.7188 90.1563 18.75 87.5 18.75H12.5C9.84375 18.75 7.8125 16.7188 7.8125 14.0625C7.8125 10.625 10.625 7.8125 14.0625 7.8125Z" fill="#ACE3FF"/>
<path d="M82.8125 6.25H17.1875C11.0937 6.25 6.25 11.0937 6.25 17.1875V82.8125C6.25 88.9063 11.0937 93.75 17.1875 93.75H82.8125C88.9063 93.75 93.75 88.9063 93.75 82.8125V17.1875C93.75 11.0937 88.9063 6.25 82.8125 6.25ZM90.625 82.8125C90.625 87.1875 87.1875 90.625 82.8125 90.625H17.1875C12.8125 90.625 9.375 87.1875 9.375 82.8125V17.1875C9.375 12.8125 12.8125 9.375 17.1875 9.375H82.8125C87.1875 9.375 90.625 12.8125 90.625 17.1875V82.8125Z" fill="#007BB0"/>
<path d="M21.875 15.625C20.9375 15.625 20.3125 16.25 20.3125 17.1875V20.3125C20.3125 21.25 20.9375 21.875 21.875 21.875C22.8125 21.875 23.4375 21.25 23.4375 20.3125V17.1875C23.4375 16.25 22.8125 15.625 21.875 15.625ZM14.0625 15.625C13.125 15.625 12.5 16.25 12.5 17.1875V20.3125C12.5 21.25 13.125 21.875 14.0625 21.875C15 21.875 15.625 21.25 15.625 20.3125V17.1875C15.625 16.25 15 15.625 14.0625 15.625ZM45.3125 21.875C46.25 21.875 46.875 21.25 46.875 20.3125V17.1875C46.875 16.25 46.25 15.625 45.3125 15.625C44.375 15.625 43.75 16.25 43.75 17.1875V20.3125C43.75 21.25 44.375 21.875 45.3125 21.875ZM53.125 21.875C54.0625 21.875 54.6875 21.25 54.6875 20.3125V17.1875C54.6875 16.25 54.0625 15.625 53.125 15.625C52.1875 15.625 51.5625 16.25 51.5625 17.1875V20.3125C51.5625 21.25 52.1875 21.875 53.125 21.875ZM62.5 17.1875C62.5 16.25 61.875 15.625 60.9375 15.625C60 15.625 59.375 16.25 59.375 17.1875V20.3125C59.375 21.25 60 21.875 60.9375 21.875C61.875 21.875 62.5 21.25 62.5 20.3125V17.1875ZM68.75 21.875C69.6875 21.875 70.3125 21.25 70.3125 20.3125V17.1875C70.3125 16.25 69.6875 15.625 68.75 15.625C67.8125 15.625 67.1875 16.25 67.1875 17.1875V20.3125C67.1875 21.25 67.8125 21.875 68.75 21.875ZM76.5625 15.625C75.625 15.625 75 16.25 75 17.1875V20.3125C75 21.25 75.625 21.875 76.5625 21.875C77.5 21.875 78.125 21.25 78.125 20.3125V17.1875C78.125 16.25 77.5 15.625 76.5625 15.625ZM84.375 15.625C83.4375 15.625 82.8125 16.25 82.8125 17.1875V20.3125C82.8125 21.25 83.4375 21.875 84.375 21.875C85.3125 21.875 85.9375 21.25 85.9375 20.3125V17.1875C85.9375 16.25 85.3125 15.625 84.375 15.625ZM29.6875 21.875C30.625 21.875 31.25 21.25 31.25 20.3125V17.1875C31.25 16.25 30.625 15.625 29.6875 15.625C28.75 15.625 28.125 16.25 28.125 17.1875V20.3125C28.125 21.25 28.75 21.875 29.6875 21.875ZM37.5 21.875C38.4375 21.875 39.0625 21.25 39.0625 20.3125V17.1875C39.0625 16.25 38.4375 15.625 37.5 15.625C36.5625 15.625 35.9375 16.25 35.9375 17.1875V20.3125C35.9375 21.25 36.5625 21.875 37.5 21.875Z" fill="#007BB0"/>
<path d="M79.6875 62.5H68.75V39.0625C68.75 38.125 68.125 37.5 67.1875 37.5C66.25 37.5 65.625 38.125 65.625 39.0625V64.0625C65.625 65 66.25 65.625 67.1875 65.625H79.6875C80.625 65.625 81.25 65 81.25 64.0625C81.25 63.125 80.625 62.5 79.6875 62.5ZM51.5625 37.5C47.1875 37.5 43.75 40.9375 43.75 45.3125V57.8125C43.75 62.1875 47.1875 65.625 51.5625 65.625C52.1875 65.625 52.8125 65.625 53.2812 65.4688C53.9062 67.5 55.625 68.75 57.8125 68.75C58.75 68.75 59.375 68.125 59.375 67.1875C59.375 66.25 58.75 65.625 57.8125 65.625C56.875 65.625 56.25 65 56.25 64.0625C58.2812 62.6563 59.375 60.3125 59.375 57.8125V45.3125C59.375 40.9375 55.9375 37.5 51.5625 37.5ZM56.25 57.8125C56.25 60.4688 54.2188 62.5 51.5625 62.5C48.9062 62.5 46.875 60.4688 46.875 57.8125V45.3125C46.875 42.6562 48.9062 40.625 51.5625 40.625C54.2188 40.625 56.25 42.6562 56.25 45.3125V57.8125ZM31.25 37.5H29.2188C25.1563 37.5 21.875 40.7813 21.875 44.8438C21.875 47.6563 23.4375 50.1563 25.9375 51.4063L32.0312 54.5313C34.0625 55.625 34.8438 58.2812 33.75 60.3125C32.9688 61.5625 31.7187 62.5 30.1562 62.5H28.125C26.4062 62.5 25 61.0938 25 59.375V57.8125C25 56.875 24.375 56.25 23.4375 56.25C22.5 56.25 21.875 56.875 21.875 57.8125V59.375C21.875 62.8125 24.6875 65.625 28.125 65.625H30.1562C34.2187 65.625 37.5 62.3437 37.5 58.2812C37.5 55.4687 35.9375 52.9687 33.4375 51.7187L27.3438 48.5938C25.3125 47.5 24.5312 44.8437 25.625 42.8125C26.4062 41.5625 27.6563 40.625 29.2188 40.625H31.25C32.9688 40.625 34.375 42.0312 34.375 43.75V45.3125C34.375 46.25 35 46.875 35.9375 46.875C36.875 46.875 37.5 46.25 37.5 45.3125V43.75C37.5 40.3125 34.6875 37.5 31.25 37.5Z" fill="white"/>
</svg>
