<svg width="147" height="117" viewBox="0 0 147 117" fill="none" xmlns="http://www.w3.org/2000/svg">
<g clip-path="url(#clip0_606_6)">
<path d="M54.0225 35.5875L72.6375 22.9175L88.275 29.62L84.7325 36.47L72.6325 31.71L57.8875 42.19L54.0225 35.5875Z" fill="#009FE4"/>
<path d="M72.775 24.3375L86.5475 30.24L84.1425 34.895L73.7225 30.7925L72.4625 30.2975L71.3575 31.0825L58.2775 40.38L55.6925 35.9625L72.775 24.3375ZM72.5 21.5L52.355 35.21L57.5 44L72.805 33.12L85.325 38.0475L90 29L72.5 21.5Z" fill="#009FE4"/>
<path d="M54.0225 44.9125L57.8875 38.31L72.6325 48.79L84.7325 44.03L88.275 50.88L72.6375 57.5825L54.0225 44.9125Z" fill="#009FE4"/>
<path d="M58.2775 40.12L71.3575 49.4175L72.4625 50.2025L73.7225 49.7075L84.1425 45.605L86.5475 50.26L72.775 56.1625L55.6925 44.5375L58.2775 40.12ZM57.5 36.5L52.355 45.29L72.5 59L90 51.5L85.325 42.4525L72.805 47.38L57.5 36.5Z" fill="#009FE4"/>
<path d="M23.74 32.75H56.25V47.75H23.74V32.75Z" fill="#009FE4"/>
<path d="M55 34V46.5H24.99V34H55ZM57.5 31.5H22.49V49H57.5V31.5Z" fill="#009FE4"/>
<path d="M9.725 44.305L23.4625 39.7775L46.7075 95.3725L32.9675 99.9L9.725 44.305Z" fill="#009FE4"/>
<path d="M22.755 41.325L45.0325 94.6075L33.675 98.3525L11.3975 45.07L22.755 41.325ZM24.17 38.2275L8.0475 43.5425L32.26 101.452L48.38 96.1375L24.17 38.2275Z" fill="#009FE4"/>
<path d="M15 27.75C11.3533 27.75 7.85591 29.1987 5.27728 31.7773C2.69866 34.3559 1.25 37.8533 1.25 41.5C1.25 45.1467 2.69866 48.6441 5.27728 51.2227C7.85591 53.8013 11.3533 55.25 15 55.25C18.6467 55.25 22.1441 53.8013 24.7227 51.2227C27.3013 48.6441 28.75 45.1467 28.75 41.5C28.75 37.8533 27.3013 34.3559 24.7227 31.7773C22.1441 29.1987 18.6467 27.75 15 27.75Z" fill="#DFF0FE"/>
<path d="M15 29C21.8925 29 27.5 34.6075 27.5 41.5C27.5 48.3925 21.8925 54 15 54C8.1075 54 2.5 48.3925 2.5 41.5C2.5 34.6075 8.1075 29 15 29ZM15 26.5C6.715 26.5 0 33.215 0 41.5C0 49.785 6.715 56.5 15 56.5C23.285 56.5 30 49.785 30 41.5C30 33.215 23.285 26.5 15 26.5Z" fill="#009FE4"/>
<path d="M55 50.25C52.9325 50.25 51.25 48.5675 51.25 46.5V34C51.25 31.9325 52.9325 30.25 55 30.25H61.25V50.25H55Z" fill="#DFF0FE"/>
<path d="M60 31.5V49H55C53.6225 49 52.5 47.8775 52.5 46.5V34C52.5 32.6225 53.6225 31.5 55 31.5H60ZM62.5 29H55C52.2375 29 50 31.2375 50 34V46.5C50 49.2625 52.2375 51.5 55 51.5H62.5V29Z" fill="#009FE4"/>
<path d="M14.6525 105.25L26.435 84.6425C27.1025 83.475 28.3525 82.75 29.6975 82.75H41.745C43.09 82.75 44.34 83.475 45.0075 84.6425L56.79 105.25H14.6525Z" fill="#DFF0FE"/>
<path d="M41.7475 84C42.645 84 43.48 84.485 43.925 85.2625L54.635 104H16.8075L27.5175 85.2625C27.965 84.485 28.7975 84 29.695 84H41.7475ZM41.7475 81.5H29.6975C27.9 81.5 26.24 82.4625 25.35 84.0225L12.5 106.5H58.9425L46.095 84.0225C45.2025 82.4625 43.545 81.5 41.7475 81.5Z" fill="#009FE4"/>
<path d="M15 37.75C14.0054 37.75 13.0516 38.1451 12.3483 38.8483C11.6451 39.5516 11.25 40.5054 11.25 41.5C11.25 42.4946 11.6451 43.4484 12.3483 44.1517C13.0516 44.8549 14.0054 45.25 15 45.25C15.9946 45.25 16.9484 44.8549 17.6517 44.1517C18.3549 43.4484 18.75 42.4946 18.75 41.5C18.75 40.5054 18.3549 39.5516 17.6517 38.8483C16.9484 38.1451 15.9946 37.75 15 37.75Z" fill="#009FE4"/>
<path d="M15 39C16.3775 39 17.5 40.1225 17.5 41.5C17.5 42.8775 16.3775 44 15 44C13.6225 44 12.5 42.8775 12.5 41.5C12.5 40.1225 13.6225 39 15 39ZM15 36.5C12.2375 36.5 10 38.7375 10 41.5C10 44.2625 12.2375 46.5 15 46.5C17.7625 46.5 20 44.2625 20 41.5C20 38.7375 17.7625 36.5 15 36.5Z" fill="#009FE4"/>
<path d="M34.9975 90.25C34.0029 90.25 33.0491 90.6451 32.3458 91.3484C31.6426 92.0516 31.2475 93.0054 31.2475 94C31.2475 94.9946 31.6426 95.9484 32.3458 96.6516C33.0491 97.3549 34.0029 97.75 34.9975 97.75C35.9921 97.75 36.9459 97.3549 37.6491 96.6516C38.3524 95.9484 38.7475 94.9946 38.7475 94C38.7475 93.0054 38.3524 92.0516 37.6491 91.3484C36.9459 90.6451 35.9921 90.25 34.9975 90.25Z" fill="#009FE4"/>
<path d="M34.9975 91.5C36.3775 91.5 37.5 92.6225 37.5 94C37.5 95.3775 36.3775 96.5 34.9975 96.5C33.6175 96.5 32.495 95.3775 32.495 94C32.495 92.6225 33.62 91.5 34.9975 91.5ZM34.9975 89C32.235 89 29.995 91.2375 29.995 94C29.995 96.7625 32.235 99 34.9975 99C37.76 99 40 96.7625 40 94C40 91.2375 37.76 89 34.9975 89Z" fill="#009FE4"/>
<path d="M8.75 115.25V111.5C8.75 108.053 11.5525 105.25 15 105.25H75C78.4475 105.25 81.25 108.053 81.25 111.5V115.25H8.75Z" fill="#009FE4"/>
<path d="M75 106.5C77.7575 106.5 80 108.742 80 111.5V114H10V111.5C10 108.742 12.2425 106.5 15 106.5H75ZM75 104H15C10.875 104 7.5 107.375 7.5 111.5V116.5H82.5V111.5C82.5 107.375 79.125 104 75 104Z" fill="#009FE4"/>
<mask id="mask0_606_6" style="mask-type:luminance" maskUnits="userSpaceOnUse" x="63" y="0" width="85" height="92">
<path d="M88.6251 0C87.672 0.179688 86.9845 1.02344 87.0001 2V18C87.0001 19.1016 87.8986 20 89.0001 20H103V22.5625C101.805 23.2578 101 24.5234 101 26H87.6251C84.8595 26 82.4454 27.4375 81.0001 29.5625C79.9376 28.6016 78.5314 28 77.0001 28C73.7111 28 71.0001 30.7109 71.0001 34C71.0001 35.8828 71.8751 37.5859 73.2501 38.6875L67.5001 56.25C64.9376 56.9375 63.0001 59.2344 63.0001 62C62.9923 62.7188 63.3673 63.3906 63.9923 63.7578C64.6173 64.1172 65.3829 64.1172 66.0079 63.7578C66.6329 63.3906 67.0079 62.7188 67.0001 62C67.0001 60.8672 67.8673 60 69.0001 60C70.1329 60 71.0001 60.8672 71.0001 62C70.9923 62.7188 71.3673 63.3906 71.9923 63.7578C72.6173 64.1172 73.3829 64.1172 74.0079 63.7578C74.6329 63.3906 75.0079 62.7188 75.0001 62C75.0001 59.6484 73.6173 57.6094 71.6251 56.625L77.0626 40C78.1564 39.9844 79.1798 39.6562 80.0626 39.125L82.5001 64.75C82.8907 68.8359 86.3282 72 90.4376 72H95.0001V86C95.0001 89.2891 97.7111 92 101 92H111C114.289 92 117 89.2891 117 86V72H121.25C125.5 72 129.047 68.6172 129.25 64.375L130.438 39.375C131.203 39.7422 132.039 39.9922 132.938 40L138.375 56.625C136.383 57.6094 135 59.6484 135 62C134.992 62.7188 135.367 63.3906 135.992 63.7578C136.617 64.1172 137.383 64.1172 138.008 63.7578C138.633 63.3906 139.008 62.7188 139 62C139 60.8672 139.867 60 141 60C142.133 60 143 60.8672 143 62C142.992 62.7188 143.367 63.3906 143.992 63.7578C144.617 64.1172 145.383 64.1172 146.008 63.7578C146.633 63.3906 147.008 62.7188 147 62C147 59.2344 145.063 56.9375 142.5 56.25L136.75 38.6875C138.125 37.5859 139 35.8828 139 34C139 30.7109 136.289 28 133 28C131.563 28 130.227 28.5156 129.188 29.375C127.734 27.3516 125.359 26 122.688 26H109C109 24.5234 108.195 23.2578 107 22.5625V20H121C122.102 20 123 19.1016 123 18V2C123 0.898438 122.102 0 121 0H89.0001C88.9376 0 88.8751 0 88.8126 0C88.7501 0 88.6876 0 88.6251 0ZM91.0001 4H119V16H91.0001V4ZM99.0001 8C97.8986 8 97.0001 8.89844 97.0001 10C97.0001 11.1016 97.8986 12 99.0001 12C100.102 12 101 11.1016 101 10C101 8.89844 100.102 8 99.0001 8ZM111 8C109.899 8 109 8.89844 109 10C109 11.1016 109.899 12 111 12C112.102 12 113 11.1016 113 10C113 8.89844 112.102 8 111 8ZM87.6251 30H122.688C125 30 126.797 31.875 126.688 34.1875L125.25 64.1875C125.149 66.3359 123.406 68 121.25 68H90.4376C88.3595 68 86.6954 66.4453 86.5001 64.375L83.6251 34.375C83.3986 31.9922 85.2345 30 87.6251 30ZM77.0001 32C78.1251 32 79.0001 32.875 79.0001 34C79.0001 35.125 78.1251 36 77.0001 36C76.7579 36 76.5236 35.9453 76.3126 35.875C76.2736 35.875 76.2267 35.875 76.1876 35.875C75.4689 35.5781 75.0001 34.8438 75.0001 34C75.0001 32.875 75.8751 32 77.0001 32ZM133 32C134.125 32 135 32.875 135 34C135 34.7969 134.586 35.4844 133.938 35.8125C133.813 35.8438 133.68 35.8828 133.563 35.9375C133.391 35.9844 133.195 36 133 36C131.875 36 131 35.125 131 34C131 32.875 131.875 32 133 32ZM99.0001 72H113V74H109V78H113V82H109V86H113C113 87.1328 112.133 88 111 88H101C99.8673 88 99.0001 87.1328 99.0001 86H103V82H99.0001V78H103V74H99.0001V72Z" fill="white"/>
</mask>
<g mask="url(#mask0_606_6)">
<path d="M88.6251 0C87.672 0.179688 86.9845 1.02344 87.0001 2V18C87.0001 19.1016 87.8986 20 89.0001 20H103V22.5625C101.805 23.2578 101 24.5234 101 26H87.6251C84.8595 26 82.4454 27.4375 81.0001 29.5625C79.9376 28.6016 78.5314 28 77.0001 28C73.7111 28 71.0001 30.7109 71.0001 34C71.0001 35.8828 71.8751 37.5859 73.2501 38.6875L67.5001 56.25C64.9376 56.9375 63.0001 59.2344 63.0001 62C62.9923 62.7188 63.3673 63.3906 63.9923 63.7578C64.6173 64.1172 65.3829 64.1172 66.0079 63.7578C66.6329 63.3906 67.0079 62.7188 67.0001 62C67.0001 60.8672 67.8673 60 69.0001 60C70.1329 60 71.0001 60.8672 71.0001 62C70.9923 62.7188 71.3673 63.3906 71.9923 63.7578C72.6173 64.1172 73.3829 64.1172 74.0079 63.7578C74.6329 63.3906 75.0079 62.7188 75.0001 62C75.0001 59.6484 73.6173 57.6094 71.6251 56.625L77.0626 40C78.1564 39.9844 79.1798 39.6562 80.0626 39.125L82.5001 64.75C82.8907 68.8359 86.3282 72 90.4376 72H95.0001V86C95.0001 89.2891 97.7111 92 101 92H111C114.289 92 117 89.2891 117 86V72H121.25C125.5 72 129.047 68.6172 129.25 64.375L130.438 39.375C131.203 39.7422 132.039 39.9922 132.938 40L138.375 56.625C136.383 57.6094 135 59.6484 135 62C134.992 62.7188 135.367 63.3906 135.992 63.7578C136.617 64.1172 137.383 64.1172 138.008 63.7578C138.633 63.3906 139.008 62.7188 139 62C139 60.8672 139.867 60 141 60C142.133 60 143 60.8672 143 62C142.992 62.7188 143.367 63.3906 143.992 63.7578C144.617 64.1172 145.383 64.1172 146.008 63.7578C146.633 63.3906 147.008 62.7188 147 62C147 59.2344 145.063 56.9375 142.5 56.25L136.75 38.6875C138.125 37.5859 139 35.8828 139 34C139 30.7109 136.289 28 133 28C131.563 28 130.227 28.5156 129.188 29.375C127.734 27.3516 125.359 26 122.688 26H109C109 24.5234 108.195 23.2578 107 22.5625V20H121C122.102 20 123 19.1016 123 18V2C123 0.898438 122.102 0 121 0H89.0001C88.9376 0 88.8751 0 88.8126 0C88.7501 0 88.6876 0 88.6251 0ZM91.0001 4H119V16H91.0001V4ZM99.0001 8C97.8986 8 97.0001 8.89844 97.0001 10C97.0001 11.1016 97.8986 12 99.0001 12C100.102 12 101 11.1016 101 10C101 8.89844 100.102 8 99.0001 8ZM111 8C109.899 8 109 8.89844 109 10C109 11.1016 109.899 12 111 12C112.102 12 113 11.1016 113 10C113 8.89844 112.102 8 111 8ZM87.6251 30H122.688C125 30 126.797 31.875 126.688 34.1875L125.25 64.1875C125.149 66.3359 123.406 68 121.25 68H90.4376C88.3595 68 86.6954 66.4453 86.5001 64.375L83.6251 34.375C83.3986 31.9922 85.2345 30 87.6251 30ZM77.0001 32C78.1251 32 79.0001 32.875 79.0001 34C79.0001 35.125 78.1251 36 77.0001 36C76.7579 36 76.5236 35.9453 76.3126 35.875C76.2736 35.875 76.2267 35.875 76.1876 35.875C75.4689 35.5781 75.0001 34.8438 75.0001 34C75.0001 32.875 75.8751 32 77.0001 32ZM133 32C134.125 32 135 32.875 135 34C135 34.7969 134.586 35.4844 133.938 35.8125C133.813 35.8438 133.68 35.8828 133.563 35.9375C133.391 35.9844 133.195 36 133 36C131.875 36 131 35.125 131 34C131 32.875 131.875 32 133 32ZM99.0001 72H113V74H109V78H113V82H109V86H113C113 87.1328 112.133 88 111 88H101C99.8673 88 99.0001 87.1328 99.0001 86H103V82H99.0001V78H103V74H99.0001V72Z" stroke="#009FE4" stroke-width="2"/>
</g>
</g>
<defs>
<clipPath id="clip0_606_6">
<rect width="147" height="117" fill="white"/>
</clipPath>
</defs>
</svg>
