<svg width="77" height="50" viewBox="0 0 77 50" fill="none" xmlns="http://www.w3.org/2000/svg">
<path d="M1 9.53061L22.153 25L1 40.4694L1 9.53061Z" fill="#EAF8FF" stroke="#AED6E9"/>
<circle cx="52" cy="25" r="24.5" stroke="#AED6E9"/>
<path d="M50.4485 10.85C50.0326 10.85 49.6722 11.1454 49.5906 11.5534C49.5904 11.5546 49.5902 11.5557 49.59 11.5568L49.0287 14.7H48.825C47.9573 14.7 47.25 15.4073 47.25 16.275V16.45H45.85C43.1479 16.45 40.95 18.6479 40.95 21.35V22.1108L39.55 22.3815V16.0686C39.954 15.9982 40.2809 15.8089 40.5118 15.549C40.8064 15.2176 40.95 14.7826 40.95 14.35C40.95 13.9174 40.8064 13.4824 40.5118 13.151C40.2173 12.8196 39.7688 12.6 39.2 12.6C38.6313 12.6 38.1828 12.8196 37.8882 13.151C37.5936 13.4824 37.45 13.9174 37.45 14.35C37.45 14.7826 37.5936 15.2176 37.8882 15.549C38.1192 15.8089 38.446 15.9982 38.85 16.0686V22.5169L38.5561 22.5736C38.5529 22.5741 38.5497 22.5745 38.5465 22.575C37.908 22.717 37.45 23.288 37.45 23.9422V26.8078C37.45 27.4623 37.9081 28.0324 38.5465 28.1743C38.5497 28.1751 38.5529 28.1757 38.5561 28.1764L40.95 28.6392V32.55C40.95 35.2521 43.1479 37.45 45.85 37.45H58.8C61.5021 37.45 63.7 35.2521 63.7 32.55V28.6392L66.094 28.1764C66.0972 28.1757 66.1003 28.1751 66.1035 28.1743C66.7419 28.0324 67.2 27.4623 67.2 26.8078V23.9422C67.2 23.288 66.7421 22.717 66.1035 22.575C66.1003 22.5745 66.0972 22.5741 66.094 22.5736L65.8 22.5169V16.0686C66.204 15.9982 66.5309 15.8089 66.7618 15.549C67.0564 15.2176 67.2 14.7826 67.2 14.35C67.2 13.9174 67.0564 13.4824 66.7618 13.151C66.4673 12.8196 66.0188 12.6 65.45 12.6C64.8813 12.6 64.4328 12.8196 64.1382 13.151C63.8436 13.4824 63.7 13.9174 63.7 14.35C63.7 14.7826 63.8436 15.2176 64.1382 15.549C64.3692 15.8089 64.696 15.9982 65.1 16.0686V22.3815L63.7 22.1108V21.35C63.7 18.6479 61.5021 16.45 58.8 16.45H57.4V16.275C57.4 15.4073 56.6928 14.7 55.825 14.7H55.6213L55.0594 11.5568C55.0592 11.5557 55.0589 11.5546 55.0587 11.5534C54.9771 11.1454 54.6167 10.85 54.2008 10.85H50.4485ZM50.4485 11.2H54.2008C54.452 11.2 54.6662 11.376 54.7155 11.6225L55.2658 14.7H49.3842L49.9338 11.6225C49.9831 11.376 50.1974 11.2 50.4485 11.2ZM39.2 12.95C39.6813 12.95 40.0203 13.1242 40.2507 13.3834C40.4811 13.6426 40.6 13.9951 40.6 14.35C40.6 14.7049 40.4811 15.0574 40.2507 15.3166C40.0203 15.5758 39.6813 15.75 39.2 15.75C38.7188 15.75 38.3798 15.5758 38.1493 15.3166C37.9189 15.0574 37.8 14.7049 37.8 14.35C37.8 13.9951 37.9189 13.6426 38.1493 13.3834C38.3798 13.1242 38.7188 12.95 39.2 12.95ZM65.45 12.95C65.9313 12.95 66.2703 13.1242 66.5007 13.3834C66.7311 13.6426 66.85 13.9951 66.85 14.35C66.85 14.7049 66.7311 15.0574 66.5007 15.3166C66.2703 15.5758 65.9313 15.75 65.45 15.75C64.9688 15.75 64.6298 15.5758 64.3993 15.3166C64.1689 15.0574 64.05 14.7049 64.05 14.35C64.05 13.9951 64.1689 13.6426 64.3993 13.3834C64.6298 13.1242 64.9688 12.95 65.45 12.95ZM48.825 15.05H49.1668H55.475H55.825C56.5036 15.05 57.05 15.5964 57.05 16.275V16.45H47.6V16.275C47.6 15.5964 48.1465 15.05 48.825 15.05ZM45.85 17.15H58.8C61.1239 17.15 63 19.0261 63 21.35V22.4V28.35V32.55C63 34.8739 61.1239 36.75 58.8 36.75H45.85C43.5261 36.75 41.65 34.8739 41.65 32.55V28.35V22.4V21.35C41.65 19.0261 43.5261 17.15 45.85 17.15ZM47.25 20.65C45.5124 20.65 44.1 22.0624 44.1 23.8C44.1 25.5376 45.5124 26.95 47.25 26.95C48.9876 26.95 50.4 25.5376 50.4 23.8C50.4 22.0624 48.9876 20.65 47.25 20.65ZM57.4 20.65C55.6624 20.65 54.25 22.0624 54.25 23.8C54.25 25.5376 55.6624 26.95 57.4 26.95C59.1376 26.95 60.55 25.5376 60.55 23.8C60.55 22.0624 59.1376 20.65 57.4 20.65ZM47.25 21C48.7985 21 50.05 22.2515 50.05 23.8C50.05 25.3485 48.7985 26.6 47.25 26.6C45.7015 26.6 44.45 25.3485 44.45 23.8C44.45 22.2515 45.7015 21 47.25 21ZM57.4 21C58.9485 21 60.2 22.2515 60.2 23.8C60.2 25.3485 58.9485 26.6 57.4 26.6C55.8515 26.6 54.6 25.3485 54.6 23.8C54.6 22.2515 55.8515 21 57.4 21ZM47.25 22.4C46.4779 22.4 45.85 23.0279 45.85 23.8C45.85 24.5721 46.4779 25.2 47.25 25.2C48.0221 25.2 48.65 24.5721 48.65 23.8C48.65 23.0279 48.0221 22.4 47.25 22.4ZM57.4 22.4C56.6279 22.4 56 23.0279 56 23.8C56 24.5721 56.6279 25.2 57.4 25.2C58.1721 25.2 58.8 24.5721 58.8 23.8C58.8 23.0279 58.1721 22.4 57.4 22.4ZM40.95 22.8245V27.9255L38.6887 27.4894L38.6983 27.4907C38.3762 27.4191 38.15 27.1382 38.15 26.8078V23.9422C38.15 23.6124 38.376 23.3304 38.6976 23.2586H38.6983L40.95 22.8245ZM63.7 22.8245L65.9518 23.2586H65.9525C66.274 23.3304 66.5 23.6124 66.5 23.9422V26.8078C66.5 27.1382 66.2738 27.4191 65.9518 27.4907L65.9613 27.4894L63.7 27.9255V22.8245ZM48.1223 29.7473C48.1136 29.7475 48.1049 29.7484 48.0963 29.75H46.025C45.9786 29.75 45.9341 29.7684 45.9013 29.8013C45.8685 29.8341 45.85 29.8786 45.85 29.925V32.025C45.85 33.267 46.8508 34.278 48.0881 34.298C48.1096 34.3028 48.1319 34.3035 48.1537 34.3H50.197C50.2158 34.3031 50.2349 34.3031 50.2537 34.3H52.297C52.3158 34.3031 52.3349 34.3031 52.3537 34.3H54.397C54.4158 34.3031 54.4349 34.3031 54.4537 34.3H56.497C56.5195 34.3037 56.5425 34.303 56.5647 34.298C57.8007 34.2765 58.8 33.2661 58.8 32.025V29.925C58.8 29.8786 58.7816 29.8341 58.7488 29.8013C58.7159 29.7684 58.6714 29.75 58.625 29.75H56.5571C56.5456 29.7479 56.534 29.747 56.5223 29.7473C56.5136 29.7475 56.5049 29.7484 56.4963 29.75H54.4571C54.4456 29.7479 54.434 29.747 54.4223 29.7473C54.4136 29.7475 54.4049 29.7484 54.3963 29.75H52.3571C52.3456 29.7479 52.334 29.747 52.3223 29.7473C52.3136 29.7475 52.3049 29.7484 52.2963 29.75H50.2571C50.2456 29.7479 50.234 29.747 50.2223 29.7473C50.2136 29.7475 50.2049 29.7484 50.1963 29.75H48.1571C48.1456 29.7479 48.134 29.747 48.1223 29.7473ZM46.2 30.1H47.95V31.325C47.9497 31.3482 47.954 31.3712 47.9626 31.3927C47.9713 31.4143 47.9841 31.4338 48.0004 31.4504C48.0167 31.4669 48.0361 31.48 48.0575 31.4889C48.0789 31.4979 48.1018 31.5025 48.125 31.5025C48.1482 31.5025 48.1712 31.4979 48.1926 31.4889C48.214 31.48 48.2334 31.4669 48.2496 31.4504C48.2659 31.4338 48.2788 31.4143 48.2874 31.3927C48.2961 31.3712 48.3003 31.3482 48.3 31.325V30.1H50.05V33.95H48.3V32.025C48.3004 32.0016 48.296 31.9783 48.2872 31.9566C48.2784 31.9348 48.2653 31.9151 48.2488 31.8985C48.2322 31.8819 48.2125 31.8689 48.1907 31.8601C48.169 31.8513 48.1457 31.8469 48.1223 31.8473C48.0993 31.8476 48.0766 31.8525 48.0555 31.8616C48.0344 31.8708 48.0153 31.884 47.9993 31.9005C47.9833 31.917 47.9707 31.9365 47.9623 31.9578C47.9538 31.9792 47.9497 32.002 47.95 32.025V33.9411C46.9673 33.8528 46.2 33.0312 46.2 32.025V30.1ZM50.4 30.1H52.15V32.725C52.1497 32.7482 52.154 32.7712 52.1626 32.7927C52.1713 32.8143 52.1841 32.8338 52.2004 32.8504C52.2167 32.8669 52.2361 32.88 52.2575 32.8889C52.2789 32.8979 52.3018 32.9025 52.325 32.9025C52.3482 32.9025 52.3712 32.8979 52.3926 32.8889C52.414 32.88 52.4334 32.8669 52.4496 32.8504C52.4659 32.8338 52.4788 32.8143 52.4874 32.7927C52.4961 32.7712 52.5003 32.7482 52.5 32.725V30.1H54.25V30.975C54.2497 30.9982 54.254 31.0212 54.2626 31.0427C54.2713 31.0643 54.2841 31.0838 54.3004 31.1004C54.3167 31.1169 54.3361 31.13 54.3575 31.1389C54.3789 31.1479 54.4018 31.1525 54.425 31.1525C54.4482 31.1525 54.4712 31.1479 54.4926 31.1389C54.514 31.13 54.5334 31.1169 54.5496 31.1004C54.5659 31.0838 54.5788 31.0643 54.5874 31.0427C54.5961 31.0212 54.6003 30.9982 54.6 30.975V30.1H56.35V33.95H54.6V31.675C54.6004 31.6516 54.596 31.6283 54.5872 31.6066C54.5784 31.5848 54.5653 31.5651 54.5488 31.5485C54.5322 31.5319 54.5125 31.5189 54.4907 31.5101C54.469 31.5013 54.4457 31.4969 54.4223 31.4973C54.3993 31.4976 54.3766 31.5025 54.3555 31.5116C54.3344 31.5208 54.3153 31.534 54.2993 31.5505C54.2833 31.567 54.2707 31.5865 54.2623 31.6078C54.2538 31.6292 54.2497 31.652 54.25 31.675V33.95H52.5V33.425C52.5004 33.4016 52.496 33.3783 52.4872 33.3566C52.4784 33.3348 52.4653 33.3151 52.4488 33.2985C52.4322 33.2819 52.4125 33.2689 52.3907 33.2601C52.369 33.2513 52.3457 33.2469 52.3223 33.2473C52.2993 33.2476 52.2766 33.2525 52.2555 33.2616C52.2344 33.2708 52.2153 33.284 52.1993 33.3005C52.1833 33.317 52.1707 33.3365 52.1623 33.3578C52.1538 33.3792 52.1497 33.402 52.15 33.425V33.95H50.4V30.1ZM56.7 30.1H58.45V32.025C58.45 33.0312 57.6827 33.8528 56.7 33.9411V30.1Z" fill="#007BB0"/>
</svg>
